<svg xmlns="http://www.w3.org/2000/svg" viewBox="0 0 216.73 316"><defs><style>.cls-1{fill:#dc574b;}</style></defs><title>Asset 1</title><g id="Layer_2" data-name="Layer 2"><g id="Layer_1-2" data-name="Layer 1"><path class="cls-1" d="M41.64,228.06a32.48,32.48,0,1,0,32.48,32.49A32.53,32.53,0,0,0,41.64,228.06Z"/><path class="cls-1" d="M215,124.28l-.7-2-2,.62C186,131,163.4,144.66,145.12,163.54c-.4.4-.78.8-1.22,1.27a155.89,155.89,0,0,0-21.45,28.68c-.87,1.5-1.67,2.94-2.42,4.34a.86.86,0,0,0,0-.16,282.6,282.6,0,0,0-4.1-39.46c-.42-2.48-.93-4.93-1.42-7.38,27.05-19.33,42.91-40.33,47.14-62.53,3.54-18.58-2.84-31.06-3.09-31.54L157.63,55l-1.84.71c-25.14,9.7-42.53,30.12-50.3,59.06-.13.51-.25,1-.38,1.53A256.91,256.91,0,0,0,88.94,79.26c-1-1.93-2.1-3.85-3.17-5.76,13.12-10.91,20.68-23.13,22.49-36.39,2.8-20.33-9.14-35.55-9.3-35.75L97.89,0,96.33.7C84.62,5.91,76.63,14,72.59,24.87,70,31.7,69.12,39.61,69.83,48.39A308.08,308.08,0,0,0,32,4.94a7.24,7.24,0,1,0-10,10.46Q55.48,47.52,75.71,85.27c.33.62.62,1.25,1,1.87C66.53,78.43,51.13,68.92,32.13,68.92a61.65,61.65,0,0,0-19.5,3.27l-2.1.69L11.25,75c0,.13,4.21,12.35,17,23.75,10.25,9.11,28.82,20,59.08,20,1,0,2.09,0,3.14,0,.56,1.54,1.14,3.07,1.67,4.63a257.75,257.75,0,0,1,12.27,58.23C91.31,161.88,56.6,140.48,41.4,135A74.76,74.76,0,0,0,17.73,131,64,64,0,0,0,6.62,132,42.74,42.74,0,0,0,2,133.05l-2,.65.64,2c7.58,23.11,22.05,42.11,43.13,56.55l.35.23a137.27,137.27,0,0,0,21.75,12,165.27,165.27,0,0,0,39.54,11.69c-.17,3-.4,6.06-.7,9.06-4.43,42.6-21.91,80.08-22.11,80.5a7.23,7.23,0,0,0,3.45,9.64,7.12,7.12,0,0,0,3.09.7,7.24,7.24,0,0,0,6.54-4.15,295,295,0,0,0,20.12-63.2c.55-2.76,1-5.58,1.51-8.42,48.56-20.92,79.84-46.12,93-75C221,141.87,215.2,125,215,124.28Z"/></g></g></svg>