<?xml version="1.0" encoding="UTF-8"?>
<svg xmlns="http://www.w3.org/2000/svg" width="278.433" height="250.647" viewBox="0 0 278.433 250.647">
  <g id="Group_670" data-name="Group 670" transform="translate(-341.691 -388.715)">
    <path id="Path_262" data-name="Path 262" d="M519.814,1251.035q-9.823,10.913-18.8,22.546c-2.075,2.689-4.2,6.289-2.522,9.243a8.86,8.86,0,0,0,3.9,3.091l10.19,5.3c2.586,1.345,5.506,2.728,8.3,1.907,2.406-.706,4.05-2.862,5.521-4.892l17.389-23.991c1.144-1.578,2.345-3.353,2.15-5.293-.252-2.507-2.683-4.153-4.933-5.287a59.415,59.415,0,0,0-15.118-5.2c-2.791-.555-6.555-.359-7.379,2.365" transform="translate(-120.978 -665.718)" fill="#e0e0e0"></path>
    <path id="Path_263" data-name="Path 263" d="M946,729.613a16.715,16.715,0,0,1,14.936,5.573c3.366,3.83,4.852,8.6,6.384,13.223a331.733,331.733,0,0,0,30.767,66.781c2.793,4.642,5.433,10.858.828,14.786-2.6,2.22-6.569,2.694-10.195,3.033-6.8.637-14.848.866-18.756-3.554-2.647-2.994-.18-7.84-2.308-10.959C950.736,793.706,955.7,792.548,942.9,776.1" transform="translate(-465.663 -263.881)" fill="#df8319"></path>
    <path id="Path_264" data-name="Path 264" d="M544.034,710.54c4.834-.8,11.142,1.637,12.06,6.074,1.353,6.538,4.133,9.863.762,15.829-4.468,7.909-10.2,15.251-14.661,23.165s-7.65,16.685-6.5,25.387c1.4,10.613,9.671,20.286,20.962,24.511,4.562,1.707,9.511,2.566,14.054,4.311s8.863,4.662,10.219,8.808c1.972,6.028-4.335,12.988-11.581,12.782-4.506-.128-8.437-2.489-12.08-4.759l-28.705-17.9c-6.379-3.977-12.9-8.083-17.2-13.785-5.566-7.384-6.778-16.768-5.319-25.551s5.376-17.124,9.443-25.291c1.4-2.809,2.686-5.363,3.945-7.816a64.156,64.156,0,0,1,24.6-25.769Z" transform="translate(-126.859 -249.152)" fill="#df8319"></path>
    <path id="Path_265" data-name="Path 265" d="M662.465,729.994a281.612,281.612,0,0,0,7.516,66.207c1.044,4.426,2.326,9.059,5.57,12.246,4.286,4.211,10.834,4.84,16.831,5.232,9.278.608,8.247,16.907,16.36,12.366,3.868-2.165,19.26-.973,22.4-4.105,4.164-4.158,11.041-4.514,11.236-10.4.186-5.6-7.274-35.047-9.381-40.24-8.763-21.6,10.861-46.215,4.537-68.646-.634-2.247-1.693-4.614-3.793-5.634-2.967-1.441-6.635.6-8.319,3.432s-1.992,6.243-2.662,9.472c-1.822,8.78-7.011,17.206-15.045,21.19s-18.939,2.474-24.372-4.66c-6.95-9.126-1.309-22.979-9.034-31.459" transform="translate(-248.452 -237.233)" fill="#df8319"></path>
    <path id="Path_266" data-name="Path 266" d="M892.574,1191.972a30.8,30.8,0,0,0-15.017-24.084c-12.523-7.256-28.185-4.708-42.392-1.941l-66.956,13.04.63,2.056c-1.519,2.476-.368,5.876,1.78,7.831s5.035,2.831,7.8,3.726a163.42,163.42,0,0,1,24.819,10.362" transform="translate(-330.31 -599.843)" fill="#e0e0e0"></path>
    <path id="Path_267" data-name="Path 267" d="M424.5,1202.5c39.866,1.759,18.768,1.446,58.672,1.208" transform="translate(-64.14 -630.317)" fill="none" stroke="#000" stroke-miterlimit="10" stroke-width="2"></path>
    <path id="Path_268" data-name="Path 268" d="M1350,1187.8c22.427-1.216,28.628-4.062,51.064-3.044" transform="translate(-780.986 -616.408)" fill="none" stroke="#000" stroke-miterlimit="10" stroke-width="2"></path>
    <path id="Path_269" data-name="Path 269" d="M866.754,438.088c11.384,10.445,10.466,28.21,10.47,43.66a199.405,199.405,0,0,0,10.761,64.492c5.677,3.522,13.537-1.3,15.657-7.631s.31-13.234-1.444-19.679-3.43-13.414-1.074-19.665c3-7.957,12.2-14.009,10.915-22.414-1.177-7.68-10.291-11.089-14.853-17.377-3.112-4.289-3.964-9.79-4.309-15.078s-.29-10.692-1.928-15.731-5.415-9.789-10.613-10.819-11.286,3.206-10.724,8.475" transform="translate(-406.687 -22.441)" fill="#774220"></path>
    <path id="Path_270" data-name="Path 270" d="M750.259,667.373a39.742,39.742,0,0,0,9.028,13.573c1.55,1.522,3.477,3,5.642,2.826a8.45,8.45,0,0,0,3.757-1.642l15.046-9.782" transform="translate(-316.456 -215.834)" fill="none" stroke="#000" stroke-miterlimit="10" stroke-width="2"></path>
    <path id="Path_271" data-name="Path 271" d="M688.483,415.573c-.479-6.251-1.021-12.722-4.113-18.215s-9.485-9.738-15.75-8.392c-3.882.834-7.059,3.606-10.872,4.7-5.2,1.5-12.127.3-14.928,4.842-2.932,4.754,1.987,10.882.641,16.275-1.312,5.258-8.167,8.182-8.6,13.578-.462,5.766,6.833,10.242,5.931,15.957-.424,2.687-2.574,4.735-4.335,6.839s-3.639,9.062-2.555,11.566c-.451,11.272,3.061,2.142,4.509,1.8l2.931-2.029c3-2.131,2.193,1.579,5.411,3.382s10.51-3.607,10.145,0c6.945-12.873,1.452-28.466,2.058-43.007.086-2.055.44-4.409,2.218-5.508,1.921-1.187,4.4-.278,6.575.38a26.733,26.733,0,0,0,26.2-6.621" transform="translate(-226.085)" fill="#774220"></path>
    <path id="Path_272" data-name="Path 272" d="M794.986,590.971a76.132,76.132,0,0,0-1.039,14.961c.016.558.121,1.237.642,1.438a1.455,1.455,0,0,0,.887-.047l4.6-1.234" transform="translate(-350.27 -156.657)" fill="none" stroke="#000" stroke-miterlimit="10" stroke-width="2"></path>
    <path id="Path_273" data-name="Path 273" d="M624.687,873.78l-17.223,38.7" transform="translate(-205.854 -375.707)" fill="none" stroke="#000" stroke-miterlimit="10" stroke-width="2"></path>
    <path id="Path_274" data-name="Path 274" d="M628.63,978.093c-.9,10.409,4.727,20.568,12.578,27.461s17.714,11.017,27.543,14.561c1.358.49,2.894,1.146,3.313,2.528a4.5,4.5,0,0,1-.747,3.311,51.754,51.754,0,0,1-8.579,11.64" transform="translate(-222.175 -456.503)" fill="none" stroke="#000" stroke-miterlimit="10" stroke-width="2"></path>
    <path id="Path_275" data-name="Path 275" d="M461.1,945.94" transform="translate(-92.487 -431.598)" fill="none" stroke="#000" stroke-miterlimit="10" stroke-width="1"></path>
    <path id="Path_276" data-name="Path 276" d="M345.734,1121.55a39.121,39.121,0,0,0,31.223-4.361,137.95,137.95,0,0,0-30.4-.1c-1.469.158-3.085.417-4.027,1.555-.967,1.167-.891,2.85-.765,4.361l1.669,19.927c.284,3.4.7,7.1,3.113,9.518,2.756,2.762,7.117,2.882,11.019,2.824l13.442-.2c2.216-.032,4.676-.164,6.234-1.739a6.286,6.286,0,0,0,1.264-5.624,51.614,51.614,0,0,0-1.9-5.686,19.412,19.412,0,0,1,.226-12.375c.9-2.488,2.324-4.888,2.319-7.532s-2.371-5.524-4.9-4.745" transform="translate(0 -563.549)" fill="#e0e0e0"></path>
    <path id="Path_277" data-name="Path 277" d="M514.268,1379.3l17.6,9.247" transform="translate(-133.669 -767.258)" fill="none" stroke="#000" stroke-miterlimit="10" stroke-width="1"></path>
    <path id="Path_278" data-name="Path 278" d="M638.726,1284.782a.89.89,0,1,0,.091-.046" transform="translate(-229.754 -693.966)" fill="none" stroke="#000" stroke-miterlimit="10" stroke-width="1"></path>
    <path id="Path_279" data-name="Path 279" d="M586.328,1397.806a15.287,15.287,0,0,0-6.958.347,5.615,5.615,0,0,0-3.586,2.469,6.885,6.885,0,0,0,.06,5.66,9.429,9.429,0,0,0,6.129,5.839,7.22,7.22,0,0,0,7.428-2.8,9.551,9.551,0,0,0,1.106-8.983,4.424,4.424,0,0,0-1.648-2.146,1.916,1.916,0,0,0-2.353.2" transform="translate(-180.864 -781.399)" fill="#fc5549"></path>
    <path id="Path_280" data-name="Path 280" d="M1241.255,876.02a120.006,120.006,0,0,0-8.114-20.587" transform="translate(-690.472 -361.496)" fill="none" stroke="#000" stroke-miterlimit="10" stroke-width="2"></path>
    <path id="Path_281" data-name="Path 281" d="M1313.745,864.285a74.217,74.217,0,0,0,3.347-18.442" transform="translate(-752.904 -354.068)" fill="none" stroke="#000" stroke-miterlimit="10" stroke-width="2"></path>
    <path id="Path_282" data-name="Path 282" d="M1190.449,912.55l-11.661-9.319" transform="translate(-648.373 -398.518)" fill="none" stroke="#000" stroke-miterlimit="10" stroke-width="2"></path>
    <path id="Path_283" data-name="Path 283" d="M373.489,1407.434l-19.68,4.171" transform="translate(-9.386 -789.049)" fill="none" stroke="#000" stroke-miterlimit="10" stroke-width="2"></path>
    <path id="Path_284" data-name="Path 284" d="M454.558,1446.923l-2.2,11.891" transform="translate(-85.715 -819.635)" fill="none" stroke="#000" stroke-miterlimit="10" stroke-width="2"></path>
    <path id="Path_285" data-name="Path 285" d="M390.249,1354.259l-13.565-3.223" transform="translate(-27.104 -745.366)" fill="none" stroke="#000" stroke-miterlimit="10" stroke-width="2"></path>
    <path id="Path_286" data-name="Path 286" d="M351.06,1067.49a22.072,22.072,0,0,0-4.944-11.342,24.476,24.476,0,0,1-2.272-2.838,4.732,4.732,0,0,1-.746-3.469,1.506,1.506,0,0,1,.659-1.02,1.756,1.756,0,0,1,1.363.029c3.442,1.127,5.941,4.239,7.229,7.623s1.541,7.061,1.782,10.674" transform="translate(-1.019 -511.186)" fill="#e0e0e0"></path>
    <path id="Path_287" data-name="Path 287" d="M390.442,1076.487a16.731,16.731,0,0,1-1.1-10.844,8.809,8.809,0,0,1,1.552-3.487,4.581,4.581,0,0,1,3.263-1.811,1.573,1.573,0,0,1,1.63.828c.27.794-.514,1.513-1.155,2.055a11.862,11.862,0,0,0-3.548,12.356" transform="translate(-36.566 -520.208)" fill="#e0e0e0"></path>
    <path id="Path_288" data-name="Path 288" d="M441.054,1064.859l3.283-18.849c1.5.4,2.068,2.2,2.254,3.742a26.463,26.463,0,0,1-2.509,14.74" transform="translate(-76.962 -509.108)" fill="#e0e0e0"></path>
    <path id="Path_289" data-name="Path 289" d="M383.635,1031.508a24.058,24.058,0,0,1,1.2-13.389c.91-2.317,2.211-4.74,1.6-7.155-.674-2.672-3.613-4.294-6.368-4.265s-5.327,1.35-7.646,2.84a8.175,8.175,0,0,1,15.768-1c1.78,5.315-2.126,10.909-1.87,16.508.081,1.77.579,3.561.179,5.287s-2.243,3.316-3.856,2.583" transform="translate(-23.8 -475.767)" fill="#e0e0e0"></path>
    <path id="Path_290" data-name="Path 290" d="M345.49,1125.558c2.739,2.692,6.651,3.814,10.454,4.351a45.6,45.6,0,0,0,20.152-1.7,5.3,5.3,0,0,0,3.133-1.979c.647-1.086.159-2.862-1.1-2.988" transform="translate(-2.943 -568.928)" fill="none" stroke="#000" stroke-miterlimit="10" stroke-width="1"></path>
    <path id="Path_291" data-name="Path 291" d="M729.777,727.765a93.852,93.852,0,0,0,4.1,18.152c1.174,3.527,2.663,7.135,5.5,9.534,3.732,3.154,9.179,3.589,13.9,2.328s8.893-3.987,12.974-6.673" transform="translate(-300.592 -262.611)" fill="none" stroke="#000" stroke-miterlimit="10" stroke-width="2"></path>
    <path id="Path_292" data-name="Path 292" d="M1023.243,759.628q14.3,30.418,26.982,61.564" transform="translate(-527.896 -287.291)" fill="none" stroke="#000" stroke-miterlimit="10" stroke-width="2"></path>
    <path id="Path_293" data-name="Path 293" d="M897.821,664c-2.792,3.373-3.681,7.931-3.9,12.3a23.92,23.92,0,0,0,.976,9c1.117,3.237,4.031.036,6.892,1.918" transform="translate(-427.691 -213.222)" fill="none" stroke="#000" stroke-miterlimit="10" stroke-width="2"></path>
    <path id="Path_294" data-name="Path 294" d="M817.467,1196.467a36.97,36.97,0,0,1,19.853,8.173c1.644,1.35,3.313,3.3,2.748,5.355s-2.987,2.872-5.088,3.113c-8.858,1.015-17.483-2.77-25.6-6.467" transform="translate(-362.252 -625.644)" fill="#fff"></path>
    <path id="Path_295" data-name="Path 295" d="M817.467,1196.467a36.97,36.97,0,0,1,19.853,8.173c1.644,1.35,3.313,3.3,2.748,5.355s-2.987,2.872-5.088,3.113c-8.858,1.015-17.483-2.77-25.6-6.467" transform="translate(-362.252 -625.644)" fill="none" stroke="#000" stroke-miterlimit="10" stroke-width="1"></path>
    <path id="Path_296" data-name="Path 296" d="M918.8,1065.8l10.558-64.188L1042.282,987l-25.479,62.74a15.954,15.954,0,0,1-2.872,5.163c-1.976,2.038-4.739,2.412-7.323,2.7" transform="translate(-446.998 -463.402)" fill="#e0e0e0"></path>
    <path id="Path_297" data-name="Path 297" d="M928.579,1069.1a483.365,483.365,0,0,1,5.989-49.077c.667-3.823,1.479-7.849,4.074-10.736,3.355-3.734,8.776-4.611,13.753-5.265l76.88-10.1" transform="translate(-454.574 -468.761)" fill="none" stroke="#000" stroke-miterlimit="10" stroke-width="2"></path>
    <path id="Path_298" data-name="Path 298" d="M1410.986,933.928a23.284,23.284,0,0,0-10.5.519,8.474,8.474,0,0,0-5.409,3.688c-1.378,2.467-.981,5.786.09,8.453,1.742,4.341,5.223,7.741,9.246,8.721a10.948,10.948,0,0,0,11.206-4.187,14.149,14.149,0,0,0,1.668-13.417,6.621,6.621,0,0,0-2.485-3.206,2.912,2.912,0,0,0-3.549.3" transform="translate(-815.22 -422.009)" fill="#fc5549"></path>
  </g>
</svg>
