<svg xmlns="http://www.w3.org/2000/svg" width="273.529" height="31.003" viewBox="0 0 273.529 31.003">
  <g id="Group_413" data-name="Group 413" transform="translate(-100 -60.748)">
    <g id="Group_10" data-name="Group 10">
      <g id="Group_8" data-name="Group 8">
        <g id="Group_1" data-name="Group 1">
          <path id="Path_1" data-name="Path 1" d="M104.085,89.5a3.186,3.186,0,1,1,3.187-3.185A3.19,3.19,0,0,1,104.085,89.5Z" fill="#fff"/>
        </g>
        <g id="Group_2" data-name="Group 2">
          <path id="Path_2" data-name="Path 2" d="M111.171,81.861c-.03-.069-.062-.138-.094-.207-.118-.266-.242-.525-.367-.777s-.237-.469-.356-.693c.008.177.013.355.015.535a18,18,0,0,1-.1,2.12l.195.019.173.013,1.011.079Z" fill="#fff"/>
        </g>
        <g id="Group_3" data-name="Group 3">
          <path id="Path_3" data-name="Path 3" d="M110.32,72.181a13.065,13.065,0,0,0-.311,3.736l.1,1.162.985-.629c.094-.059.185-.118.276-.18A25.679,25.679,0,0,0,110.32,72.181Z" fill="#fff"/>
        </g>
        <g id="Group_4" data-name="Group 4">
          <path id="Path_4" data-name="Path 4" d="M106.868,65.519a9.414,9.414,0,0,0,.742,2.776l.366.78.695-.508.055-.042A26.612,26.612,0,0,0,106.868,65.519Z" fill="#fff"/>
        </g>
        <g id="Group_5" data-name="Group 5">
          <path id="Path_5" data-name="Path 5" d="M109.55,71.806a10.612,10.612,0,0,0-2.122-2.692,24.253,24.253,0,0,1,1.614,3.731l1.021-.076Z" fill="#fff"/>
        </g>
        <g id="Group_6" data-name="Group 6">
          <path id="Path_6" data-name="Path 6" d="M111.79,80.694c0-.185-.007-.37-.014-.552a15.578,15.578,0,0,0-.7,1.512c-.182.447-.325.856-.436,1.217a11.424,11.424,0,0,0-.388,1.569l-.182,1.221,1.147-.459c.049-.019.1-.039.143-.059A21.078,21.078,0,0,0,111.79,80.694Z" fill="#fff"/>
        </g>
        <g id="Group_7" data-name="Group 7">
          <path id="Path_7" data-name="Path 7" d="M111.361,85.143a28.9,28.9,0,0,1-1.974,6.2.711.711,0,0,1-.642.407.688.688,0,0,1-.3-.069.709.709,0,0,1-.338-.945,27.748,27.748,0,0,0,2.169-7.9,18,18,0,0,0,.1-2.12c0-.18-.007-.358-.015-.535a25.671,25.671,0,0,0-1.312-7.339,24.253,24.253,0,0,0-1.614-3.731,27.354,27.354,0,0,0-5.276-6.854.71.71,0,0,1,.982-1.027,30.138,30.138,0,0,1,3.734,4.286,26.612,26.612,0,0,1,1.858,3.006,25.359,25.359,0,0,1,1.594,3.656,25.679,25.679,0,0,1,1.053,4.089,27.991,27.991,0,0,1,.4,3.872c.007.182.012.367.014.552A21.078,21.078,0,0,1,111.361,85.143Z" fill="#fff"/>
        </g>
      </g>
      <g id="Group_9" data-name="Group 9">
        <path id="Path_8" data-name="Path 8" d="M111.16,75.6a26.464,26.464,0,0,0-.887-3.282c.024-.1.049-.2.077-.306a8.123,8.123,0,0,1,4.935-5.795l.18-.07.09.17a5.039,5.039,0,0,1,.3,3.1C115.439,71.61,113.86,73.689,111.16,75.6Z" fill="#fff"/>
        <path id="Path_9" data-name="Path 9" d="M108.389,67.982a27.146,27.146,0,0,0-1.535-2.437,5.376,5.376,0,0,1,.268-2.357,4.158,4.158,0,0,1,2.329-2.371l.153-.069.105.134a5,5,0,0,1,.913,3.508A5.717,5.717,0,0,1,108.389,67.982Z" fill="#fff"/>
        <path id="Path_10" data-name="Path 10" d="M108.57,72.4a8.442,8.442,0,0,1-5.8-1.958,6.1,6.1,0,0,1-1.67-2.33l-.07-.209.205-.068a6.047,6.047,0,0,1,1.914-.321,6.9,6.9,0,0,1,4.512,1.912,23.969,23.969,0,0,1,1.325,2.967C108.849,72.394,108.709,72.4,108.57,72.4Z" fill="#fff"/>
        <path id="Path_11" data-name="Path 11" d="M111.457,84.341a20.881,20.881,0,0,0,.277-3.655c0-.143-.006-.288-.011-.432.088-.166.186-.341.29-.522a15.287,15.287,0,0,1,2.1-2.814c.043-.046.081-.085.12-.125a15.286,15.286,0,0,1,6.586-3.984l.2-.061.068.193a5.672,5.672,0,0,1-.455,4.018C119.338,79.8,116.252,82.284,111.457,84.341Z" fill="#fff"/>
        <path id="Path_12" data-name="Path 12" d="M110.4,81.96a16.231,16.231,0,0,1-3.939-1.157,13.57,13.57,0,0,1-2.133-1.174l-.034-.023a10.629,10.629,0,0,1-4.232-5.548L100,73.866l.193-.064a4.05,4.05,0,0,1,.456-.107,6.27,6.27,0,0,1,1.09-.091,7.34,7.34,0,0,1,2.323.384c1.579.574,5.3,2.894,6.388,4.906,0,.128,0,1.469,0,1.6C110.455,80.962,110.439,81.453,110.4,81.96Z" fill="#fff"/>
      </g>
    </g>
    <g id="Group_31" data-name="Group 31">
      <g id="Group_30" data-name="Group 30">
        <g id="Group_29" data-name="Group 29">
          <g id="Group_28" data-name="Group 28">
            <g id="Group_27" data-name="Group 27">
              <g id="Group_11" data-name="Group 11">
                <path id="Path_13" data-name="Path 13" d="M175.36,83.1a4.687,4.687,0,0,1-1.578.242,4.339,4.339,0,0,1-3.635-1.618,6.838,6.838,0,0,1-1.308-4.325c0-.247.017-.6.055-1.052l7.72-.077c.25,0,.372-.281.369-.838a3.455,3.455,0,0,0-.968-2.609,3.85,3.85,0,0,0-2.772-.9,6.628,6.628,0,0,0-3.369.9,6.56,6.56,0,0,0-2.409,2.413,6.706,6.706,0,0,0-.163,6.3,5.359,5.359,0,0,0,2.013,2.185,5.837,5.837,0,0,0,3.162.8,6.816,6.816,0,0,0,4.614-1.884l-.189-.309S175.785,82.941,175.36,83.1Zm-5.327-9.653a2.859,2.859,0,0,1,2.151-.9,2.157,2.157,0,0,1,1.8.809,3.841,3.841,0,0,1,.656,2.395l-5.687.159A4.465,4.465,0,0,1,170.033,73.445Z" fill="#fff"/>
              </g>
              <g id="Group_12" data-name="Group 12">
                <path id="Path_14" data-name="Path 14" d="M145.829,66.011a9.8,9.8,0,0,0-5.229-1.345,12.554,12.554,0,0,0-5.2,1.176,10.163,10.163,0,0,0-4.151,3.444,9.144,9.144,0,0,0-1.592,5.472,10.5,10.5,0,0,0,1.266,5.02,9.265,9.265,0,0,0,3.523,3.631,9.94,9.94,0,0,0,5.18,1.313,11.258,11.258,0,0,0,5.445-1.394,10.724,10.724,0,0,0,3.994-3.738,9.41,9.41,0,0,0,1.468-5.176,10.047,10.047,0,0,0-1.233-4.789A9.379,9.379,0,0,0,145.829,66.011Zm1.164,13.979a7.012,7.012,0,0,1-2.575,3,6.877,6.877,0,0,1-3.7,1.043,7.229,7.229,0,0,1-4.352-1.351,9.066,9.066,0,0,1-2.992-3.741,12.833,12.833,0,0,1-1.1-5.284,8.936,8.936,0,0,1,1.839-6.03,6.514,6.514,0,0,1,5.205-2.214,8.028,8.028,0,0,1,4.508,1.243,8.26,8.26,0,0,1,3.007,3.508,12.093,12.093,0,0,1,1.078,5.13A10.651,10.651,0,0,1,146.993,79.99Z" fill="#fff"/>
              </g>
              <g id="Group_13" data-name="Group 13">
                <path id="Path_15" data-name="Path 15" d="M165.065,83.656a.94.94,0,0,1-.551-.616,4.806,4.806,0,0,1-.149-1.346l-.037-6.033a3.9,3.9,0,0,0-.971-2.81,3.538,3.538,0,0,0-2.678-.974q-2.5.015-4.766,2.69a5.111,5.111,0,0,0-.339-1.839c-.2-.462-.4-.694-.613-.692l-.189.032-3.739,1.817.16.34a5.526,5.526,0,0,1,1.652-.475.857.857,0,0,1,.816.46,3.287,3.287,0,0,1,.259,1.484l.038,6.063a4.792,4.792,0,0,1-.133,1.348.945.945,0,0,1-.527.622,6.313,6.313,0,0,1-1.2.177l0,.372,5.781-.035,0-.372a6.612,6.612,0,0,1-1.22-.162.944.944,0,0,1-.551-.616,4.883,4.883,0,0,1-.149-1.346l-.041-6.652a5.929,5.929,0,0,1,1.727-1.31,4.241,4.241,0,0,1,1.857-.476,2.567,2.567,0,0,1,2.147.839,4.264,4.264,0,0,1,.687,2.641l.03,4.919a4.787,4.787,0,0,1-.132,1.347.94.94,0,0,1-.526.623,6.331,6.331,0,0,1-1.2.177l0,.372,5.781-.035,0-.372A6.594,6.594,0,0,1,165.065,83.656Z" fill="#fff"/>
              </g>
              <g id="Group_14" data-name="Group 14">
                <path id="Path_16" data-name="Path 16" d="M209.892,83.387a2.726,2.726,0,0,1-.386-1.715l-.037-5.972a3.891,3.891,0,0,0-.971-2.809,3.493,3.493,0,0,0-2.647-.974,5.074,5.074,0,0,0-2.464.664,8.735,8.735,0,0,0-2.332,1.995l-.079-12.749-.437-.028a3.836,3.836,0,0,1-1.627,2.238,6.064,6.064,0,0,1-3.167.885q-1.5.072-6.031.1-4.5.027-6.283-.024-1.686.01-1.691-.671l-.376,0q.006.993-.138,2.911t-.264,2.786l.376,0a6.537,6.537,0,0,1,1.493-3.428,4.063,4.063,0,0,1,2.979-1.054,9.338,9.338,0,0,1,1.829.111,1.053,1.053,0,0,1,.753.506,3.075,3.075,0,0,1,.212,1.315l.088,14.325a3.284,3.284,0,0,1-.21,1.378,1.191,1.191,0,0,1-.84.61,8.824,8.824,0,0,1-1.937.166l0,.372,8.283-.051,0-.371a8.832,8.832,0,0,1-1.955-.143,1.136,1.136,0,0,1-.816-.583A3.488,3.488,0,0,1,191,81.784l-.088-14.264a3.141,3.141,0,0,1,.2-1.332,1.076,1.076,0,0,1,.746-.545,8.116,8.116,0,0,1,1.8-.15l4.907-.03q.469,0,.472.4l.1,15.874a2.722,2.722,0,0,1-.365,1.72,2.122,2.122,0,0,1-1.56.427l0,.372,5.812-.036,0-.371a2.072,2.072,0,0,1-1.534-.409,2.735,2.735,0,0,1-.384-1.715l-.041-6.59a6.093,6.093,0,0,1,1.741-1.326,4.231,4.231,0,0,1,1.873-.491,2.526,2.526,0,0,1,2.13.869,4.323,4.323,0,0,1,.705,2.672l.029,4.826a2.724,2.724,0,0,1-.364,1.721c-.249.28-1.56.427-1.56.427l0,.372,5.814-.036,0-.371S210.144,83.664,209.892,83.387Z" fill="#fff"/>
              </g>
              <g id="Group_15" data-name="Group 15">
                <path id="Path_17" data-name="Path 17" d="M220.532,83.075a4.684,4.684,0,0,1-1.577.242A4.335,4.335,0,0,1,215.32,81.7a6.836,6.836,0,0,1-1.308-4.325c0-.246.016-.6.055-1.052l7.719-.077q.375,0,.37-.838a3.453,3.453,0,0,0-.969-2.609,3.855,3.855,0,0,0-2.772-.9,6.636,6.636,0,0,0-3.369.9,6.555,6.555,0,0,0-2.407,2.413,6.7,6.7,0,0,0-.165,6.3,5.357,5.357,0,0,0,2.015,2.185,5.823,5.823,0,0,0,3.16.8,6.816,6.816,0,0,0,4.615-1.884l-.19-.309S220.958,82.918,220.532,83.075Zm-5.327-9.653a2.859,2.859,0,0,1,2.152-.9,2.152,2.152,0,0,1,1.8.81,3.838,3.838,0,0,1,.655,2.4l-5.687.158A4.472,4.472,0,0,1,215.205,73.422Z" fill="#fff"/>
              </g>
              <g id="Group_16" data-name="Group 16">
                <path id="Path_18" data-name="Path 18" d="M232.059,72.221a2.474,2.474,0,0,0-1.329-.394,2.53,2.53,0,0,0-1.436.535,13.308,13.308,0,0,0-2.018,1.992,5.041,5.041,0,0,0-.34-1.808q-.3-.693-.614-.692l-.186.032L222.4,73.7l.127.34a12.16,12.16,0,0,1,1.685-.475.857.857,0,0,1,.816.46,3.317,3.317,0,0,1,.258,1.484l.037,6.064a4.8,4.8,0,0,1-.132,1.347.939.939,0,0,1-.526.622,6.351,6.351,0,0,1-1.2.178l0,.371,6.876-.041,0-.372a15.784,15.784,0,0,1-1.906-.158,1.279,1.279,0,0,1-.863-.615,2.978,2.978,0,0,1-.244-1.345l-.041-6.652a11.086,11.086,0,0,1,1.352-1.37,1.4,1.4,0,0,1,.825-.314,1.235,1.235,0,0,1,.58.121,3.635,3.635,0,0,1,.549.368,3.047,3.047,0,0,0,.5.367,1.052,1.052,0,0,0,.532.121,1.08,1.08,0,0,0,.795-.3.985.985,0,0,0,.293-.728A1.146,1.146,0,0,0,232.059,72.221Z" fill="#fff"/>
              </g>
              <g id="Group_17" data-name="Group 17">
                <path id="Path_19" data-name="Path 19" d="M244.635,82.268l-.059.026a3.876,3.876,0,0,1-1.435.38,1,1,0,0,1-.925-.49,3.115,3.115,0,0,1-.307-1.545l-.035-5.723a3.535,3.535,0,0,0-.718-2.363,2.473,2.473,0,0,0-1.989-.808,7.514,7.514,0,0,0-2.451.509,8.359,8.359,0,0,0-2.367,1.284,2.1,2.1,0,0,0-.975,1.553.922.922,0,0,0,.285.679,1.163,1.163,0,0,0,.847.274q1.094-.007,1.273-1.37a3.7,3.7,0,0,1,.677-1.613,1.829,1.829,0,0,1,1.558-.721,1.551,1.551,0,0,1,1.427.827,5.608,5.608,0,0,1,.5,2.689l.012,2.041-3.336,1.228a8.979,8.979,0,0,0-2.539,1.331,2.069,2.069,0,0,0-.785,1.66,1.992,1.992,0,0,0,.664,1.528,2.627,2.627,0,0,0,1.848.591,3.9,3.9,0,0,0,1.3-.223,5.915,5.915,0,0,0,1.356-.752l1.556-1.03a3.813,3.813,0,0,0,.461,1.466c.221.359.468.539.738.537a.641.641,0,0,0,.281-.063l3.209-1.536Zm-5.87.248a2.834,2.834,0,0,1-1.4.472,1.678,1.678,0,0,1-1.238-.471,1.653,1.653,0,0,1-.493-1.22,1.559,1.559,0,0,1,.431-1.132,3.4,3.4,0,0,1,1.277-.766l2.618-1.067.021,3.433Z" fill="#fff"/>
              </g>
              <g id="Group_18" data-name="Group 18">
                <path id="Path_20" data-name="Path 20" d="M255.688,72.232a4.5,4.5,0,0,0-2.4-.666,5.8,5.8,0,0,0-2.574.635,9.744,9.744,0,0,0-2.567,1.965,4.924,4.924,0,0,0-.323-1.808q-.285-.633-.692-.631a.527.527,0,0,0-.218.063l-3.646,1.756.159.338h.031a4.306,4.306,0,0,1,1.621-.473.871.871,0,0,1,.864.475,3.8,3.8,0,0,1,.243,1.561l.059,9.508a4.779,4.779,0,0,1-.132,1.362.931.931,0,0,1-.528.606,6.477,6.477,0,0,1-1.232.178l0,.371,6.969-.042,0-.372a16.779,16.779,0,0,1-1.987-.157,1.316,1.316,0,0,1-.878-.6,3,3,0,0,1-.243-1.36l-.008-1.309a5.555,5.555,0,0,0,1.5.547,8.565,8.565,0,0,0,1.72.144,7.036,7.036,0,0,0,3.089-.776,6.494,6.494,0,0,0,2.594-2.367,7.027,7.027,0,0,0,1.024-3.952,6.664,6.664,0,0,0-.676-3.029A4.8,4.8,0,0,0,255.688,72.232Zm-.751,9.968a3.111,3.111,0,0,1-2.632,1.441,5.15,5.15,0,0,1-2.332-.466,5.691,5.691,0,0,1-1.775-1.428l-.044-7.024a7.549,7.549,0,0,1,1.743-1.387,3.964,3.964,0,0,1,1.935-.493,3.6,3.6,0,0,1,2.93,1.39,6.169,6.169,0,0,1,1.166,3.97A6.794,6.794,0,0,1,254.937,82.2Z" fill="#fff"/>
              </g>
              <g id="Group_19" data-name="Group 19">
                <path id="Path_21" data-name="Path 21" d="M266.078,71.89l0,.372a3.633,3.633,0,0,1,1.768.314,1.152,1.152,0,0,1,.553,1.066,4.091,4.091,0,0,1-.242,1.209l-2.365,6.85L261.71,73.5a1.61,1.61,0,0,1-.158-.524q0-.371.452-.528a8.583,8.583,0,0,1,1.325-.165l0-.372-5.471.033,0,.373a1.243,1.243,0,0,1,.972.413,10.369,10.369,0,0,1,1.107,1.772l4.856,9.6a6.728,6.728,0,0,1-.724,1.619,2.113,2.113,0,0,1-1.312.963,1.671,1.671,0,0,1-.8,0c-.229-.063-.367-.1-.414-.112a3.217,3.217,0,0,0-.631-.183,1.907,1.907,0,0,0-.717.034,1.254,1.254,0,0,0-.735.441.969.969,0,0,0-.169.859,1.15,1.15,0,0,0,.682.873,2.12,2.12,0,0,0,1.319.074,4.5,4.5,0,0,0,2.371-1.294,6.89,6.89,0,0,0,1.311-2.135h0c.027-.068.054-.138.08-.207s.062-.155.091-.235l.035-.088,3.687-9.923a5.884,5.884,0,0,1,1.1-1.958,1.922,1.922,0,0,1,1.418-.6l0-.372Z" fill="#fff"/>
              </g>
              <g id="Group_20" data-name="Group 20">
                <path id="Path_22" data-name="Path 22" d="M289.907,64.909l0,.451a1.779,1.779,0,0,1,1.688.911,6.139,6.139,0,0,1,.531,2.87L292.2,80.3s-11.815-15.109-11.881-15.2a.392.392,0,0,0-.329-.13l-3.963.024,0,.452a3.169,3.169,0,0,1,2.375,1.488l.081,13.007a5.612,5.612,0,0,1-.538,2.858c-.367.6-1.776.914-1.776.914l0,.451,5.275-.032,0-.451s-1.323-.293-1.688-.893a5.744,5.744,0,0,1-.559-2.851l-.075-12.261,13.474,16.951.343,0-.1-15.487a5.746,5.746,0,0,1,.537-2.877,1.876,1.876,0,0,1,1.72-.931l0-.451Z" fill="#fff"/>
              </g>
              <g id="Group_21" data-name="Group 21">
                <path id="Path_23" data-name="Path 23" d="M304.314,83.189a4.678,4.678,0,0,1-1.576.242,4.338,4.338,0,0,1-3.636-1.618,6.844,6.844,0,0,1-1.309-4.325q0-.371.057-1.052l7.718-.077c.251,0,.374-.281.371-.838a3.448,3.448,0,0,0-.97-2.609,3.849,3.849,0,0,0-2.772-.9,6.636,6.636,0,0,0-3.369.9,6.562,6.562,0,0,0-2.407,2.413,6.7,6.7,0,0,0-.165,6.3,5.368,5.368,0,0,0,2.014,2.185,5.841,5.841,0,0,0,3.162.8,6.812,6.812,0,0,0,4.613-1.884l-.189-.308S304.739,83.032,304.314,83.189Zm-5.326-9.653a2.858,2.858,0,0,1,2.152-.9,2.15,2.15,0,0,1,1.8.809,3.841,3.841,0,0,1,.657,2.4L297.909,76A4.473,4.473,0,0,1,298.988,73.536Z" fill="#fff"/>
              </g>
              <g id="Group_22" data-name="Group 22">
                <path id="Path_24" data-name="Path 24" d="M313.113,83.368a2.173,2.173,0,0,1-2.454-2.461l-.047-7.611h0c.491.008,2.236.04,3.039.082l0-.894c-.848.049-2.577.087-3.039.1l-.015-2.35-.468,0a2.48,2.48,0,0,1-.926,1.879,4.439,4.439,0,0,1-2.216.522l0,.433a3.254,3.254,0,0,1,1.049.117.75.75,0,0,1,.456.477,3.614,3.614,0,0,1,.132,1.1l.044,7.209a2.271,2.271,0,0,0,.872,1.992,3.687,3.687,0,0,0,2.176.589,5.01,5.01,0,0,0,2-.414,9.374,9.374,0,0,0,2.086-1.342l-.127-.341A8.1,8.1,0,0,1,313.113,83.368Z" fill="#fff"/>
              </g>
              <g id="Group_23" data-name="Group 23">
                <path id="Path_25" data-name="Path 25" d="M335.952,72.089l-5.313.032,0,.372a7.872,7.872,0,0,1,1.8.3,1.042,1.042,0,0,1,.584.987,2.471,2.471,0,0,1-.212.93l-2.74,6.73L326.3,73.725a1.181,1.181,0,0,1-.159-.462c0-.5.577-.746,1.745-.753l0-.372-5.469.033,0,.372a2.35,2.35,0,0,1,.987.412,8.126,8.126,0,0,1,1.058,1.773l.506,1.048-2.308,5.676-3.83-7.681a1.176,1.176,0,0,1-.159-.494q0-.711,1.777-.722l0-.372-5.563.034,0,.372s.127,0,.188.01a1.448,1.448,0,0,1,.19.029,1.486,1.486,0,0,1,.688.372,6.4,6.4,0,0,1,1.072,1.773l4.5,9.316a.455.455,0,0,0,.377.122c.208,0,.312-.044.311-.126l3.142-7.507,3.64,7.466c.02.082.136.123.344.122s.323-.044.344-.126l3.817-9.213A5.609,5.609,0,0,1,334.613,73a3.146,3.146,0,0,1,1.341-.534Z" fill="#fff"/>
              </g>
              <g id="Group_24" data-name="Group 24">
                <path id="Path_26" data-name="Path 26" d="M345.627,72.526a5.827,5.827,0,0,0-3.24-.878,7.655,7.655,0,0,0-3.168.715,6.207,6.207,0,0,0-2.534,2.119,5.749,5.749,0,0,0-.978,3.426,7.073,7.073,0,0,0,.785,3.26,5.975,5.975,0,0,0,2.172,2.369,5.912,5.912,0,0,0,3.239.862,7.2,7.2,0,0,0,3.34-.809,6.059,6.059,0,0,0,3.309-5.606,6.75,6.75,0,0,0-.769-3.1A6.038,6.038,0,0,0,345.627,72.526Zm-.312,10.057a2.944,2.944,0,0,1-2.508,1.223,3.636,3.636,0,0,1-2.444-.9,6.085,6.085,0,0,1-1.688-2.5,9.72,9.72,0,0,1-.63-3.507,5.69,5.69,0,0,1,.853-3.44,2.9,2.9,0,0,1,2.462-1.19,3.917,3.917,0,0,1,2.442.82,5.529,5.529,0,0,1,1.735,2.341,9.041,9.041,0,0,1,.645,3.462A6.189,6.189,0,0,1,345.315,82.583Z" fill="#fff"/>
              </g>
              <g id="Group_25" data-name="Group 25">
                <path id="Path_27" data-name="Path 27" d="M358.251,72.078a2.48,2.48,0,0,0-1.331-.4,2.527,2.527,0,0,0-1.434.535,13.315,13.315,0,0,0-2.02,1.993,5.06,5.06,0,0,0-.339-1.808q-.3-.694-.614-.693l-.187.032-3.739,1.817.127.341h.031a5.518,5.518,0,0,1,1.653-.476.854.854,0,0,1,.816.461,3.3,3.3,0,0,1,.26,1.484l.037,6.063a4.786,4.786,0,0,1-.132,1.347.948.948,0,0,1-.528.623,3.2,3.2,0,0,1-1.2.177l0,.372,6.876-.042,0-.372a7.908,7.908,0,0,1-1.908-.158,1.29,1.29,0,0,1-.863-.614,3.011,3.011,0,0,1-.243-1.345l-.041-6.653a11.141,11.141,0,0,1,1.351-1.369,1.4,1.4,0,0,1,.826-.314,1.223,1.223,0,0,1,.579.12,3.611,3.611,0,0,1,.549.368,3.149,3.149,0,0,0,.5.368,1.048,1.048,0,0,0,.531.12,1.085,1.085,0,0,0,.8-.3.977.977,0,0,0,.292-.729A1.143,1.143,0,0,0,358.251,72.078Z" fill="#fff"/>
              </g>
              <g id="Group_26" data-name="Group 26">
                <path id="Path_28" data-name="Path 28" d="M373.526,83.434a4.423,4.423,0,0,1-3.576-2.114l-4.1-5.39,1.71-1.372a10.844,10.844,0,0,1,2.849-1.734,13.558,13.558,0,0,1,2.669-.589l0-.371-6.907.042,0,.372a5.657,5.657,0,0,1,1.267.208.658.658,0,0,1,.426.586c0,.391-.317.847-.961,1.366l-3.948,3.3-.1-16.027a.257.257,0,0,0-.111-.185.326.326,0,0,0-.2-.092l-.156.032-4.02,1.943.159.37h.031a3.822,3.822,0,0,1,1.372-.441.764.764,0,0,1,.753.49,4.3,4.3,0,0,1,.229,1.608l.1,15.934a2.73,2.73,0,0,1-.365,1.721,2.074,2.074,0,0,1-1.529.427l0,.371,5.814-.035,0-.372a2.117,2.117,0,0,1-1.564-.408,2.726,2.726,0,0,1-.387-1.716l-.019-3.093,1.369-1.092,3.843,5.021a1.13,1.13,0,0,1,.286.647q0,.621-1.5.629l0,.372,6.565-.04Z" fill="#fff"/>
              </g>
            </g>
          </g>
        </g>
      </g>
    </g>
  </g>
</svg>
