<?xml version="1.0" encoding="UTF-8"?>
<svg xmlns="http://www.w3.org/2000/svg" width="317.232" height="255.223" viewBox="0 0 317.232 255.223">
  <g id="Group_518" data-name="Group 518" transform="translate(-1.855)">
    <g id="Group_423" data-name="Group 423" transform="translate(243.613 50.216)">
      <path id="Path_104" data-name="Path 104" d="M5361.091,611.84a17.214,17.214,0,0,1,2.889-4.7,9.8,9.8,0,0,1,8.022-4.59c.2.722-.5,1.374-1.183,1.69s-1.489.569-1.817,1.244a.678.678,0,0,0-.078.4c.068.431.641.524,1.078.512l12.855-.363c3.936-.111,8.011-.2,11.642,1.325-.382,1-1.676,1.217-2.743,1.249-5.8.177-11.7-.553-17.363.726a9,9,0,0,0-3,1.138,3.984,3.984,0,0,0-1.818,2.55" transform="translate(-5361.091 -602.554)" fill="#a37a52"></path>
    </g>
    <g id="Group_424" data-name="Group 424" transform="translate(129.294 14.264)">
      <path id="Path_105" data-name="Path 105" d="M4922.055,460.1c.543,6.445-3.244,12.38-6.995,17.648s-7.794,10.918-7.874,17.385a41.853,41.853,0,0,0,17.944-2.034,20.448,20.448,0,0,1-15.83,24.993c-6.854,1.372-13.894-.83-20.376-3.447a26.47,26.47,0,0,1-8.21-4.631,20.85,20.85,0,0,1-5.487-9.641,37.173,37.173,0,0,1,3.413-28.68c3.138-5.446,7.608-9.982,12.027-14.452,2.582-2.612,5.258-5.289,8.646-6.706,4.852-2.03,10.375-1.178,15.54-.177a10.741,10.741,0,0,1,5.209,2.025c2.42,2.133,2.46,5.826,2.313,9.048" transform="translate(-4873.771 -449.299)" fill="#a37a52"></path>
    </g>
    <g id="Group_425" data-name="Group 425" transform="translate(154.823 201.473)">
      <path id="Path_106" data-name="Path 106" d="M5012.009,1256.546a37.654,37.654,0,0,0-31.259,13.109c-3.646,4.346-6.349,10.093-5.023,15.61,1.093,4.546,4.786,8.123,8.99,10.167s8.912,2.769,13.549,3.358a292.365,292.365,0,0,0,130.956-13.378c2.9-.992,5.908-2.112,7.962-4.385,3.966-4.389,2.8-11.714-1.053-16.2s-9.639-6.764-15.265-8.6a183.629,183.629,0,0,0-110.39-.793" transform="translate(-4975.384 -1247.335)" fill="#e0e0e0"></path>
    </g>
    <g id="Group_426" data-name="Group 426" transform="translate(232.218 194.762)">
      <path id="Path_107" data-name="Path 107" d="M5313.414,1219.455a27.826,27.826,0,0,0-.9,6.082c0,2.1.518,4.336,1.65,5.523a4.519,4.519,0,0,0,3.477,1.145l29.573.717a16.482,16.482,0,0,0-6.114-9.461,20.8,20.8,0,0,0-8.521-3.295,73.582,73.582,0,0,0-20.043-1.227" transform="translate(-5312.516 -1218.728)" fill="#fff"></path>
    </g>
    <g id="Group_427" data-name="Group 427" transform="translate(62.15 145.361)">
      <path id="Path_108" data-name="Path 108" d="M4613.55,1008.819l-25.681.29c-2.1.024-4.431.135-5.939,1.6-1.708,1.662-1.678,4.368-1.529,6.748l2.306,36.857c.146,2.326.4,4.889,2.1,6.485,1.738,1.634,4.386,1.689,6.771,1.648l17.58-.3c2.452-.042,5.15-.18,6.933-1.864,1.712-1.618,2.055-4.174,2.275-6.519q1.675-17.826,1.623-35.759c-.007-2.446-.073-5.02-1.312-7.128s-4.075-3.487-6.213-2.3" transform="translate(-4580.336 -1008.139)" fill="#e0e0e0"></path>
    </g>
    <g id="Group_428" data-name="Group 428" transform="translate(94.627 154.051)">
      <path id="Path_109" data-name="Path 109" d="M4754.712,1045.361a50.888,50.888,0,0,0-28.123,5.8,17.9,17.9,0,0,0-5.966,4.616,7.908,7.908,0,0,0-1.519,7.141c1.226,3.611,5.366,5.19,9.04,6.212a208.556,208.556,0,0,0,71.395,7.022c8.173-.616,16.492-1.77,23.808-5.468,2.44-1.233,4.9-2.935,5.767-5.528,1.117-3.341-.909-7.086-3.823-9.066s-6.517-2.6-10-3.136q-32.891-5.117-66.168-7.11" transform="translate(-4718.779 -1045.183)" fill="#e0e0e0"></path>
    </g>
    <g id="Group_429" data-name="Group 429" transform="translate(108.738 47.789)">
      <path id="Path_110" data-name="Path 110" d="M4868.835,689.577l-38.484-6.833s0,0,0,0l-.629-.11-43.576-7.736,2.475-13.948,1.116-6.28,2.524-14.219a0,0,0,0,1,0,0l5.715-32.191,1.819-10.238.045-.266v0l.984-5.541,6.83,1.4.365.076s0,0,0,0l3.272.671,6.529,1.341,1.761.362c-.348.207-.7.408-1.038.617a6.144,6.144,0,0,0-1.849,1.58c-1.006,1.4-.965,3.217-1.251,4.936a28.263,28.263,0,0,1,3.042,4.391c2.555,5.054,10.043,9.944,15.169,12.351a11.752,11.752,0,0,0,1.721.647c.358.1.719.188,1.084.255,4.884.922,10.261-1.171,14.031-4.594a27.065,27.065,0,0,0,3.685-4.155,38.624,38.624,0,0,0,2.135-3.276c-.222-.185-.435-.38-.639-.582a13.372,13.372,0,0,1-3.147-5.407l6.289,1.292,2.853.587,3.818.784s-.45.747-1.134,2.064c-.437.843-.972,1.922-1.539,3.188a57.018,57.018,0,0,0-4.6,15.387c-.226,1.687-8.391,12.712-8.376,14.436.033,4.108,3.232,24.282,5.315,28.039C4863.831,684.245,4868.835,689.577,4868.835,689.577Z" transform="translate(-4786.144 -592.208)" fill="#fc5549"></path>
    </g>
    <g id="Group_430" data-name="Group 430" transform="translate(114.93 91.614)">
      <path id="Path_111" data-name="Path 111" d="M4851.644,821.5c31.987-10.741,71.711-42.185,84.7-42.474,23.218-.515,45.188,49.024,45.188,49.024l-13.356,7.5-32.138-26.114s-36.626,48.546-76.512,49.431-46.989-33.684-46.989-33.684S4826.462,829.96,4851.644,821.5Z" transform="translate(-4812.54 -779.027)" fill="#353187"></path>
    </g>
    <g id="Group_431" data-name="Group 431" transform="translate(165.891 108.604)">
      <path id="Path_112" data-name="Path 112" d="M5029.777,866.7c2.29-2.031,3.9-8.719,5.439-11.37a7.231,7.231,0,0,1,1.283-1.619,8.1,8.1,0,0,1,7.5-2.025l.313.526a10.544,10.544,0,0,1-3.05,2.4,3.632,3.632,0,0,0-1.871,3.052c0,.047.012.1.02.145l.039-.064.533-.859a4.712,4.712,0,0,0,3.5-1.885l.207-.195c3.211,3.411,7.273,4.154,5.39,12.9l-.264-.057q-.623.44-1.265.847a55.308,55.308,0,0,1-11.99,4.882" transform="translate(-5029.777 -851.449)" fill="#a37a52"></path>
    </g>
    <g id="Group_435" data-name="Group 435" transform="translate(170.246 98.196)">
      <g id="Group_432" data-name="Group 432">
        <path id="Path_113" data-name="Path 113" d="M5051.458,813.769a29.7,29.7,0,0,0,13.648-4.448c.423-.265.883-.615.909-1.113a1.09,1.09,0,0,0-.75-1,3.03,3.03,0,0,0-1.318-.1A37.428,37.428,0,0,0,5050,810.963c-.708.356-1.482.829-1.638,1.607a1.36,1.36,0,0,0,2.2,1.314Z" transform="translate(-5048.338 -807.083)" fill="#f4d8b8"></path>
      </g>
      <g id="Group_433" data-name="Group 433" transform="translate(0.661 0.58)">
        <path id="Path_114" data-name="Path 114" d="M5073.869,836.371a5.675,5.675,0,0,1-2.419,2.933,8.478,8.478,0,0,1-3.244,1.441,4.872,4.872,0,0,1-3.448-.571l-.1.555a13.921,13.921,0,0,0-2.58-4.2c.465-.2.923-.418,1.379-.645l.252.1c3.191-8.361-.711-9.713-3.364-13.573l-.234.161a4.712,4.712,0,0,1-3.745,1.33l-.657.768-.046-.089a3.634,3.634,0,0,1,2.313-2.732,10.521,10.521,0,0,0,3.378-1.9l-.229-.567a8.1,8.1,0,0,0-7.717.861l-2.255-4.342,16.933-6.2h0l.4-.146q1.59,7.161,3.181,14.32,1,4.518,2.008,9.034A7.156,7.156,0,0,1,5073.869,836.371Z" transform="translate(-5051.157 -809.554)" fill="#f4d8b8"></path>
      </g>
      <g id="Group_434" data-name="Group 434" transform="translate(0.273 6.478)">
        <path id="Path_115" data-name="Path 115" d="M5049.5,834.7l1.559,5.072" transform="translate(-5049.502 -834.699)" fill="#f4d8b8"></path>
      </g>
    </g>
    <g id="Group_436" data-name="Group 436" transform="translate(193.153 121.451)">
      <path id="Path_116" data-name="Path 116" d="M5145.99,936.995l31.9-.708,7.283,40.1,19.875-.578s8.012-61.889-1.494-67.31-23.218.515-23.218.515" transform="translate(-5145.99 -906.216)" fill="#353187"></path>
    </g>
    <g id="Group_438" data-name="Group 438" transform="translate(183.825 119.322)">
      <g id="Group_437" data-name="Group 437">
        <path id="Path_117" data-name="Path 117" d="M5106.241,944.975c-.072-.221.1-.472.479-.777a12.722,12.722,0,0,1,1.722-1.112c.774-.391,1.705-.879,2.757-1.47.27-.146.551-.3.85-.448s.593-.28.9-.432c.614-.29,1.257-.6,1.922-.945.328-.159.684-.357,1.053-.53s.737-.336,1.107-.5a11.273,11.273,0,0,0,2.128-1.175c.69-.486,1.4-1.057,2.174-1.587.733-.491,1.439-1.1,2.2-1.692s1.509-1.192,2.27-1.818c.381-.316.734-.634,1.146-.957s.834-.6,1.25-.885.818-.57,1.189-.881l1.149-1,1.149-1.027a9.691,9.691,0,0,0,1.059-1.071,22.365,22.365,0,0,1,1.87-2.161l2.021-1.931c.325-.311.691-.68,1.053-.977l1.069-.881a10.766,10.766,0,0,0,.963-.893l.943-.974c1.258-1.285,2.458-2.565,3.619-3.788,1.185-1.2,2.315-2.355,3.4-3.419l1.577-1.552,1.493-1.41c.469-.446.952-.888,1.349-1.278s.768-.81,1.13-1.2.718-.76,1.07-1.089c.314-.294.6-.577.853-.839.511-.524.926-.949,1.219-1.222.154-.146.308-.286.47-.426s.338-.279.507-.4c.338-.25.67-.468.986-.671s.614-.391.888-.579.512-.37.786-.59c.527-.417,1.029-.8,1.5-1.15s.893-.664,1.348-.933a12.3,12.3,0,0,1,2.138-1c.524-.179.854-.228.972-.092s0,.446-.346.876a20.029,20.029,0,0,1-1.6,1.615c-.323.312-.7.734-1.1,1.142s-.855.858-1.336,1.322a9.752,9.752,0,0,1-.813.724c-.3.236-.6.456-.909.672s-.605.429-.891.65c-.142.111-.28.223-.412.34l-.42.386c-.271.253-.665.645-1.2,1.17-.267.262-.569.555-.92.868-.313.277-.643.6-1,.969s-.747.777-1.194,1.2-.908.812-1.4,1.252l-1.518,1.346-1.6,1.484c-1.113,1.016-2.267,2.124-3.483,3.265-1.191,1.17-2.422,2.4-3.717,3.628l-.972.933a12.347,12.347,0,0,1-1.062.939c-.752.589-1.476,1.085-2.118,1.7l-2.1,1.858a9.065,9.065,0,0,0-.974.943l-.933,1.058q-.265.3-.559.59l-.3.284-.3.255-1.183,1.013-1.181,1a14.714,14.714,0,0,1-1.266.964c-.423.294-.84.57-1.22.865s-.753.639-1.128.962c-.75.653-1.5,1.29-2.25,1.9l-1.09.927c-.364.313-.734.622-1.124.909-.747.537-1.4,1.124-2.136,1.686a12.242,12.242,0,0,1-2.3,1.416l-1.091.538c-.349.173-.651.359-1.006.545q-1.026.552-1.975,1.024-.471.235-.922.447c-.285.141-.561.288-.835.429-.544.287-1.072.559-1.582.788-.253.112-.514.215-.747.3l-.643.238a9.183,9.183,0,0,1-2.005.581C5106.614,945.279,5106.313,945.193,5106.241,944.975Z" transform="translate(-5106.225 -897.138)" fill="#1d1d1d"></path>
      </g>
    </g>
    <g id="Group_440" data-name="Group 440" transform="translate(231.795 128.269)">
      <g id="Group_439" data-name="Group 439" transform="translate(0)">
        <path id="Path_118" data-name="Path 118" d="M5310.711,937.415a.672.672,0,0,1,.3-.565,2.66,2.66,0,0,1,.889-.419l1.4-.277a3.936,3.936,0,0,1,.432-.055l.451-.007.97.01c.165.006.349,0,.534.02s.367.057.55.092a2.731,2.731,0,0,0,1.1.045,9.763,9.763,0,0,1,1.206-.2c.4-.018.812-.121,1.247-.179l1.309-.151c.224-.023.437-.067.672-.075a4.368,4.368,0,0,1,.7.066,3.38,3.38,0,0,0,.67.05l.688-.046.7-.043a2.307,2.307,0,0,0,.688-.107,3.8,3.8,0,0,1,1.343-.3,11.677,11.677,0,0,1,1.348.131,3.049,3.049,0,0,1,.692.161c.214.091.425.182.63.29a3.953,3.953,0,0,0,.606.25c.213.083.433.154.639.257a8.583,8.583,0,0,1,2.244,1.5,8.963,8.963,0,0,1,1.5,1.979l.269.51.233.5.183.5.154.488c.091.316.164.641.232.915s.168.538.243.8a3.843,3.843,0,0,1,.155.749c.023.214.047.408.079.589a7.061,7.061,0,0,1,.094.846,2.746,2.746,0,0,1,0,.31,2.315,2.315,0,0,1-.051.314,4.148,4.148,0,0,1-.194.562c-.073.173-.147.334-.2.486a2.774,2.774,0,0,0-.13.451c-.075.308-.157.594-.248.855a3.871,3.871,0,0,1-.3.717,3.913,3.913,0,0,1-.829.933.909.909,0,0,1-.629.281c-.175-.023-.309-.172-.361-.425a4.248,4.248,0,0,1,.011-1.017c.011-.2-.017-.452-.017-.706s0-.533.006-.823a2,2,0,0,1,.051-.47c.036-.162.094-.322.146-.48a4.112,4.112,0,0,0,.141-.47,1.646,1.646,0,0,0,.033-.23v-.246c0-.16-.029-.4-.065-.715-.023-.158-.039-.337-.049-.536a2.723,2.723,0,0,0-.094-.581c-.05-.211-.126-.437-.181-.686s-.083-.493-.139-.758-.125-.531-.209-.808q-.148-.408-.341-.827a6.908,6.908,0,0,0-1.047-1.605,6.562,6.562,0,0,0-1.583-1.211,4.91,4.91,0,0,0-.455-.224,2.6,2.6,0,0,1-.484-.244,2.728,2.728,0,0,0-.979-.484,10.942,10.942,0,0,0-1.142-.222,1.506,1.506,0,0,0-.576,0c-.2.044-.4.1-.6.147a3.316,3.316,0,0,1-.347.069l-.177.014h-.168l-.675.006-.682.027a3.213,3.213,0,0,1-.711-.036,5.13,5.13,0,0,0-.671-.065,4.579,4.579,0,0,0-.658.087l-1.3.223c-.418.077-.835.218-1.262.282a7.89,7.89,0,0,0-1.186.293,2.859,2.859,0,0,1-1.189.073c-.187-.02-.366-.042-.538-.05s-.329.009-.505.014l-.981.035-.452.011c-.14.007-.278.024-.413.042-.271.037-.531.078-.776.088a2.768,2.768,0,0,1-.356-.008l-.3-.021a2.238,2.238,0,0,1-.927-.179A.6.6,0,0,1,5310.711,937.415Z" transform="translate(-5310.711 -935.277)" fill="#1d1d1d"></path>
      </g>
    </g>
    <g id="Group_441" data-name="Group 441" transform="translate(173.507 56.589)">
      <path id="Path_119" data-name="Path 119" d="M5141.927,642.173c-1.363,5.849-2.748,11.758-5.411,17.139a39.019,39.019,0,0,1-46.206,20.051,27.965,27.965,0,0,1-12.441-7.277c-3.4-3.616-8.5-6.658-10.087-11.408a5.564,5.564,0,0,1,1.761-5.842c.191-.149-.14-.464-.208-.7l-3.83-13.339a38.731,38.731,0,0,0,2.135-3.276c-.222-.185-.435-.38-.639-.582a13.39,13.39,0,0,1-3.147-5.407c-.128-.391-.243-.788-.345-1.184-.044-.175-.087-.352-.127-.53-.2-.868-1.047,4.176-1.14,3.292,6.513-.422,13.391-.736,18.835,2.867,3.755,2.484,14.343,17.3,19.41,20.206,4.811,2.756,11.168,1.3,15.515-2.135s7.079-8.489,9.449-13.5a12.072,12.072,0,0,1,3.067-4.573c1.994-1.565,4.733-1.661,7.269-1.689,2.011-.021,4.3.071,5.615,1.593C5142.837,637.537,5142.424,640.041,5141.927,642.173Z" transform="translate(-5062.242 -629.721)" fill="#fc5549"></path>
    </g>
    <g id="Group_442" data-name="Group 442" transform="translate(92.773 47.86)">
      <path id="Path_120" data-name="Path 120" d="M4790.257,667.505l6.166,6.974,1.231,2.143a89.044,89.044,0,0,1-62.7,4.431,25.007,25.007,0,0,1-8.86-4.224c-4.311-3.562-6.2-9.271-7.134-14.784a62.763,62.763,0,0,1,40.5-69.532l-3.135,25.455c-6.193,2.4-9.881,8.692-12.663,14.724-4.162,9.027-6.458,37.607-9.6,28.177-.545-1.638,2.624-6.87,2.624-6.87,13.792,13.32,35.45,18.605,54.114,14.211Z" transform="translate(-4718.088 -592.512)" fill="#fc5549"></path>
    </g>
    <g id="Group_444" data-name="Group 444" transform="translate(231.074 194.434)">
      <g id="Group_443" data-name="Group 443">
        <path id="Path_121" data-name="Path 121" d="M5308.867,1218.7c-.006-.232.26-.421.763-.6a7.5,7.5,0,0,1,.936-.265,13.035,13.035,0,0,1,1.3-.228c.973-.1,2.157-.185,3.523-.254.347-.011.71-.023,1.09-.014l1.131.053,1.183.087,1.238.112c.411.047.87.088,1.326.157s.9.165,1.347.258a21.279,21.279,0,0,0,2.7.453c.944.1,1.969.164,3.013.373.979.184,2.022.316,3.1.564a21.2,21.2,0,0,1,3.181,1.007,12.506,12.506,0,0,1,1.563.741,9.786,9.786,0,0,1,1.431,1.05c.442.379.846.778,1.255,1.155a15.517,15.517,0,0,1,1.214,1.255,16.593,16.593,0,0,1,1.092,1.393c.171.25.329.492.494.725s.324.465.493.7c.3.424.619.873.9,1.356l.208.368a5.355,5.355,0,0,1,.236.517,9.038,9.038,0,0,1,.408,1.113c.108.361.22.719.321,1.092l.157.556.04.139c.01.044.048.11-.024.091l-.274.005-1.107.021c-.365.012-.767,0-1.152-.005l-1.1-.011c-.275,0-.553-.011-.815-.032l-1.555-.12a13.7,13.7,0,0,0-1.477-.036l-1.525.034c-2.021.037-3.993.109-5.888.169-1.9.024-3.712.059-5.426.054l-2.489,0-2.309-.04c-.728-.01-1.464-.034-2.09-.033s-1.254.04-1.852.065-1.167.041-1.724.027a12.632,12.632,0,0,1-1.59-.11,5.37,5.37,0,0,1-1.508-.442,4.519,4.519,0,0,1-1.06-.681,4.686,4.686,0,0,1-.716-.769,4.743,4.743,0,0,1-.5-.854,6.505,6.505,0,0,1-.473-1.573,12.774,12.774,0,0,1-.152-1.348c-.027-.413-.047-.786-.067-1.219a12.357,12.357,0,0,1,.155-2.287,11.2,11.2,0,0,1,.44-1.87,10.9,10.9,0,0,1,1.195-2.374c.343-.507.6-.766.769-.72s.242.406.19,1.017-.238,1.46-.368,2.457c-.063.48-.08,1.082-.094,1.686a14.907,14.907,0,0,0,.088,1.932l.141,1.09c.046.377.1.748.176,1.1a4.588,4.588,0,0,0,.318,1l.115.218.131.2.159.186c.058.055.113.116.174.168a2.506,2.506,0,0,0,1.288.554,10.91,10.91,0,0,0,1.266.105c.462.022.986.021,1.563.01s1.212-.031,1.906-.021,1.369.056,2.108.085l2.279.1,2.458.066c1.693.054,3.492.071,5.369.109,1.877,0,3.833-.015,5.841.015l1.516.016a15.7,15.7,0,0,1,1.593.075l1.544.17c.251.026.5.049.747.067l.372.021c.073,0,.127.005.191.005l.807.044.209.011c.014,0,.042.008.046,0l-.011-.048-.022-.1c-.03-.128-.058-.258-.1-.388a2.214,2.214,0,0,0-.125-.385c-.026-.062-.054-.121-.084-.18s-.054-.1-.113-.2c-.238-.44-.494-.867-.77-1.278-.154-.235-.309-.473-.471-.711-.078-.122-.149-.247-.233-.364l-.216-.344c-.145-.23-.306-.447-.458-.671s-.321-.434-.5-.639a14.349,14.349,0,0,0-1.086-1.182c-.416-.381-.8-.772-1.2-1.119a8.805,8.805,0,0,0-1.237-.942,9.418,9.418,0,0,0-1.4-.667,19.633,19.633,0,0,0-2.969-.889c-.985-.21-2.009-.31-3.05-.463a27.234,27.234,0,0,0-2.926-.265,21.837,21.837,0,0,1-2.883-.366c-.448-.077-.879-.15-1.292-.209s-.8-.074-1.229-.114l-1.225-.089-1.168-.065-1.1-.049c-.343-.011-.681,0-1.012,0-.663.013-1.3.046-1.9.051-.3.005-.6,0-.867-.009l-.738-.01c-.473-.005-.9,0-1.281-.019a8.19,8.19,0,0,1-.972-.088C5309.161,1219.1,5308.873,1218.927,5308.867,1218.7Z" transform="translate(-5307.638 -1217.329)" fill="#1d1d1d"></path>
      </g>
    </g>
    <g id="Group_446" data-name="Group 446" transform="translate(272.244 139.047)">
      <g id="Group_445" data-name="Group 445" transform="translate(0)">
        <path id="Path_122" data-name="Path 122" d="M5483.292,997.1c-.125-.2.006-.5.339-.923a13.342,13.342,0,0,1,1.622-1.635l2.738-2.237c.272-.218.558-.441.864-.665l.925-.65,2-1.376c.343-.23.717-.5,1.108-.744s.784-.474,1.178-.7a17.58,17.58,0,0,0,2.287-1.525,30.032,30.032,0,0,1,2.442-1.824c.847-.539,1.714-1.144,2.691-1.671a20.015,20.015,0,0,1,3.09-1.3c.275-.08.541-.176.817-.25s.557-.143.855-.206c.3-.047.595-.083.888-.113s.589-.027.879-.04c.58-.005,1.146,0,1.7,0l.436-.005.437.016c.292.009.583.02.875.052.587.041,1.174.124,1.758.223.3.062.583.108.863.161q.209.043.421.078l.51.088a21.553,21.553,0,0,1,2.091.522l.567.179.58.208.576.222.14.057.07.029c.023.01.058.018.024.034l-.215.174-.827.673-.415.339-.21.17-.23.174-1.8,1.352c-.405.308-.865.673-1.308.962l-1.309.858a13.706,13.706,0,0,0-1.2.876l-1.192.961c-1.585,1.266-3.109,2.532-4.579,3.74-1.492,1.18-2.916,2.321-4.282,3.367l-1.976,1.527-1.861,1.383c-.585.438-1.185.87-1.682,1.254s-.973.8-1.433,1.185-.909.751-1.348,1.073c-.392.288-.745.566-1.069.825-.645.517-1.168.935-1.533,1.2l-.288.211-.332.234c-.409.29-.806.559-1.187.809-.682.448-1.3.829-1.843,1.152l-.113-.252-.916-2.079c-.135-.305-.266-.588-.4-.87l-.094-.2-.057-.127-.119-.262c-.312-.691-.6-1.345-.85-1.956s-.485-1.157-.662-1.724a15.158,15.158,0,0,1-.565-2.576c-.073-.609-.053-.973.108-1.051s.45.146.813.651a25.485,25.485,0,0,1,1.3,2.209c.249.442.6.974.923,1.537s.689,1.181,1.058,1.839a2.445,2.445,0,0,1,.292.589c.041.132.083.294.137.486l.042-.01a2.074,2.074,0,0,0,.44-.161,2.278,2.278,0,0,0,.253-.147l.522-.378c.336-.248.831-.634,1.5-1.15.334-.257.713-.546,1.148-.852.386-.271.8-.589,1.252-.953s.944-.767,1.5-1.184,1.123-.794,1.729-1.224l1.875-1.315,2-1.454c1.379-.994,2.821-2.083,4.336-3.2,1.493-1.15,3.04-2.359,4.654-3.566l1.215-.916a15.682,15.682,0,0,1,1.312-.916c.914-.57,1.779-1.045,2.577-1.648l.5-.35.335-.23.7-.481c.066-.043.126-.085.183-.125.007-.009.041-.022.026-.029l-.047-.02-.1-.039a3.506,3.506,0,0,0-.437-.132,6.373,6.373,0,0,0-.854-.12c-.067-.005-.13-.013-.19-.015a1.229,1.229,0,0,1-.266-.038c-.143-.03-.283-.069-.427-.093l-.4-.087-.4-.086-.405-.064c-.27-.044-.539-.09-.812-.112-.541-.063-1.084-.088-1.625-.1-.288.01-.57,0-.849,0s-.554,0-.827,0l-.8.031c-.263.019-.521.054-.774.09a5.729,5.729,0,0,0-.753.174c-.258.065-.512.155-.76.236a17.462,17.462,0,0,0-2.833,1.242c-.876.482-1.694,1.093-2.545,1.679a24.888,24.888,0,0,0-2.29,1.828,18.564,18.564,0,0,1-2.4,1.746c-.4.249-.776.486-1.131.724s-.672.476-1.032.732l-2,1.43-.925.654c-.285.207-.561.417-.829.626-.538.417-1.052.824-1.554,1.184-.249.179-.5.352-.736.5l-.634.414a12.94,12.94,0,0,1-2,1.165C5483.753,997.281,5483.416,997.291,5483.292,997.1Z" transform="translate(-5483.14 -981.224)" fill="#1d1d1d"></path>
      </g>
    </g>
    <g id="Group_447" data-name="Group 447" transform="translate(148.491 71.281)">
      <path id="Path_123" data-name="Path 123" d="M4975.132,696.21c.1.094.213.188.323.279a38.774,38.774,0,0,1-2.135,3.276,28.707,28.707,0,0,1-2.007,2.473q-.794.877-1.678,1.682a19.464,19.464,0,0,1-2.765,2.089,16.09,16.09,0,0,1-11.266,2.505c.09.347.194.688.307,1.023v0a15.727,15.727,0,0,0,21.112,9.393,15.374,15.374,0,0,0,1.675-.844c.292-.171.58-.348.856-.535a15.877,15.877,0,0,0,4.586-4.741v0a15.668,15.668,0,0,0,2.345-7.265c.022-.346.034-.693.033-1.043,0-.117,0-.235,0-.354a15.671,15.671,0,0,0-1.756-6.883,15.5,15.5,0,0,0-1.266-2.039,15.817,15.817,0,0,0-2.684-2.848l-.036-.03Z" transform="translate(-4955.604 -692.349)" fill="#fc5549"></path>
    </g>
    <g id="Group_449" data-name="Group 449" transform="translate(243.317 49.76)">
      <g id="Group_448" data-name="Group 448">
        <path id="Path_124" data-name="Path 124" d="M5369.024,611.607c-.105-.025-.179-.258-.088-.675a3.262,3.262,0,0,1,.972-1.614,6.944,6.944,0,0,1,2.643-1.414c.283-.089.582-.172.9-.241l.943-.186c.322-.054.654-.1.994-.152s.69-.082,1.046-.125.737-.066,1.126-.091.773-.017,1.157-.023.768.008,1.15,0,.767-.009,1.169-.03c.8-.029,1.666-.081,2.564-.067.845.009,1.729-.015,2.65-.02s1.836,0,2.775-.026l1.422-.043a9.247,9.247,0,0,0,1.422-.076,1.937,1.937,0,0,0,1.068-.451,1.272,1.272,0,0,0,.236-.312l.04-.089.02-.045c0-.014-.025-.014-.037-.022l-.187-.071c-.131-.049-.26-.1-.391-.146l-.578-.183-.333-.091c-.117-.031-.234-.066-.352-.093-.244-.055-.475-.11-.7-.151s-.46-.069-.695-.093c-.844-.081-1.764-.066-2.676-.119-.88-.043-1.762-.05-2.641-.037-.427.005-.919.025-1.363.019l-1.316-.008c-.434,0-.82.008-1.251.035l-1.289.072c-1.708.091-3.375.2-4.974.3-1.6.08-3.138.163-4.589.223l-.538.023-.14.006c-.079,0-.159.006-.238.006a2.9,2.9,0,0,1-.462-.038,1.715,1.715,0,0,1-.771-.317,1.154,1.154,0,0,1-.424-.651l-.019-.09a1.711,1.711,0,0,1,.557-1.381,2.545,2.545,0,0,1,.321-.277l.173-.12.067-.041a.658.658,0,0,1,.072-.039c.091-.042.2-.087.233-.152a.063.063,0,0,0-.021-.082.094.094,0,0,0-.054-.022l-.085.033-.1.04a.731.731,0,0,1-.083.034.125.125,0,0,0-.061.033l-.364.134c-.137.05-.26.105-.377.151-.23.1-.42.193-.574.268s-.314.165-.469.256-.313.184-.462.28a9.06,9.06,0,0,0-.824.592,9.267,9.267,0,0,0-.7.625c-.214.209-.4.417-.612.667q-.62.723-1.159,1.354c-.363.421-.664.8-.976,1.169-.608.716-1.045,1.262-1.342,1.661s-.465.622-.552.585-.061-.341.125-.856a9.924,9.924,0,0,1,1.062-1.973c.24-.368.536-.828.863-1.278s.685-.932,1.08-1.445a9.8,9.8,0,0,1,.69-.813,9.182,9.182,0,0,1,1.723-1.417c.156-.094.307-.194.462-.279.163-.1.333-.186.5-.277a10.636,10.636,0,0,1,1.548-.634,15.357,15.357,0,0,1,1.75-.434l1.29-.248a1.894,1.894,0,0,0,.238.114,1.439,1.439,0,0,0,.2.074l.049.017.025.009c0,.014.008.035.013.053.018.074.033.148.044.222a1.42,1.42,0,0,1-.137.854,2.312,2.312,0,0,1-.57.715,4.434,4.434,0,0,1-.984.623c-.217.1-.461.2-.681.314-.056.026-.113.058-.162.087l-.077.045a.922.922,0,0,0-.089.062.587.587,0,0,0-.24.368v.011a.229.229,0,0,0,.117.192.591.591,0,0,0,.226.068,1.085,1.085,0,0,0,.117.007l.143,0,.514-.014,4.546-.139c1.587-.068,3.241-.145,4.941-.2l1.281-.047c.415-.018.911-.028,1.352-.02.907.015,1.738.057,2.586.044.889,0,1.787.022,2.687.077.465.037.861.058,1.3.078s.9.042,1.354.089c.257.021.519.057.782.1.133.025.266.043.4.073l.371.089c.248.054.49.128.736.2l.23.065c.1.029.189.063.281.1l.554.2c.357.123.712.264,1.065.4l0,.155v.077c-.013.035-.035.077-.051.116-.073.159-.145.3-.223.443a2.014,2.014,0,0,1-.7.734,3.274,3.274,0,0,1-1.063.422l-.132.025-.1.017-.2.025c-.13.014-.257.026-.383.032-.25.015-.5.019-.725.02-.444,0-.939.041-1.409.052-.944.037-1.871.051-2.782.066-.89.015-1.787.058-2.689.07-.859,0-1.666.061-2.512.113-.419.027-.847.053-1.267.061s-.83.023-1.212.027-.757.017-1.109.041-.677.057-1.039.1-.7.083-1.029.132l-.972.158-.909.181c-.281.06-.551.133-.81.21a9.387,9.387,0,0,0-1.4.536c-.2.1-.4.2-.571.307a4.487,4.487,0,0,0-.44.3,4.606,4.606,0,0,0-1.027,1.192C5369.247,611.452,5369.143,611.635,5369.024,611.607Z" transform="translate(-5359.831 -600.611)" fill="#1d1d1d"></path>
      </g>
    </g>
    <g id="Group_451" data-name="Group 451" transform="translate(92.283 47.852)">
      <g id="Group_450" data-name="Group 450" transform="translate(0 0)">
        <path id="Path_125" data-name="Path 125" d="M4788.341,667.519c.1-.057.581.353,1.389,1.155s1.958,2,3.444,3.608l1.714,1.884.669,1.127.362.61.189.321.1.162.013.02.006.01-.01,0-.042.019-.083.038L4793.6,677.6l-1.069.48c-.367.155-.75.3-1.137.447l-2.326.881c-.393.157-.805.28-1.217.416l-1.255.407c-.847.269-1.707.576-2.609.8l-2.83.769c-.977.23-1.964.422-2.939.63-.494.1-.978.217-1.468.3l-1.465.249-1.478.266-.751.141-.77.115-3.206.488c-1.109.119-2.249.238-3.414.345-.545.062-1.1.079-1.662.113l-1.7.1c-1.147.091-2.323.088-3.525.106l-1.787.015-1.8-.062-1.818-.063c-.3,0-.608-.034-.913-.058l-.916-.073c-1.23-.109-2.412-.154-3.7-.352l-1.9-.269-.937-.141-.923-.182-1.821-.355c-.6-.117-1.2-.217-1.786-.362l-1.842-.414-.923-.208c-.309-.067-.617-.137-.921-.226-1.227-.339-2.462-.667-3.694-1.017-1.256-.383-2.383-.75-3.555-1.181a23.416,23.416,0,0,1-3.184-1.429,16.3,16.3,0,0,1-1.543-.976,15.418,15.418,0,0,1-1.422-1.184,18.772,18.772,0,0,1-4.012-5.8,25.87,25.87,0,0,1-1.269-3.386c-.329-1.116-.586-2.243-.81-3.37-.112-.558-.2-1.088-.3-1.616s-.165-1.058-.251-1.616c-.2-1.115-.3-2.237-.43-3.35-.073-.556-.1-1.113-.138-1.668s-.076-1.109-.113-1.66q-.021-.829-.042-1.652c-.011-.549-.038-1.1-.019-1.64.025-1.089.016-2.171.1-3.24q.049-.8.1-1.6c.046-.529.107-1.054.159-1.577a63.539,63.539,0,0,1,2.416-11.8c.285-.91.6-1.8.886-2.672.316-.867.652-1.711.97-2.544.342-.823.707-1.62,1.049-2.407.164-.4.369-.77.55-1.149l.552-1.118.271-.546.293-.532.578-1.049c.195-.342.368-.688.567-1.007l.564-.929c.707-1.223,1.484-2.364,2.21-3.481.382-.544.769-1.071,1.144-1.589.189-.258.373-.515.561-.763l.579-.717.979-1.215c.314-.388.64-.741.939-1.091l.859-.988c.27-.314.549-.586.8-.853l1.282-1.339,1.158-1.095c.412-.378.8-.756,1.208-1.086l1.177-.97.563-.46.565-.423,1.083-.8c.349-.261.688-.514,1.03-.741l2.008-1.394,2.049-1.317c.673-.4,1.332-.776,1.961-1.142l.471-.27c.156-.086.315-.165.468-.246l.907-.469c.595-.305,1.164-.607,1.761-.856l1.606-.7c.5-.213.979-.37,1.413-.533l1.2-.428c.364-.132.708-.217,1.01-.31a5.566,5.566,0,0,1,1.891-.415,6.583,6.583,0,0,1-1.878.946c-.622.247-1.359.61-2.22.987s-1.8.862-2.831,1.367l-.381.191-.393.219-.833.471c-.573.327-1.187.659-1.783,1.042s-1.246.758-1.889,1.18l-1.976,1.334c-.632.461-1.4,1.029-2.166,1.566l-2.2,1.67q-1.05.871-2.073,1.718c-.328.294-.647.594-.962.889l-1.02.965-1.186,1.232-.768.808-.85.971c-.3.346-.629.709-.965,1.1l-1.039,1.277c-.67.781-1.313,1.718-2.063,2.734-.365.514-.717,1.075-1.1,1.65-.189.29-.391.582-.584.889l-.577.951c-.4.662-.809,1.291-1.166,1.959l-.56,1c-.188.338-.387.677-.561,1.043-.354.713-.729,1.436-1.089,2.185q-.508,1.139-1.04,2.323-.475,1.208-.964,2.461-.437,1.272-.889,2.586a62.287,62.287,0,0,0-2.488,11.458,64.929,64.929,0,0,0-.227,12.736q.086.818.172,1.64l.086.824c.029.275.079.548.117.822.078.529.164,1.108.25,1.7.038.3.094.588.143.88s.1.579.152.857c.209,1.146.446,2.233.74,3.283a22.874,22.874,0,0,0,1.06,3.057,22.023,22.023,0,0,0,1.547,3.01,16.735,16.735,0,0,0,2.076,2.667,14.32,14.32,0,0,0,1.208,1.127,13.6,13.6,0,0,0,1.309.93,19.82,19.82,0,0,0,3.01,1.516c.593.246,1.207.473,1.836.692.314.114.633.219.952.324.3.1.6.2.9.3.6.2,1.217.362,1.829.532l1.831.51.914.253.923.21,1.842.418.97.22c.32.073.643.123.96.186l1.877.363c1.226.266,2.433.416,3.6.581.565.074,1.161.16,1.77.217l1.83.137,1.806.135c.6.032,1.2.039,1.8.06,1.193.03,2.376.092,3.55.051l1.726-.033c.576-.012,1.153-.019,1.731-.069l3.479-.23c1.106-.109,2.18-.229,3.251-.352.537-.051,1.067-.15,1.6-.234l1.619-.26.812-.129.41-.063.407-.079,1.629-.31,1.6-.288c.525-.088,1.029-.219,1.521-.318.99-.218,1.944-.411,2.848-.63l2.651-.738.671-.187.333-.093.326-.107,1.286-.423,1.256-.413c.411-.142.826-.256,1.22-.417l2.3-.875,1.062-.41,1.023-.453,1.8-.807c.021-.015.04-.014.023-.032l-.013-.018c-.065-.114-.131-.228-.2-.341l-.516-.9-.487-.563-1.088-1.255c-1.394-1.6-2.529-2.926-3.262-3.854S4788.237,667.575,4788.341,667.519Z" transform="translate(-4715.999 -592.476)" fill="#1d1d1d"></path>
      </g>
    </g>
    <g id="Group_453" data-name="Group 453" transform="translate(107.948 71.997)">
      <g id="Group_452" data-name="Group 452" transform="translate(0 0)">
        <path id="Path_126" data-name="Path 126" d="M4805.528,695.712c.077.219-.018.446-.237.7a8.59,8.59,0,0,1-1.019.91,15.59,15.59,0,0,0-1.588,1.23c-.145.134-.3.268-.467.4s-.345.238-.508.384l-.521.419-.271.218-.263.24c-.175.154-.361.337-.569.5s-.4.333-.611.495a4.453,4.453,0,0,0-1.086,1.139c-.161.221-.29.478-.441.727s-.311.5-.478.755c-.16.236-.306.49-.452.751s-.274.542-.424.815-.3.541-.441.82-.294.556-.431.843-.258.572-.422.867-.353.564-.54.832a5.574,5.574,0,0,0-.5.82c-.138.3-.28.592-.413.894l-.4.914a4.105,4.105,0,0,0-.307.931,9.951,9.951,0,0,1-.419,1.823q-.338.84-.657,1.683a7.73,7.73,0,0,1-.357.855q-.206.4-.412.8a4.508,4.508,0,0,0-.32.785q-.128.422-.254.839c-.348,1.108-.63,2.207-.905,3.259-.308,1.041-.576,2.047-.86,2.984l-.391,1.367c-.142.435-.271.856-.394,1.259s-.253.8-.344,1.142-.142.7-.2,1.042-.131.659-.215.957c-.076.265-.132.515-.182.746-.1.46-.177.832-.242,1.081-.035.131-.072.259-.116.39a3.8,3.8,0,0,1-.157.387c-.116.246-.25.47-.375.682s-.244.411-.345.6a4.736,4.736,0,0,0-.259.582c-.163.4-.319.781-.474,1.129a8.1,8.1,0,0,1-.48.959,6.327,6.327,0,0,1-1.04,1.245c-.294.268-.52.4-.693.356s-.273-.265-.269-.631a8.269,8.269,0,0,1,.247-1.464c.062-.287.1-.656.17-1.026s.145-.779.247-1.2a4.214,4.214,0,0,1,.2-.683c.092-.232.2-.456.311-.677s.223-.437.316-.654c.045-.109.088-.217.123-.326l.1-.358c.062-.233.145-.587.26-1.061.058-.237.126-.5.222-.8.084-.26.162-.551.235-.879s.147-.69.258-1.078.262-.751.4-1.157.291-.815.455-1.245l.458-1.351c.334-.925.651-1.92,1.021-2.945.162-.521.337-1.049.513-1.587s.365-1.082.57-1.628l.3-.827a5.23,5.23,0,0,1,.382-.845,13.345,13.345,0,0,0,.854-1.557c.25-.551.5-1.106.763-1.657a3.863,3.863,0,0,0,.313-.826c.068-.3.145-.6.219-.9.043-.17.092-.34.151-.509l.1-.251.108-.229q.219-.459.437-.917c.141-.306.289-.61.438-.912a5.839,5.839,0,0,1,.523-.9c.19-.28.378-.549.531-.825s.277-.585.415-.88.272-.593.41-.886.272-.585.423-.868.269-.57.4-.861.285-.575.447-.854c.158-.262.3-.525.445-.792s.274-.544.431-.815a5.411,5.411,0,0,1,1.163-1.412l.613-.558c.2-.174.366-.354.563-.544l.283-.275c.1-.089.2-.171.292-.255l.568-.488c.18-.161.377-.295.561-.433s.342-.273.506-.411a10.871,10.871,0,0,1,1-.727c.081-.053.165-.1.247-.151s.17-.082.25-.117l.439-.2a3.751,3.751,0,0,1,1.4-.43C4805.227,695.387,4805.452,695.495,4805.528,695.712Z" transform="translate(-4782.775 -695.403)" fill="#1d1d1d"></path>
      </g>
    </g>
    <g id="Group_455" data-name="Group 455" transform="translate(110.667 109.589)">
      <g id="Group_454" data-name="Group 454">
        <path id="Path_127" data-name="Path 127" d="M4794.481,855.768c.168-.161.427-.152.787-.022a7.3,7.3,0,0,1,1.383.754c.54.381,1.175.862,1.947,1.358.192.131.39.272.589.428s.389.309.592.469c.405.317.818.671,1.275,1,.219.169.472.345.708.546l.694.61a6.683,6.683,0,0,0,1.5,1.07c.572.29,1.2.569,1.83.911.292.163.6.312.92.46l.988.43c.65.313,1.328.6,2.014.891.342.154.684.267,1.045.428s.689.363,1.02.555a9.322,9.322,0,0,0,1.007.494c.355.139.713.279,1.079.4l1.1.381a5.064,5.064,0,0,0,1.109.27c.341.045.7.081,1.064.116a5.623,5.623,0,0,1,1.08.19c.674.2,1.361.34,2.036.51.326.086.712.144,1.046.257l.99.322a6.126,6.126,0,0,0,.964.2c.339.044.673.1,1.008.133,1.338.164,2.649.255,3.907.3,1.253.09,2.457.125,3.588.163.566.008,1.114.037,1.642.027l1.523.03c.48-.006.965,0,1.377-.014s.824-.088,1.215-.134.77-.081,1.124-.108c.318-.019.61-.052.879-.085.537-.061.971-.13,1.264-.159.155-.016.309-.027.467-.034s.323,0,.479.007c.312.019.606.045.885.08s.542.067.791.087a4.5,4.5,0,0,0,.733,0c.5-.023.973-.031,1.413-.035a10.531,10.531,0,0,1,1.234.011c.391.045.735.1,1.034.163s.557.136.769.2c.425.138.674.277.71.453s-.152.368-.548.536a9.325,9.325,0,0,1-1.7.45c-.34.072-.757.2-1.192.305s-.919.187-1.429.278a4.373,4.373,0,0,1-.839.09c-.294.006-.588-.008-.878-.022l-.853-.038c-.14,0-.277,0-.412,0l-.437.035c-.284.026-.709.089-1.282.138-.287.027-.611.054-.974.065-.322.014-.677.028-1.072.066s-.828.09-1.3.1-.939-.025-1.447-.038-1.021-.061-1.562-.093c-.542-.012-1.1-.063-1.682-.1s-1.174-.093-1.786-.142-1.238-.115-1.876-.189c-1.282-.109-2.616-.261-3.975-.495-.342-.05-.682-.117-1.024-.182a7.385,7.385,0,0,1-1.063-.261,18.39,18.39,0,0,0-1.981-.677c-.684-.208-1.375-.4-2.059-.625a5.386,5.386,0,0,0-1.008-.26c-.36-.047-.716-.109-1.074-.171-.2-.037-.408-.078-.613-.131l-.306-.088-.282-.1-1.118-.424c-.374-.135-.744-.276-1.108-.428a9.241,9.241,0,0,1-1.105-.52c-.345-.192-.674-.389-1.008-.546s-.708-.265-1.057-.414c-.708-.28-1.415-.542-2.091-.843-.335-.14-.678-.267-1.023-.4s-.681-.282-1.015-.442c-.629-.315-1.262-.551-1.91-.84a7.375,7.375,0,0,1-1.756-1.091c-.257-.2-.494-.4-.728-.581s-.465-.331-.714-.508-.479-.34-.7-.514l-.664-.5c-.211-.166-.425-.318-.618-.483s-.385-.294-.575-.433c-.381-.278-.761-.532-1.081-.819-.161-.139-.318-.286-.452-.422l-.375-.369a5.661,5.661,0,0,1-1.026-1.238C4794.325,856.194,4794.316,855.927,4794.481,855.768Z" transform="translate(-4794.364 -855.648)" fill="#1d1d1d"></path>
      </g>
    </g>
    <g id="Group_457" data-name="Group 457" transform="translate(165.701 108.147)">
      <g id="Group_456" data-name="Group 456" transform="translate(0 0)">
        <path id="Path_128" data-name="Path 128" d="M5035.043,872.29c-.021-.115.17-.256.534-.436s.9-.417,1.615-.7c.706-.261,1.555-.6,2.523-1l.776-.314.81-.312c.552-.213,1.13-.442,1.729-.7l.942-.4.974-.4a10.542,10.542,0,0,0,1.87-.977c.427-.292.858-.626,1.325-.955l.029-.021.037.007.266.051-.107.069c.023-.137.049-.281.074-.427.068-.377.133-.764.187-1.161l.1-1.223c.022-.41.013-.825.022-1.242,0-.208-.033-.415-.048-.624a6.088,6.088,0,0,0-.068-.624,8.481,8.481,0,0,0-.3-1.228,4.489,4.489,0,0,0-.2-.618c-.084-.2-.151-.4-.246-.593l-.307-.556c-.111-.178-.244-.341-.369-.506a5.647,5.647,0,0,0-.432-.486c-.075-.079-.148-.16-.224-.237l-.24-.225c-.317-.306-.662-.589-1-.879s-.673-.555-1.031-.811c-.242-.175-.489-.365-.745-.555s-.5-.412-.743-.631l.534.016-.1.109-.051.052a.265.265,0,0,0-.027.031c0,.01-.046.064-.078.107s-.067.088-.1.128a5.167,5.167,0,0,1-.974.895,5.388,5.388,0,0,1-.564.343c-.1.053-.189.1-.3.148-.137.066-.28.11-.42.162s-.279.08-.424.124c-.073.018-.144.029-.216.044l-.11.021a.255.255,0,0,0-.057.015l-.141.136-.565.545-.142.136-.035.034-.018.017s0,0,0,0l-.014-.027-.053-.11c-.034-.073-.068-.146-.1-.218l-.088-.151-.043-.073-.011-.018s0,.005,0,.007l-.007.023-.029.092-.06.187-.064.189-.032.1-.017.047-.009.022s0,.011,0,.007l0-.023a4.226,4.226,0,0,1,.01-1.264,3.37,3.37,0,0,1,.536-1.282,4.861,4.861,0,0,1,.52-.647l.152-.15.076-.075.039-.037.029-.026c.077-.068.153-.14.233-.2.322-.268.647-.491.964-.707a11.039,11.039,0,0,0,1.69-1.292c.053-.055.122-.121.158-.166.012-.015.033-.041.047-.063a.773.773,0,0,0,.043-.068l.01-.017s0-.008.006-.007l.01.021.047.085.023.043-.009-.012-.022-.031c-.016-.019-.025-.046-.056-.043l-.064-.008a2.123,2.123,0,0,0-.228-.038,7.235,7.235,0,0,0-1.862-.022,7.97,7.97,0,0,0-3.178,1.114,6.78,6.78,0,0,0-1.168.893,5.712,5.712,0,0,0-.818.991q-.169.258-.312.517l-.271.524c-.151.32-.287.617-.4.908s-.213.548-.3.782-.162.431-.223.592l-.2.509c-.072.178-.146.35-.221.516-.149.33-.3.638-.447.927l-.411.82c-.125.257-.238.5-.362.779-.246.536-.485,1.037-.731,1.492-.123.23-.238.446-.362.651s-.234.4-.375.592a6.393,6.393,0,0,1-1.383,1.469c-.383.255-.61.337-.663.269-.028-.035-.012-.11.042-.216a1.665,1.665,0,0,1,.112-.183,2.783,2.783,0,0,0,.162-.239,15.68,15.68,0,0,0,.967-1.6c.168-.341.359-.775.546-1.23.1-.228.2-.467.294-.718s.2-.506.306-.775.223-.568.354-.87.271-.594.407-.886.271-.58.4-.867q.094-.215.179-.428c.06-.153.12-.308.181-.464.116-.3.28-.759.53-1.37.121-.306.276-.65.465-1.028l.283-.531c.105-.187.223-.38.355-.579a7.069,7.069,0,0,1,1.006-1.2,8.186,8.186,0,0,1,1.382-1.037,8.447,8.447,0,0,1,1.687-.786,8.731,8.731,0,0,1,1.952-.448,8.343,8.343,0,0,1,2.138.041c.091.014.184.025.275.043l.35.078.2.045c.065.016.143.014.165.091l.21.352.056.1.075.134.149.269a.426.426,0,0,1,.033.066l-.03.042-.059.083-.12.167c-.083.108-.164.218-.251.325-.042.052-.093.106-.143.159s-.071.077-.11.114a10.524,10.524,0,0,1-1.852,1.4c-.312.2-.627.408-.905.619-.068.055-.138.108-.2.165s-.153.13-.165.145a1.81,1.81,0,0,0-.155.163,1.255,1.255,0,0,0-.219.357,2.362,2.362,0,0,0-.107.479c-.013.083,0,.028.013.011l.033-.07c.023-.049.049-.106.083-.165a1.2,1.2,0,0,0,.518-.062c.049-.013.1-.03.143-.047s.074-.029.176-.072a4.4,4.4,0,0,0,1.352-.953,3.59,3.59,0,0,0,.243-.283l.079-.1c.03-.032.076-.073.093-.091l.137-.136.268-.267.315.284.271.246c.291.263.6.506.916.75l.545.426.275.225.256.22c.171.144.344.293.515.446s.345.3.51.462.34.312.5.486l.476.518c.157.2.307.4.451.594s.246.424.362.631l.086.156.067.164.132.323.13.317c.037.106.064.215.1.321.065.2.133.42.2.64.048.223.1.45.144.67.022.111.05.222.067.333l.034.333q.033.334.066.665c.021.44.008.874.013,1.307-.026.419-.051.84-.078,1.262a6.261,6.261,0,0,1-.065.63q-.048.314-.093.629c-.033.2-.062.393-.089.583l-.1.678-.761-.127-.267-.045.578-.117-1.2.911a11.566,11.566,0,0,1-2.08,1.17l-.968.422-.9.4c-.614.27-1.206.513-1.771.739l-.822.32-.751.3c-.49.2-.966.385-1.42.545-.225.078-.454.153-.659.216l-.565.17a11.975,11.975,0,0,1-1.749.43C5035.3,872.435,5035.063,872.4,5035.043,872.29Z" transform="translate(-5028.965 -849.503)" fill="#1d1d1d"></path>
      </g>
    </g>
    <g id="Group_466" data-name="Group 466" transform="translate(169.882 98.04)">
      <g id="Group_459" data-name="Group 459" transform="translate(0.167)">
        <g id="Group_458" data-name="Group 458">
          <path id="Path_129" data-name="Path 129" d="M5049.626,813.289c.07.086.062.227-.1.381a1.084,1.084,0,0,1-.958.226,1.468,1.468,0,0,1-1.057-1.224,1.293,1.293,0,0,1,.038-.548,1.739,1.739,0,0,1,.253-.5,2.9,2.9,0,0,1,.876-.743,4.855,4.855,0,0,1,.545-.279c.191-.08.386-.149.58-.219a8.255,8.255,0,0,0,1.14-.479c.385-.187.786-.423,1.234-.595l1.3-.561c.456-.174.92-.351,1.4-.514.24-.085.468-.169.726-.242a7.352,7.352,0,0,1,.768-.164c.254-.043.5-.094.741-.151l.753-.189.767-.176a5.7,5.7,0,0,0,.745-.2,8.264,8.264,0,0,1,1.407-.409c.474-.079.95-.144,1.424-.206.229-.03.495-.06.735-.069s.473-.016.727-.008a5.481,5.481,0,0,1,.756.062,1.788,1.788,0,0,1,.8.345,1.577,1.577,0,0,1,.415.48,1.308,1.308,0,0,1,.166.65,1.437,1.437,0,0,1-.185.662,2.145,2.145,0,0,1-.362.463,5.407,5.407,0,0,1-.752.589c-.72.493-1.442.92-2.136,1.3-.352.181-.687.366-1.022.525s-.659.306-.975.434-.625.259-.895.365-.529.239-.785.344a7.648,7.648,0,0,1-.742.285c-.215.067-.411.136-.591.2-.36.126-.657.217-.858.275-.105.031-.211.057-.321.079s-.225.042-.334.057a5.952,5.952,0,0,1-.619.052c-.195.008-.378.013-.549.024s-.327.025-.507.045c-.347.036-.671.065-.975.073a6.484,6.484,0,0,1-.844,0,4.992,4.992,0,0,1-1.179-.243c-.266-.09-.41-.173-.414-.262s.141-.176.409-.239a4.25,4.25,0,0,1,.488-.079l.633-.086c.223-.027.5-.1.778-.151s.591-.12.917-.185c.156-.031.346-.067.534-.092s.375-.04.562-.054.368-.038.546-.064c.089-.014.177-.029.263-.048s.184-.044.277-.07c.178-.051.444-.13.8-.246.177-.06.377-.126.6-.191a6.5,6.5,0,0,0,.656-.234l.783-.32c.3-.109.571-.208.876-.329s.614-.246.939-.383.646-.307.987-.467c.671-.34,1.373-.726,2.078-1.169a4.675,4.675,0,0,0,.664-.475,1.055,1.055,0,0,0,.2-.241.384.384,0,0,0,.058-.192.437.437,0,0,0-.161-.308.78.78,0,0,0-.163-.115.871.871,0,0,0-.2-.075,3.81,3.81,0,0,0-.558-.076c-.21-.017-.441-.023-.667-.023a6.117,6.117,0,0,0-.666.027c-.463.044-.93.084-1.4.144a3.628,3.628,0,0,0-.668.121l-.676.2c-.127.039-.258.077-.39.11l-.2.045-.192.034-.757.156c-.251.054-.5.118-.749.175s-.521.119-.773.163-.5.089-.728.153-.466.15-.7.238l-.686.262-.669.273c-.429.188-.85.4-1.279.6a12.255,12.255,0,0,0-1.173.619,8.467,8.467,0,0,1-1.187.561c-.188.077-.376.15-.543.225a3.972,3.972,0,0,0-.444.24,2.1,2.1,0,0,0-.605.507.839.839,0,0,0-.12.22.408.408,0,0,0-.012.186.745.745,0,0,0,.158.334,1.077,1.077,0,0,0,.1.111.359.359,0,0,0,.1.069,1.406,1.406,0,0,0,.48.079A.429.429,0,0,1,5049.626,813.289Z" transform="translate(-5047.498 -806.419)" fill="#1d1d1d"></path>
        </g>
      </g>
      <g id="Group_461" data-name="Group 461" transform="translate(14.35 0.909)">
        <g id="Group_460" data-name="Group 460">
          <path id="Path_130" data-name="Path 130" d="M5107.979,841.324c.068-.1.227-.091.474-.051s.583.115,1.021.172a5.072,5.072,0,0,0,1.534.015c.148-.02.3-.043.463-.07s.317-.05.479-.089a6.728,6.728,0,0,0,1.01-.3c.17-.06.353-.145.54-.22s.373-.151.558-.233a4.243,4.243,0,0,0,1.045-.622,12.579,12.579,0,0,0,.972-.922,4.358,4.358,0,0,0,.771-1.117,3.56,3.56,0,0,0,.38-1.332,6.052,6.052,0,0,0,0-.718c0-.251-.006-.5-.021-.748a4.975,4.975,0,0,0-.087-.729q-.086-.37-.171-.742t-.182-.753a4.784,4.784,0,0,0-.215-.726,10.428,10.428,0,0,1-.483-1.353c-.112-.456-.223-.912-.335-1.365-.053-.22-.12-.472-.158-.7s-.073-.459-.109-.686a5.726,5.726,0,0,0-.143-.644c-.062-.22-.122-.438-.183-.655-.237-.87-.486-1.714-.721-2.527-.218-.816-.432-1.6-.615-2.34q-.141-.555-.271-1.076t-.231-1c-.074-.317-.143-.638-.211-.908s-.155-.538-.231-.793-.147-.5-.2-.739c-.048-.211-.1-.4-.146-.582-.1-.354-.176-.641-.22-.838-.023-.1-.046-.206-.065-.311s-.035-.217-.046-.322c-.022-.209-.032-.409-.041-.6s-.014-.365-.025-.531-.03-.315-.057-.489c-.047-.334-.085-.648-.117-.941s-.061-.555-.062-.82a6.1,6.1,0,0,1,.109-1.178c.055-.272.117-.427.205-.444s.192.113.292.372a10.445,10.445,0,0,1,.294,1.1c.053.219.14.488.213.768s.154.588.233.914a4.912,4.912,0,0,1,.106.535c.027.189.044.377.062.564s.031.371.055.55c.013.089.025.178.043.264s.04.185.061.28c.04.181.11.451.2.814.046.182.1.387.143.619.04.206.1.43.165.679s.146.52.217.822.122.6.188.922.129.652.2,1,.155.7.235,1.071c.158.739.344,1.519.529,2.335.2.812.423,1.656.627,2.528q.078.327.156.657a6.312,6.312,0,0,1,.137.7,13.444,13.444,0,0,0,.2,1.345c.094.456.187.914.281,1.375a4.475,4.475,0,0,0,.169.657l.233.664q.066.189.123.387l.051.2.041.19c.056.253.109.506.164.758s.112.508.167.761a5.613,5.613,0,0,1,.115.814c.019.269.023.534.032.792s.029.532.013.807a4.322,4.322,0,0,1-.389,1.611,5.441,5.441,0,0,1-.847,1.355c-.341.369-.655.723-1.021,1.049a4.925,4.925,0,0,1-1.184.788c-.2.1-.4.186-.588.272s-.36.169-.562.25a7.732,7.732,0,0,1-1.153.376c-.188.045-.373.081-.558.108s-.349.054-.521.073a5.062,5.062,0,0,1-1,.023,3.371,3.371,0,0,1-.454-.068c-.135-.028-.262-.06-.382-.094a2.959,2.959,0,0,1-1.084-.512C5107.979,841.577,5107.914,841.415,5107.979,841.324Z" transform="translate(-5107.956 -810.292)" fill="#1d1d1d"></path>
        </g>
      </g>
      <g id="Group_463" data-name="Group 463" transform="translate(10.982 27.551)">
        <g id="Group_462" data-name="Group 462">
          <path id="Path_131" data-name="Path 131" d="M5093.773,924.052a.642.642,0,0,1,.233-.156.479.479,0,0,1,.239-.027c.065.026.147.055.238.094a.24.24,0,0,1,.063.04l.046.059.088.135a.373.373,0,0,1,.042.08.694.694,0,0,1,.016.106.17.17,0,0,0,.083.166c.055.034.138.052.181.107a1.126,1.126,0,0,0,.179.121l.171.142a.472.472,0,0,1,.087.074.306.306,0,0,1,.03.121.217.217,0,0,0,.034.112l.074.086.078.086a.15.15,0,0,0,.107.062c.091.018.226.014.268.075l.143.16a.192.192,0,0,1,.06.091l.022.11a.132.132,0,0,0,.053.084l.085.068c.105.095.227.177.336.263a2.988,2.988,0,0,1,.262.278l.108.136.081.137a1.4,1.4,0,0,0,.072.125.689.689,0,0,0,.105.09.265.265,0,0,1,.084.091.316.316,0,0,0,.054.077.588.588,0,0,1,.087.108.187.187,0,0,1,.017.046.179.179,0,0,1,0,.056.586.586,0,0,1-.045.121c-.019.04-.038.077-.051.11a.226.226,0,0,0-.017.089.98.98,0,0,1-.025.167.516.516,0,0,1-.062.159,1.487,1.487,0,0,1-.273.291.918.918,0,0,1-.255.161.306.306,0,0,1-.212.018c-.056-.02-.072-.073-.106-.131-.016-.028-.055-.054-.08-.088a.709.709,0,0,1-.08-.11.1.1,0,0,1-.02-.075.488.488,0,0,1,.026-.1.535.535,0,0,0,.027-.1.094.094,0,0,0,0-.041l-.016-.038a.743.743,0,0,0-.069-.1.264.264,0,0,1-.042-.08.185.185,0,0,0-.056-.083.5.5,0,0,1-.083-.093.962.962,0,0,1-.044-.127l-.046-.138c-.022-.045-.046-.091-.07-.139a3.066,3.066,0,0,0-.174-.291c-.078-.092-.169-.181-.241-.284l-.06-.075a.135.135,0,0,1-.038-.094c0-.078.02-.165-.021-.214l-.091-.179a.1.1,0,0,0-.072-.068l-.126-.034a.227.227,0,0,1-.062-.026l-.023-.02-.014-.023-.059-.091-.065-.088a.179.179,0,0,1-.04-.109.319.319,0,0,0-.025-.112c-.015-.03-.056-.045-.086-.065l-.193-.11c-.063-.034-.152-.046-.213-.082a.6.6,0,0,0-.21-.065.153.153,0,0,1-.128-.131.448.448,0,0,0-.027-.086.231.231,0,0,0-.047-.061l-.1-.114-.044-.054a.268.268,0,0,0-.052-.039.473.473,0,0,1-.1-.069.149.149,0,0,1-.03-.047l-.02-.045a.21.21,0,0,1-.02-.178A.6.6,0,0,1,5093.773,924.052Z" transform="translate(-5093.602 -923.864)" fill="#1d1d1d"></path>
        </g>
      </g>
      <g id="Group_465" data-name="Group 465" transform="translate(0 6.768)">
        <g id="Group_464" data-name="Group 464">
          <path id="Path_132" data-name="Path 132" d="M5049.349,840.318a.688.688,0,0,1-.278.033.489.489,0,0,1-.224-.077l-.167-.175a.194.194,0,0,1-.037-.058l-.014-.068c-.007-.048-.013-.1-.019-.15a.3.3,0,0,1,0-.084.692.692,0,0,1,.031-.1c.028-.067.039-.127-.006-.175s-.105-.094-.123-.157a.854.854,0,0,0-.117-.165l-.105-.179a.532.532,0,0,1-.052-.092.277.277,0,0,1,.014-.116.2.2,0,0,0,.008-.11l-.041-.1-.044-.1a.137.137,0,0,0-.081-.084c-.08-.041-.208-.072-.23-.135l-.085-.176a.182.182,0,0,1-.031-.094l.011-.1a.113.113,0,0,0-.027-.087l-.062-.079c-.077-.106-.17-.2-.254-.3a2.961,2.961,0,0,1-.187-.292l-.076-.137-.049-.134c-.017-.042-.027-.086-.046-.12a.614.614,0,0,0-.086-.093.227.227,0,0,1-.064-.091.287.287,0,0,0-.04-.074.472.472,0,0,1-.067-.1.141.141,0,0,1-.009-.043.111.111,0,0,1,.01-.05.519.519,0,0,1,.062-.1c.024-.034.048-.067.064-.1a.216.216,0,0,0,.029-.08.972.972,0,0,1,.048-.151.492.492,0,0,1,.079-.142,1.669,1.669,0,0,1,.3-.255.983.983,0,0,1,.267-.138.309.309,0,0,1,.212,0c.053.023.064.077.092.136.014.028.051.058.073.093a.742.742,0,0,1,.066.116.1.1,0,0,1,.011.076.369.369,0,0,1-.038.093.572.572,0,0,0-.04.091.1.1,0,0,0,0,.04l.01.038a.784.784,0,0,0,.054.1.246.246,0,0,1,.03.082.2.2,0,0,0,.042.088.5.5,0,0,1,.067.1.958.958,0,0,1,.021.129l.019.141c.014.047.027.1.042.146.024.1.07.2.107.313a3.077,3.077,0,0,1,.166.325l.038.086a.131.131,0,0,1,.012.1c-.019.075-.062.151-.037.207s.022.128.033.192a.1.1,0,0,0,.049.083l.109.068a.265.265,0,0,1,.051.043l.015.025.005.026.028.1.032.1a.163.163,0,0,1,0,.114.335.335,0,0,0-.015.112c0,.032.038.059.059.089l.139.168c.048.053.125.1.167.153s.11.093.17.14a.15.15,0,0,1,.065.172.561.561,0,0,0-.011.089.273.273,0,0,0,.02.075c.015.05.028.1.042.145l.016.068a.236.236,0,0,0,.031.057.433.433,0,0,1,.061.106.152.152,0,0,1,.005.055l0,.049a.206.206,0,0,1-.062.167A.607.607,0,0,1,5049.349,840.318Z" transform="translate(-5046.787 -835.268)" fill="#1d1d1d"></path>
        </g>
      </g>
    </g>
    <g id="Group_468" data-name="Group 468" transform="translate(131.86 53.334)">
      <g id="Group_467" data-name="Group 467" transform="translate(0 0)">
        <path id="Path_133" data-name="Path 133" d="M4884.712,615.964c.014-.055.058-.1.16-.114a1.043,1.043,0,0,1,.45.08,5.987,5.987,0,0,1,1.562.96c.613.507,1.322,1.164,2.106,1.951.2.2.4.416.606.645l.6.7q.6.723,1.231,1.542c.2.268.432.564.644.873s.413.618.606.933l1.154,1.908c.185.34.407.671.62,1.021s.485.673.722,1.031q.374.474.788.953c.293.3.585.62.9.933s.621.614.95.91.659.6,1.008.88.683.561,1.061.855.714.61,1.075.892.7.578,1.071.824.76.527,1.155.773.788.507,1.194.746a10.994,10.994,0,0,0,1.2.662l.565.266.593.259c.4.18.8.359,1.193.559.377.2.764.37,1.146.552a10.753,10.753,0,0,0,1.143.473c.188.066.393.13.6.191s.42.1.618.159.393.11.591.157l.6.111a4.12,4.12,0,0,0,.58.072c.19.014.38.027.581.033l.6-.016.3-.008.3-.028.594-.054.584-.093c.389-.051.767-.159,1.145-.238.374-.1.743-.2,1.1-.325s.717-.242,1.058-.394a19.391,19.391,0,0,0,3.755-2.005c.276-.192.541-.391.805-.581l.746-.6.7-.607c.223-.206.439-.411.645-.617.409-.4.81-.828,1.134-1.2s.622-.773.9-1.154.545-.754.8-1.1c.227-.312.424-.606.6-.882.354-.55.627-1.005.817-1.31l.3-.483c.106-.169.213-.329.319-.487.211-.313.417-.6.61-.876s.372-.533.536-.782.3-.482.462-.757l.861-1.481c.273-.462.5-.874.758-1.275a20,20,0,0,1,1.211-1.7c.3-.369.493-.556.573-.513s.028.321-.15.79-.486,1.124-.853,1.9c-.176.371-.378.849-.607,1.327s-.482,1-.764,1.553c-.133.262-.3.579-.485.88s-.369.59-.561.875-.379.565-.563.84q-.135.209-.268.414l-.277.448c-.182.29-.449.73-.829,1.308-.19.288-.411.612-.672.961l-.771,1.038c-.287.381-.606.8-.986,1.23s-.774.831-1.215,1.258c-.218.209-.445.42-.68.63s-.489.414-.741.627-.522.411-.791.621-.562.4-.85.6a20.17,20.17,0,0,1-3.967,2.051,15.866,15.866,0,0,1-4.75,1.116c-.211.012-.423.038-.637.037l-.643,0a9.481,9.481,0,0,1-1.344-.117l-.653-.131c-.213-.04-.418-.115-.624-.169l-.608-.169-.6-.2a11.773,11.773,0,0,1-1.219-.509c-.385-.194-.776-.379-1.157-.581s-.735-.376-1.115-.56-.782-.358-1.165-.554c-.219-.11-.44-.224-.663-.344-.111-.061-.22-.124-.329-.189l-.305-.19-.608-.377-.6-.391c-.4-.256-.793-.523-1.18-.794-.419-.276-.8-.583-1.167-.879s-.712-.6-1.058-.873l-1.067-.845q-1.069-.858-2.034-1.791l-.24-.224-.23-.236-.466-.472c-.16-.154-.3-.324-.452-.495l-.437-.515-.767-1.021c-.233-.349-.475-.725-.7-1.079-.386-.634-.841-1.333-1.231-1.946-.2-.309-.4-.6-.595-.881s-.395-.523-.61-.8c-.422-.538-.838-1.047-1.24-1.521l-.588-.685c-.186-.209-.375-.411-.562-.606-.375-.39-.744-.755-1.088-1.1l-.494-.5c-.146-.146-.287-.285-.421-.412-.546-.516-1.009-.9-1.289-1.131S4884.691,616.082,4884.712,615.964Z" transform="translate(-4884.708 -615.846)" fill="#1d1d1d"></path>
      </g>
    </g>
    <g id="Group_470" data-name="Group 470" transform="translate(146.413 72.021)">
      <g id="Group_469" data-name="Group 469" transform="translate(0 0)">
        <path id="Path_134" data-name="Path 134" d="M4946.872,695.554a.316.316,0,0,1,.326-.006,1.5,1.5,0,0,1,.443.326c.135.179.315.388.5.648.044.067.089.138.131.215l.114.235.206.52a2.221,2.221,0,0,1,.1.292c.024.1.042.209.059.313a2.169,2.169,0,0,0,.16.607,3.785,3.785,0,0,1,.262.646l.226.687c.069.239.116.488.177.74a3.749,3.749,0,0,1,.069.385,2.3,2.3,0,0,1-.005.4,2.212,2.212,0,0,0-.016.387c.011.131.023.263.025.395s.012.267.017.4a1.428,1.428,0,0,0,.041.38,1.14,1.14,0,0,0,.1.22.29.29,0,0,1,.049.171c0,.121,0,.231-.013.333a.542.542,0,0,1-.028.18l-.091.277,0,.017a.9.9,0,0,0-.028.107c0,.006,0,.016,0,.017l.018-.02.042-.051.171-.219a5.611,5.611,0,0,0,.465-.679,2.11,2.11,0,0,0,.112-.186.119.119,0,0,1,.02-.026l.049-.058.1-.115.2-.221.38-.422.369-.377c.116-.119.238-.236.333-.341s.178-.226.261-.336a2.67,2.67,0,0,1,.254-.3c.078-.078.145-.156.206-.228.121-.145.22-.262.292-.335.038-.039.077-.076.119-.112a1.263,1.263,0,0,1,.135-.1,2.533,2.533,0,0,1,.279-.149c.091-.043.177-.083.254-.124a1.53,1.53,0,0,0,.213-.14c.142-.1.277-.194.407-.276a2.587,2.587,0,0,1,.378-.209,2.321,2.321,0,0,1,.665-.148.443.443,0,0,1,.349.071c.061.064.06.171-.012.3a2.668,2.668,0,0,1-.38.444c-.079.084-.163.205-.26.316s-.2.235-.321.36a1.33,1.33,0,0,1-.208.188,2.806,2.806,0,0,1-.25.158c-.084.049-.169.1-.246.151a1.163,1.163,0,0,0-.107.085l-.105.1c-.067.067-.162.174-.291.317-.065.071-.139.15-.228.232a2.475,2.475,0,0,0-.244.262c-.085.1-.175.216-.285.33s-.231.212-.354.326l-.388.349-.4.392-.211.206c-.072.074-.148.149-.224.226l-.687.692c-.466.493-.987,1.053-1.527,1.6l-.413.422c-.067.071-.144.15-.207.206a.138.138,0,0,1-.1.019h0c.158-.566.333-1.072.4-1.449.091-.428.186-.855.244-1.235a2.809,2.809,0,0,0,.058-.537c0-.092-.01-.173-.015-.264s-.013-.182-.024-.274l-.023-.281,0-.1c0-.032,0-.063,0-.1v-.38c0-.126,0-.252-.012-.377a1.88,1.88,0,0,1,.009-.389,1.991,1.991,0,0,0,.01-.368,2.606,2.606,0,0,0-.07-.357c-.069-.235-.13-.467-.2-.691s-.18-.43-.265-.646a3.187,3.187,0,0,0-.293-.584,1.93,1.93,0,0,1-.217-.6c-.022-.1-.043-.192-.069-.279a1.629,1.629,0,0,0-.1-.251c-.075-.167-.145-.328-.212-.479l-.106-.217c-.035-.066-.074-.129-.112-.191-.075-.125-.159-.237-.225-.349a1.448,1.448,0,0,1-.086-.169l-.067-.148a1.32,1.32,0,0,1-.178-.47A.312.312,0,0,1,4946.872,695.554Z" transform="translate(-4946.741 -695.506)" fill="#1d1d1d"></path>
      </g>
    </g>
    <g id="Group_472" data-name="Group 472" transform="translate(154.63 73.703)">
      <g id="Group_471" data-name="Group 471" transform="translate(0 0)">
        <path id="Path_135" data-name="Path 135" d="M4997.46,702.674c.115.009.192.095.252.255a1.708,1.708,0,0,1,.075.71,5.954,5.954,0,0,1-.25,1.072,2.043,2.043,0,0,1-.129.316c-.054.1-.106.208-.17.31-.124.207-.267.415-.419.629-.079.1-.163.217-.258.324s-.2.2-.3.3a4.086,4.086,0,0,0-.584.608,6.861,6.861,0,0,1-.594.721c-.217.216-.421.467-.655.709l-.713.713c-.122.121-.232.243-.363.365s-.279.221-.417.325a3.333,3.333,0,0,0-.393.325c-.123.123-.239.252-.359.378l-.348.4a1.9,1.9,0,0,0-.294.423c-.142.276-.25.6-.422.868l-.061.1a1.786,1.786,0,0,0-.091.157l-.17.327a6.42,6.42,0,0,0-.32.742c-.1.249-.212.588-.319.818l-.2.468c-.019-.029-.038-.035-.058-.079a5.639,5.639,0,0,0-.231-.639c-.084-.2-.165-.4-.263-.6-.193-.412-.37-.864-.612-1.274l-.229-.369-.242-.349c-.147-.237-.31-.457-.469-.67s-.32-.415-.473-.614-.317-.378-.469-.555-.3-.347-.445-.506l-.212-.234c-.073-.073-.145-.142-.211-.2a5.2,5.2,0,0,0-.421-.339,4.329,4.329,0,0,1-.392-.308,2.706,2.706,0,0,0-.308-.238c-.2-.134-.352-.25-.458-.325-.056-.039-.11-.08-.164-.124s-.106-.094-.156-.143c-.1-.1-.179-.2-.264-.294s-.161-.182-.238-.262a1.8,1.8,0,0,0-.246-.215q-.268-.2-.5-.388a5.271,5.271,0,0,1-.43-.349,4.929,4.929,0,0,1-.544-.645c-.117-.173-.171-.3-.135-.381s.159-.109.354-.069a3.45,3.45,0,0,1,.757.293c.145.069.34.13.526.221s.389.2.6.309a2.041,2.041,0,0,1,.324.22c.105.086.206.179.3.272s.186.193.28.28c.048.044.095.086.144.124l.163.121c.108.075.263.2.478.354a3.221,3.221,0,0,1,.346.287c.107.1.233.209.377.322a5.387,5.387,0,0,1,.455.4c.08.079.154.159.229.239l.217.259c.147.178.308.359.454.563s.325.394.476.616a16.726,16.726,0,0,1,.936,1.418l.238.384.222.4.028.051.012.02.022.036a.815.815,0,0,1,.043.075l.075.149a1.412,1.412,0,0,1,.067.143.729.729,0,0,1,.059.21l0,.026c0,.007,0,0,0,0l.01,0a.312.312,0,0,0,.146-.183c.039-.064.075-.132.118-.2l.068-.1.034-.052.05-.069a3.48,3.48,0,0,0,.259-.414c.076-.152.154-.3.24-.45a2.607,2.607,0,0,1,.156-.248l.092-.116.093-.1c.122-.141.25-.271.376-.406l.381-.39a3.366,3.366,0,0,1,.422-.364c.143-.108.284-.211.409-.32s.238-.245.356-.367l.686-.736c.214-.236.4-.5.611-.736a5.525,5.525,0,0,0,.524-.715,3.776,3.776,0,0,1,.55-.656c.092-.1.185-.185.262-.278s.137-.186.21-.287c.132-.2.258-.39.362-.577.058-.091.1-.183.149-.271a1.933,1.933,0,0,0,.11-.258l.088-.253c.025-.083.046-.164.075-.24s.058-.151.081-.219l.067-.187a3.217,3.217,0,0,1,.207-.576A.322.322,0,0,1,4997.46,702.674Z" transform="translate(-4981.77 -702.674)" fill="#1d1d1d"></path>
      </g>
    </g>
    <g id="Group_474" data-name="Group 474" transform="translate(154.034 77.515)">
      <g id="Group_473" data-name="Group 473" transform="translate(0)">
        <path id="Path_136" data-name="Path 136" d="M4979.593,747.12c-.115-.016-.19-.117-.247-.294a3.058,3.058,0,0,1-.113-.759c0-.322.007-.712.012-1.16,0-.114.008-.233.018-.356s.03-.242.044-.367c.035-.25.07-.513.108-.788.021-.134.036-.284.066-.432s.066-.293.1-.439a3.591,3.591,0,0,0,.139-.889c.011-.312-.006-.65.031-1,.033-.325.026-.671.043-1.028s.043-.713.064-1.077c.013-.184.013-.36.034-.553s.065-.376.106-.559a4.686,4.686,0,0,0,.1-.54q.023-.28.048-.561l.045-.569a2.644,2.644,0,0,0,.006-.559,5.766,5.766,0,0,1-.069-1.063q.038-.518.077-1.032a5.234,5.234,0,0,1,.054-.529q.047-.253.093-.5a2.778,2.778,0,0,0,.05-.483q.01-.252.018-.5c.025-.664.033-1.314.045-1.938.029-.622.052-1.22.092-1.781q.027-.422.053-.816c.024-.262.048-.514.07-.756s.049-.479.063-.684.007-.413.008-.61a5.473,5.473,0,0,1,.024-.564c.016-.158.022-.305.028-.441.01-.271.019-.49.034-.637.006-.078.015-.154.027-.233s.03-.16.049-.235c.039-.151.087-.292.134-.424s.093-.256.13-.374a3.184,3.184,0,0,0,.089-.354c.052-.243.106-.471.161-.682a5.046,5.046,0,0,1,.179-.584,3.763,3.763,0,0,1,.446-.788c.132-.174.236-.266.325-.254s.15.129.169.333a5.353,5.353,0,0,1-.039.839c-.012.166-.007.375-.019.587s-.023.447-.043.693a2.627,2.627,0,0,1-.053.4c-.029.137-.067.273-.105.406s-.078.265-.107.4c-.014.065-.027.13-.036.194s-.015.139-.023.209c-.014.136-.026.341-.043.617-.009.138-.021.293-.043.466-.021.153-.032.323-.04.513s-.011.4-.03.626-.059.446-.09.688-.065.485-.1.743-.057.526-.087.8c-.063.553-.112,1.142-.172,1.756-.041.615-.077,1.257-.135,1.914-.014.164-.028.33-.041.5a3.516,3.516,0,0,1-.072.519,7.315,7.315,0,0,0-.2.983q-.066.51-.132,1.025a2.474,2.474,0,0,0-.029.5l.03.521c0,.1.007.2.005.3l-.008.152-.017.142q-.031.285-.063.568t-.059.565a4.3,4.3,0,0,1-.092.576c-.041.185-.081.364-.1.539s-.019.361-.027.542q-.014.547-.028,1.077c-.006.346.02.7.005,1.05-.022.334.01.654.02.989a3.849,3.849,0,0,1-.09.973c-.03.15-.06.294-.082.433s-.031.268-.047.411q-.045.419-.087.8c-.014.126-.029.249-.043.368s-.017.228-.022.339c-.01.223-.017.437-.039.639-.01.1-.025.2-.042.288s-.029.167-.042.245a2.831,2.831,0,0,1-.187.738C4979.81,747.055,4979.706,747.136,4979.593,747.12Z" transform="translate(-4979.233 -718.924)" fill="#1d1d1d"></path>
      </g>
    </g>
    <g id="Group_475" data-name="Group 475" transform="translate(112.949 0)">
      <path id="Path_137" data-name="Path 137" d="M4862.776,395.654a4.406,4.406,0,0,1-1.573,2.914l-.326,1.166c1.04,1.464-.191,3.622-1.862,4.293l-.007,0c-1.669.666-3.545.363-5.34.3s-3.833.266-4.878,1.73c-2.175,3.054,1.67,8.206-1.082,10.752-2.042,1.885-5.4.078-8.085.8-2.542.685-3.919,3.557-3.995,6.189s.79,5.194,1.145,7.8.072,5.566-1.845,7.376a9.167,9.167,0,0,1-1.607,1.15c-.348.207-.7.407-1.038.617a6.137,6.137,0,0,0-1.849,1.58c-1.006,1.4-.965,3.217-1.251,4.936a8.451,8.451,0,0,1-.326,1.357c-.84,2.44-3.129,3.986-5.666,4.744a13.434,13.434,0,0,1-2.511.5,17.01,17.01,0,0,1-8.968-1.535,14.038,14.038,0,0,1-4.817-3.732,11.9,11.9,0,0,1-.787-1.083c-.034-.051-.067-.1-.1-.155-2.443-3.923-2.665-9.275.016-13.037,2.43-3.412,6.93-5.469,7.94-9.536.534-2.152-.067-4.4-.341-6.6s-.1-4.719,1.547-6.2c2.371-2.129,6.405-.975,8.979-2.848,2.824-2.053,2.363-6.362,3.879-9.5,1.824-3.786,6.244-5.416,10.246-6.7q4.441-1.418,8.88-2.839a25.41,25.41,0,0,1,7.639-1.6,8.6,8.6,0,0,1,6.931,3.016A5.733,5.733,0,0,1,4862.776,395.654Z" transform="translate(-4804.095 -388.492)"></path>
    </g>
    <g id="Group_477" data-name="Group 477" transform="translate(163.561 50.681)">
      <g id="Group_476" data-name="Group 476" transform="translate(0 0)">
        <path id="Path_138" data-name="Path 138" d="M5020.594,620.254a.339.339,0,0,1-.283-.132,1.17,1.17,0,0,1-.213-.406c-.039-.178-.091-.4-.14-.645-.011-.064-.02-.13-.025-.2v-.209c0-.142.007-.292.012-.449,0-.076,0-.161.017-.247s.034-.169.054-.253a1.215,1.215,0,0,0,.041-.506,4.177,4.177,0,0,1-.07-.56c0-.184-.042-.378-.056-.58s-.022-.4-.033-.609a2.861,2.861,0,0,1-.013-.313,1.979,1.979,0,0,1,.061-.318,1.494,1.494,0,0,0,.053-.307l.006-.318.007-.322a.882.882,0,0,0-.033-.317,1.848,1.848,0,0,1-.135-.605c.006-.2.012-.392.018-.587a1.494,1.494,0,0,1,.027-.3l.069-.285a.909.909,0,0,0,.028-.274c0-.1,0-.191,0-.286,0-.378-.016-.75-.02-1.108.016-.355.02-.7.052-1.017l.042-.465c.021-.148.042-.291.062-.428s.047-.27.06-.387.008-.237.008-.351a1.664,1.664,0,0,1,.024-.323,2.33,2.33,0,0,0,.033-.251c.013-.155.024-.28.04-.364.008-.044.018-.087.03-.131a.811.811,0,0,1,.051-.129,1.676,1.676,0,0,1,.142-.224c.049-.069.1-.133.135-.2a1.015,1.015,0,0,0,.095-.19c.056-.132.114-.254.173-.366a1.872,1.872,0,0,1,.194-.3,1.853,1.853,0,0,1,.462-.37.458.458,0,0,1,.326-.084.231.231,0,0,1,.157.22,1.77,1.77,0,0,1-.062.465c-.018.091-.019.209-.036.327s-.031.248-.055.383a.816.816,0,0,1-.059.216,2.038,2.038,0,0,1-.112.212,2.142,2.142,0,0,0-.111.207.772.772,0,0,0-.036.1l-.025.115c-.015.075-.028.189-.047.342a2.3,2.3,0,0,1-.047.256,1.443,1.443,0,0,0-.039.285c-.007.106-.009.223-.028.349s-.056.244-.086.377-.059.267-.09.408-.049.291-.074.444c-.057.305-.084.634-.131.974-.025.343-.032.7-.068,1.068q-.01.137-.02.277a1.058,1.058,0,0,1-.048.288,2.326,2.326,0,0,0-.151.544c-.023.19-.048.381-.071.572a.768.768,0,0,0,0,.279l.064.292a1.3,1.3,0,0,1,.026.168v.085l-.006.08-.024.317c-.007.106-.012.211-.016.316a1.408,1.408,0,0,1-.047.323,2.08,2.08,0,0,0-.06.3,1.651,1.651,0,0,0,.019.3q.036.3.07.6c.023.192.083.386.106.581a3.261,3.261,0,0,0,.119.544,1.215,1.215,0,0,1,.016.54c-.012.085-.025.166-.032.244a2.25,2.25,0,0,0,0,.23c0,.155.007.3.01.445,0,.07,0,.139,0,.205s.01.126.019.187c.017.123.036.241.042.352a1.037,1.037,0,0,1,0,.161l-.009.138a.946.946,0,0,1-.086.423A.309.309,0,0,1,5020.594,620.254Z" transform="translate(-5019.842 -604.534)" fill="#1d1d1d"></path>
      </g>
    </g>
    <g id="Group_479" data-name="Group 479" transform="translate(146.277 33.261)">
      <g id="Group_478" data-name="Group 478">
        <path id="Path_139" data-name="Path 139" d="M4946.23,544.055c.1-.065.25,0,.467.16a7.235,7.235,0,0,1,.847.791c.326.37.723.816,1.193,1.314.12.126.241.262.367.4s.239.285.37.428c.252.291.521.594.815.9.14.153.307.31.463.479s.315.334.47.5a5.462,5.462,0,0,0,1.054.888c.4.261.859.494,1.327.743a8.6,8.6,0,0,0,1.449.583,9.252,9.252,0,0,0,1.579.388c.271.05.536.06.824.094.144.011.286.026.427.044s.281.021.42.033a3.587,3.587,0,0,0,.416.008,2.453,2.453,0,0,0,.408-.03c.138-.024.279-.038.417-.07l.413-.1a8.079,8.079,0,0,0,.81-.28,3.323,3.323,0,0,0,.732-.4c.408-.292.786-.681,1.2-1.013a12.833,12.833,0,0,0,1.122-1.056c.172-.18.361-.4.546-.582s.362-.368.539-.555a5.778,5.778,0,0,0,.471-.568c.149-.208.3-.415.445-.621.595-.819,1.125-1.653,1.629-2.454s.977-1.575,1.412-2.31c.213-.37.428-.724.618-1.076s.4-.675.568-1,.356-.637.5-.916.26-.569.381-.84.231-.537.353-.778c.105-.216.2-.417.279-.607.158-.378.286-.684.379-.887.051-.107.1-.213.149-.322s.11-.218.168-.321c.115-.2.237-.391.348-.568s.214-.345.308-.506.17-.31.258-.487c.161-.341.315-.66.465-.954s.271-.563.424-.817a9.231,9.231,0,0,1,.757-1.083c.2-.237.337-.357.421-.326s.1.214.04.524a10.026,10.026,0,0,1-.38,1.245c-.085.243-.163.558-.274.869s-.229.657-.364,1.016a6.192,6.192,0,0,1-.25.573q-.146.292-.307.57c-.108.184-.216.366-.313.548-.048.091-.1.182-.137.273s-.087.2-.136.3c-.089.192-.215.484-.387.876-.084.2-.191.413-.315.653-.112.212-.221.453-.345.72s-.26.56-.422.875-.347.606-.534.933-.393.65-.6.995-.426.7-.652,1.069c-.459.73-.955,1.5-1.495,2.291q-.4.6-.822,1.211c-.292.4-.578.819-.9,1.221l-.471.613a6.364,6.364,0,0,1-.533.62c-.385.395-.768.727-1.12,1.1a14.274,14.274,0,0,1-1.219,1.092c-.228.171-.417.323-.625.5s-.43.353-.661.516a4.834,4.834,0,0,1-.414.261c-.072.042-.149.075-.224.113l-.217.1-.443.169-.455.137c-.149.05-.306.073-.459.11a4.2,4.2,0,0,1-.462.082,4.675,4.675,0,0,1-.958.051l-.454-.029c-.148-.015-.293-.033-.437-.043s-.283-.026-.432-.037-.3-.02-.444-.045a10.009,10.009,0,0,1-1.7-.366,10.478,10.478,0,0,1-1.6-.577c-.489-.238-.956-.462-1.433-.734a6.332,6.332,0,0,1-1.254-.966l-.5-.5c-.157-.162-.313-.3-.474-.463-.319-.316-.608-.63-.878-.93-.136-.149-.261-.3-.385-.442l-.356-.4c-.234-.26-.458-.511-.655-.758-.1-.122-.193-.248-.273-.363l-.224-.314a6.33,6.33,0,0,1-.622-.991C4946.145,544.289,4946.135,544.12,4946.23,544.055Z" transform="translate(-4946.166 -530.279)" fill="#1d1d1d"></path>
      </g>
    </g>
    <g id="Group_481" data-name="Group 481" transform="translate(161.145 34.251)">
      <g id="Group_480" data-name="Group 480" transform="translate(0)">
        <path id="Path_140" data-name="Path 140" d="M5009.57,543.628a.355.355,0,0,1,.221-.213,1.012,1.012,0,0,1,.418-.05l.586.1a1.292,1.292,0,0,1,.175.045l.174.07.368.162c.062.03.133.056.2.1s.129.086.193.132a.928.928,0,0,0,.405.2,2.657,2.657,0,0,1,.424.078l.019.007c.06-.134.1-.306.143-.445.023-.069.049-.139.074-.21l.095-.255c.035-.087.057-.175.1-.263a1.519,1.519,0,0,1,.167-.238,1.179,1.179,0,0,0,.154-.233l.114-.261.112-.266a.728.728,0,0,0,.074-.277,1.68,1.68,0,0,1,.066-.556c.067-.162.132-.324.2-.485a1.33,1.33,0,0,1,.114-.243l.147-.216a.744.744,0,0,0,.106-.221l.077-.244c.106-.321.192-.642.28-.948.1-.3.2-.588.3-.853.051-.133.1-.262.149-.386l.158-.35c.049-.111.1-.22.142-.317s.058-.2.083-.3a1.462,1.462,0,0,1,.091-.272,1.8,1.8,0,0,0,.081-.209c.043-.131.078-.237.109-.3.017-.036.035-.071.055-.105a.67.67,0,0,1,.074-.1,1.556,1.556,0,0,1,.176-.16c.06-.048.117-.092.166-.137a.848.848,0,0,0,.125-.143c.078-.1.156-.194.233-.279a1.526,1.526,0,0,1,.235-.223,1.749,1.749,0,0,1,.508-.222.484.484,0,0,1,.331,0,.222.222,0,0,1,.115.231,1.408,1.408,0,0,1-.138.4c-.032.078-.052.184-.09.285s-.077.214-.125.329a.665.665,0,0,1-.1.179,1.554,1.554,0,0,1-.147.162,2.037,2.037,0,0,0-.147.156.624.624,0,0,0-.056.083l-.048.1c-.029.062-.066.16-.116.291a1.839,1.839,0,0,1-.1.215,1.31,1.31,0,0,0-.1.241c-.031.092-.06.194-.106.3s-.108.2-.167.309l-.185.332-.178.367c-.127.251-.244.526-.375.809-.114.291-.226.6-.361.9-.033.077-.065.154-.1.232a.887.887,0,0,1-.13.231,1.986,1.986,0,0,0-.3.414l-.248.461a.624.624,0,0,0-.087.238l-.036.271a1,1,0,0,1-.033.151l-.027.072-.033.065-.128.259-.123.26a1.088,1.088,0,0,1-.157.252,1.8,1.8,0,0,0-.161.229,1.556,1.556,0,0,0-.092.26l-.079.265-.151.413c-.1.283-.194.621-.324.943l0,.012c-.274-.086-.529-.111-.837-.177a3.138,3.138,0,0,1-.473-.134,1.184,1.184,0,0,1-.152-.062,1.147,1.147,0,0,1-.1-.059c-.068-.04-.132-.079-.2-.11a1.884,1.884,0,0,0-.195-.076l-.382-.143-.174-.068c-.055-.019-.11-.034-.165-.048a2.9,2.9,0,0,1-.313-.085.913.913,0,0,1-.134-.061l-.112-.059a.806.806,0,0,1-.32-.233A.316.316,0,0,1,5009.57,543.628Z" transform="translate(-5009.546 -534.498)" fill="#1d1d1d"></path>
      </g>
    </g>
    <g id="Group_483" data-name="Group 483" transform="translate(163.356 58.544)">
      <g id="Group_482" data-name="Group 482" transform="translate(0)">
        <path id="Path_141" data-name="Path 141" d="M5028.88,639.1a.408.408,0,0,1-.055.285.659.659,0,0,1-.239.224c-.111.044-.245.1-.4.158a.689.689,0,0,1-.126.031l-.135.007c-.092,0-.188,0-.29,0a1.2,1.2,0,0,1-.159-.01,1.419,1.419,0,0,1-.166-.047.511.511,0,0,0-.325-.026,1.745,1.745,0,0,1-.356.085c-.118.005-.241.053-.371.072l-.392.049a1.2,1.2,0,0,1-.2.021.827.827,0,0,1-.205-.053.623.623,0,0,0-.2-.045c-.068,0-.136,0-.2,0h-.208a.393.393,0,0,0-.2.041.908.908,0,0,1-.4.15l-.381,0a.6.6,0,0,1-.194-.02l-.182-.063a.4.4,0,0,0-.177-.022l-.187.012c-.247,0-.492.032-.728.043-.231-.008-.458-.006-.667-.032l-.3-.033-.277-.053c-.087-.018-.175-.043-.251-.053a1.8,1.8,0,0,0-.233,0,.716.716,0,0,1-.213-.02,1.058,1.058,0,0,0-.164-.029,1.714,1.714,0,0,1-.239-.034.5.5,0,0,1-.083-.028.4.4,0,0,1-.08-.048.935.935,0,0,1-.128-.135c-.039-.047-.075-.092-.11-.13a.5.5,0,0,0-.112-.089,2.105,2.105,0,0,1-.216-.164.9.9,0,0,1-.17-.184,1.406,1.406,0,0,1-.163-.442.576.576,0,0,1,.006-.312.231.231,0,0,1,.175-.154.709.709,0,0,1,.294.053c.056.015.134.014.207.029s.157.026.24.046a.329.329,0,0,1,.13.054.9.9,0,0,1,.12.1.969.969,0,0,0,.117.1.329.329,0,0,0,.063.034l.071.022c.046.013.119.023.215.039a.858.858,0,0,1,.159.041.581.581,0,0,0,.179.032,1.619,1.619,0,0,1,.222.021c.08.018.151.049.231.076l.252.08.277.063c.19.049.4.068.611.106.218.017.445.016.675.042.058.006.116.009.174.012a.423.423,0,0,1,.18.04,1,1,0,0,0,.338.138l.361.057a.313.313,0,0,0,.176-.007c.063-.022.125-.047.188-.072a.559.559,0,0,1,.106-.03l.054,0,.05,0,.2.015c.066,0,.133.007.2.008a.538.538,0,0,1,.2.038.912.912,0,0,0,.191.052.674.674,0,0,0,.191-.027l.376-.086c.12-.029.24-.094.361-.122a1.413,1.413,0,0,0,.335-.133.492.492,0,0,1,.335-.032,1.447,1.447,0,0,0,.154.026.874.874,0,0,0,.144-.006c.1,0,.189-.016.277-.022l.128-.008a.935.935,0,0,0,.116-.024,1.794,1.794,0,0,1,.216-.052.442.442,0,0,1,.1,0l.087.006a.442.442,0,0,1,.274.074A.387.387,0,0,1,5028.88,639.1Z" transform="translate(-5018.97 -638.053)" fill="#1d1d1d"></path>
      </g>
    </g>
    <g id="Group_485" data-name="Group 485" transform="translate(200.554 55.938)">
      <g id="Group_484" data-name="Group 484" transform="translate(0 0)">
        <path id="Path_142" data-name="Path 142" d="M5178.371,627.916c-.084-.08-.146-.139-.2-.192s-.1-.1-.135-.135l-.075-.079-.012-.014.006,0,.021.015a.071.071,0,0,1,.017.013l.044.038c.034.031.057.049.036.029a.634.634,0,0,1-.048-.054s-.029-.033-.042-.048l-.03-.037a.176.176,0,0,1-.016-.018s.021.017.037.031a.2.2,0,0,0,.03.025l-.006-.009-.007-.011a.509.509,0,0,0-.036-.038c-.045-.045-.125-.125-.125-.128l-.019-.025s-.011-.012,0,0l.031.026c.01.007.012.009,0,0l-.023-.027c-.028-.032-.069-.076-.105-.115l-.062-.071-.02-.025,0-.008s0,0,0-.009a.465.465,0,0,0-.037-.04.271.271,0,0,1-.022-.026.072.072,0,0,0-.011-.013.193.193,0,0,1-.021-.025s0,0,0,0l.019.016.066.06.066.061.038.034.068.06.086.079c.082.075.186.172.265.247s.151.142.216.2.117.113.146.142a.256.256,0,0,1,.032.037s.021.023.027.031a.2.2,0,0,1,.019.023s0,0-.01-.007l-.047-.042-.049-.043-.012-.01h0l.013.017s.007.008,0,0,0,0,.008.012a.183.183,0,0,1,.022.026s-.01-.006-.015-.009l-.02-.014h0c-.007,0,0,.009,0,.014a.561.561,0,0,1,.038.051l.007.009c0,.005,0,0-.016-.011a.892.892,0,0,0-.073-.063l-.021-.013c-.007-.005,0,0,.015.017l.059.06c.012.011.02.02.025.026l0,.006h-.006l0,0s-.01-.007-.025-.021-.031-.028-.036-.03.013.014.02.023l.057.062.079.083c.008.01.054.056.084.088s.03.033.006.012l-.028-.023c-.007-.006,0,0,0,0h-.01l.009.01c.007.009.019.021.018.021s0,0-.011-.007l-.012-.011c-.014-.011-.034-.028-.082-.073Z" transform="translate(-5177.537 -626.944)" fill="#008fd1"></path>
      </g>
    </g>
    <g id="Group_487" data-name="Group 487" transform="translate(167.925 83.179)">
      <g id="Group_486" data-name="Group 486" transform="translate(0)">
        <path id="Path_143" data-name="Path 143" d="M5038.453,756.712a.354.354,0,0,1,.24-.241,1.958,1.958,0,0,1,.539-.115,7.64,7.64,0,0,0,.792-.072c.077-.01.157-.018.24-.021a1.929,1.929,0,0,0,.251-.005c.17-.009.351-.011.54-.026.091-.008.192-.025.3-.028s.208,0,.313,0a1.673,1.673,0,0,0,.612-.1c.2-.09.4-.2.625-.285a4.622,4.622,0,0,0,.62-.333,6.927,6.927,0,0,0,.623-.384c.1-.07.2-.141.309-.212a2.609,2.609,0,0,1,.341-.179,1.254,1.254,0,0,0,.321-.191l.291-.248c.1-.086.183-.182.275-.273a.935.935,0,0,0,.229-.3,4.591,4.591,0,0,1,.322-.646,5.42,5.42,0,0,0,.369-.568,2.517,2.517,0,0,1,.184-.294l.195-.277a.925.925,0,0,0,.145-.286q.053-.159.1-.316c.071-.207.113-.423.165-.628s.073-.418.1-.62c.069-.4.112-.793.154-1.161.015-.185.034-.363.044-.537s.031-.34.045-.5.021-.319.023-.456a3.664,3.664,0,0,0-.035-.407,2.988,2.988,0,0,1-.022-.376c0-.106-.005-.205-.013-.3-.015-.181-.031-.328-.033-.427a1.549,1.549,0,0,1,0-.158,1.026,1.026,0,0,1,.023-.161,2.8,2.8,0,0,1,.083-.3c.029-.093.06-.181.083-.265a1.407,1.407,0,0,0,.042-.248c.019-.17.042-.33.069-.479a2.641,2.641,0,0,1,.095-.418,2.417,2.417,0,0,1,.328-.593c.1-.136.195-.212.285-.216s.167.068.216.2a2.565,2.565,0,0,1,.082.579c.01.115.045.258.063.406s.037.312.05.484a1.19,1.19,0,0,1,0,.283c-.013.1-.033.2-.055.293s-.043.191-.059.285a1.034,1.034,0,0,0-.014.138v.148c0,.1.011.24.02.435,0,.1.007.207,0,.33a3.255,3.255,0,0,0,0,.364,4.01,4.01,0,0,1,.013.445c-.01.166-.034.319-.051.49s-.052.346-.08.529-.055.375-.084.572c-.069.392-.143.811-.252,1.243-.045.218-.106.439-.162.666s-.14.451-.228.676c-.047.112-.094.224-.141.338a1.218,1.218,0,0,1-.186.337c-.157.211-.322.384-.451.586l-.215.31-.24.293a1.958,1.958,0,0,0-.209.3l-.191.337a1.6,1.6,0,0,1-.123.186l-.077.083-.079.072-.311.287-.324.265a1.468,1.468,0,0,1-.361.233,3.825,3.825,0,0,0-.356.189c-.1.069-.215.153-.322.232s-.214.162-.323.236l-.333.212a6.457,6.457,0,0,1-.667.413c-.227.106-.435.228-.662.352a1.974,1.974,0,0,1-.717.193c-.116.009-.23.011-.335.022s-.2.031-.31.047c-.212.028-.416.038-.609.056a2.324,2.324,0,0,1-.282.01c-.088,0-.174.008-.259.015a2.631,2.631,0,0,1-.488.016,2.136,2.136,0,0,1-.223-.027l-.187-.031a1.448,1.448,0,0,1-.552-.189A.28.28,0,0,1,5038.453,756.712Z" transform="translate(-5038.446 -743.069)" fill="#1d1d1d"></path>
      </g>
    </g>
    <g id="Group_489" data-name="Group 489" transform="translate(236.926 19.234)">
      <g id="Group_488" data-name="Group 488" transform="translate(0)">
        <path id="Path_144" data-name="Path 144" d="M5334.636,474.3a1.592,1.592,0,0,1,.1.569.047.047,0,0,0,.072.024,6.48,6.48,0,0,0,1.716-2.056,10.073,10.073,0,0,0,.923-1.931.485.485,0,0,1,.179-.354.635.635,0,0,1,.45-.045q.567.075.661.264.047.1-.291,3.3t-.476,4.544a104.081,104.081,0,0,0-.607,10.982,14.822,14.822,0,0,0,.479,3.306.193.193,0,0,1-.108.289,2.449,2.449,0,0,1-1.094-.065,1.5,1.5,0,0,1-1.175-.735q-.667-1.354-.63-5.769a54.547,54.547,0,0,1,1.327-10.54,3.383,3.383,0,0,1-1.586,2.051q-1.377.679-1.965-.094a.9.9,0,0,1,.075-.627,10.35,10.35,0,0,1,1.723-3.151C5334.522,474.2,5334.6,474.217,5334.636,474.3Z" transform="translate(-5332.586 -470.481)"></path>
      </g>
    </g>
    <g id="Group_491" data-name="Group 491" transform="translate(253.966 17.664)">
      <g id="Group_490" data-name="Group 490" transform="translate(0)">
        <path id="Path_145" data-name="Path 145" d="M5407.182,470.656a4.931,4.931,0,0,1,1.637-3.024,13.084,13.084,0,0,1,4.131-2.767,11.491,11.491,0,0,1,5.05-1.072,8.693,8.693,0,0,1,2.675.461,5.351,5.351,0,0,1,1.8.993,5.043,5.043,0,0,1,1.035,1.3,4.725,4.725,0,0,1,.593,2.374q-.056,1.985-2.762,4.382a35.635,35.635,0,0,1-7.275,4.755q-.646.353-.65.511,0,.079.884.1a12.779,12.779,0,0,1,2.347.359,10.73,10.73,0,0,1,3.022,1.253,7.981,7.981,0,0,1,2.529,2.3.23.23,0,0,1,.075.161c0,.053-.033.078-.1.076s-.561-.118-1.5-.348-2.216-.47-3.832-.72a37.165,37.165,0,0,0-4.583-.437,22.437,22.437,0,0,0-4.953.492.807.807,0,0,1-.239.02q-1.868-1.326-1.848-2.04.023-.82,2.65-1.009a13.2,13.2,0,0,0,2.562-1.118q2.271-1.126,5-2.728a28.046,28.046,0,0,0,4.966-3.683q2.231-2.08,2.277-3.642.037-1.3-2.634-1.374a10.83,10.83,0,0,0-2.352.25,17.365,17.365,0,0,0-2.6.719,16.731,16.731,0,0,0-2.809,1.415,18.189,18.189,0,0,0-3.046,2.335q-.736.721-.748,1.144c-.005.194.132.3.415.3a10.475,10.475,0,0,0,3.351-.949,10.125,10.125,0,0,0,3.685-2.4q.492-.568.652-.564c.1.074.154.146.153.216q-.049,1.694-2.62,3.579a7.571,7.571,0,0,1-4.4,1.832,2.127,2.127,0,0,1-.839-.276,3.472,3.472,0,0,1-.856-.594,2.91,2.91,0,0,1-.607-1.011A3.953,3.953,0,0,1,5407.182,470.656Z" transform="translate(-5405.223 -463.789)"></path>
      </g>
    </g>
    <g id="Group_493" data-name="Group 493" transform="translate(275.286 27.834)">
      <g id="Group_492" data-name="Group 492" transform="translate(0 0)">
        <path id="Path_146" data-name="Path 146" d="M5503.8,516.194a.414.414,0,0,1-.128-.314.931.931,0,0,0-.084-.37.592.592,0,0,1,.038-.458.953.953,0,0,1,.624-.479,1.606,1.606,0,0,1,1.017-.032,10.261,10.261,0,0,0,2.744-.09,26.99,26.99,0,0,0,4.525-.89q2.287-.652,2.637-1.46.246-.838-3.259-1.869a19.305,19.305,0,0,0-8.715-.108,1.489,1.489,0,0,1-.619-.1,2.651,2.651,0,0,1-1.012-.642q-.541-.5-.44-.944a.818.818,0,0,1,.437-.451,13.9,13.9,0,0,1,4.669-.82,17.581,17.581,0,0,1,5.844.629q3.784,1.113,4.323,3.314a3.512,3.512,0,0,1-.051,1.861q-.785,1.729-5.444,2.841l-.149.039c-.146-.006-.228.025-.248.093l.088.164a3.92,3.92,0,0,1,1.04,1.2,1.944,1.944,0,0,1,.053,1.464,4.52,4.52,0,0,1-1.79,2.426,8.441,8.441,0,0,1-3.038,1.369,20.558,20.558,0,0,1-3.471.5,15.328,15.328,0,0,1-4.778-.219,3.818,3.818,0,0,1-2.055-1.225,1.619,1.619,0,0,1-.414-1.405.455.455,0,0,1,.194-.191q.034.259.694.453a14.2,14.2,0,0,0,4.83.372,21.2,21.2,0,0,0,5.309-.977q2.384-.788,2.843-1.785l.015-.051a.441.441,0,0,0-.2-.458,1.909,1.909,0,0,0-.561-.344l-.3-.09a16.273,16.273,0,0,0-2.994-.563q-1.624-.16-1.839-.224A.9.9,0,0,1,5503.8,516.194Z" transform="translate(-5496.108 -507.144)"></path>
      </g>
    </g>
    <g id="Group_494" data-name="Group 494" transform="translate(98.972 179.561)">
      <path id="Path_147" data-name="Path 147" d="M4751.916,1155.58a140.966,140.966,0,0,0-14.611,32.26,4.987,4.987,0,0,0,4.305-1.907,15.214,15.214,0,0,0,2.3-4.314q5.731-14.149,12.827-27.693" transform="translate(-4737.304 -1153.926)" fill="#e0e0e0"></path>
    </g>
    <g id="Group_495" data-name="Group 495" transform="translate(187.26 181.566)">
      <path id="Path_148" data-name="Path 148" d="M5113.659,1162.474l7.061,28a12.723,12.723,0,0,0,1.692,4.366,3.673,3.673,0,0,0,3.833,1.689q-4.747-16.859-9.018-33.868" transform="translate(-5113.659 -1162.474)" fill="#e0e0e0"></path>
    </g>
    <g id="Group_497" data-name="Group 497" transform="translate(91.711 158.192)">
      <g id="Group_496" data-name="Group 496" transform="translate(0 0)">
        <path id="Path_149" data-name="Path 149" d="M4811.919,1086.481c.052.1.019.237-.1.4a2.263,2.263,0,0,1-.236.276,4.184,4.184,0,0,1-.37.308,9.11,9.11,0,0,1-2.869,1.353,27.909,27.909,0,0,1-4.91.772c-.488.036-1,.064-1.528.077l-1.584.005-3.4-.022c-.579-.013-1.224-.016-1.868-.046s-1.279-.075-1.915-.12a36.349,36.349,0,0,0-3.841-.134c-1.332.032-2.764.1-4.254.059-1.4-.026-2.865.009-4.4-.007-1.512-.015-3.051-.053-4.613-.094-.786-.025-1.539-.016-2.368-.066s-1.626-.145-2.417-.232-1.568-.166-2.334-.219l-2.405-.142c-.809-.044-1.622-.091-2.435-.148-.833-.061-1.585-.1-2.381-.081a44.761,44.761,0,0,1-4.51-.029c-1.479-.1-2.95-.247-4.417-.368-.71-.06-1.531-.121-2.265-.234l-2.168-.322c-.713-.1-1.351-.177-2.065-.238l-2.136-.188-4.19-.388-2.048-.19-2.009-.206c-2.652-.3-5.185-.624-7.582-.962-1.2-.176-2.389-.368-3.539-.625a22.887,22.887,0,0,1-3.3-1.024c-.514-.211-1.026-.443-1.509-.7-.242-.124-.479-.267-.708-.4s-.445-.272-.647-.413a14.1,14.1,0,0,1-2.282-1.852,9.391,9.391,0,0,1-1.666-2.265,10.483,10.483,0,0,1-.82-2.132,8.6,8.6,0,0,1-.277-1.906c0-.282,0-.548.017-.787s.043-.457.069-.65.076-.4.115-.6.1-.391.159-.589a5.7,5.7,0,0,1,.209-.587,5.328,5.328,0,0,1,.245-.547,9.075,9.075,0,0,1,1.183-1.812c.2-.263.431-.492.638-.723.222-.217.427-.435.643-.627s.413-.381.626-.56.43-.362.667-.553a14.569,14.569,0,0,1,2.739-1.649,15.275,15.275,0,0,1,2.509-.932,17.543,17.543,0,0,1,3.618-.526c.829-.03,1.3.021,1.344.195s-.36.454-1.149.794-1.955.719-3.258,1.28a19.527,19.527,0,0,0-2.109,1.108,14.739,14.739,0,0,0-2.213,1.6c-.343.3-.729.694-1.111,1.077a13.8,13.8,0,0,0-1.047,1.212,8.129,8.129,0,0,0-.81,1.331,5.756,5.756,0,0,0-.263.706,7.721,7.721,0,0,0-.178.781,6.568,6.568,0,0,0-.063.964c0,.193.027.4.038.624a7.184,7.184,0,0,0,.133.71,7.716,7.716,0,0,0,.6,1.648,6.952,6.952,0,0,0,1.138,1.613,11.223,11.223,0,0,0,1.856,1.576,13.026,13.026,0,0,0,1.132.718,13.833,13.833,0,0,0,1.255.619,19.7,19.7,0,0,0,2.893.978c1.042.26,2.153.468,3.315.662s2.378.375,3.619.563l1.887.279,1.932.269c1.3.165,2.636.331,3.993.481l4.132.479,2.109.235c.683.072,1.494.174,2.214.293,1.481.24,2.824.531,4.215.651,1.454.157,2.915.331,4.382.478.756.084,1.4.129,2.125.143s1.468.023,2.2.02c.417,0,.842.009,1.271.027l.647.036.609.051c.81.067,1.621.133,2.429.186l2.416.161c.854.049,1.678.132,2.477.217s1.572.173,2.324.225c.726.056,1.541.041,2.313.055,1.552.013,3.081.033,4.584.023,1.472-.01,2.955-.074,4.451-.091,1.424.006,2.769-.078,4.187-.156a37.937,37.937,0,0,1,4.158.023c.649.029,1.273.061,1.868.077s1.147.008,1.764.012l3.429-.022,1.576-.008c.485-.01.96-.031,1.422-.06.923-.058,1.795-.144,2.6-.233.2-.02.4-.042.594-.067s.383-.04.559-.066l.5-.068.466-.079c1.216-.227,2.145-.535,2.8-.7a4.094,4.094,0,0,1,.786-.139C4811.738,1086.33,4811.867,1086.379,4811.919,1086.481Z" transform="translate(-4713.561 -1062.835)" fill="#1d1d1d"></path>
      </g>
    </g>
    <g id="Group_498" data-name="Group 498" transform="translate(65.055 63.531)">
      <path id="Path_150" data-name="Path 150" d="M4595.266,713.295c-2.053-9.108-2.1-17.533-2.483-26.862s1-18.927,5.479-27.118a165.109,165.109,0,0,0,1.176,63.217" transform="translate(-4592.721 -659.315)" fill="#e0e0e0"></path>
    </g>
    <g id="Group_499" data-name="Group 499" transform="translate(58.438 54.452)">
      <path id="Path_151" data-name="Path 151" d="M4580.032,626.393c-3.073-2.084-4.73-6.9-8.189-5.547a11.708,11.708,0,0,0-7.013,8.094c-1.381,5.908,2.016,11.83,5.745,16.616s8.1,9.527,9.135,15.5l14.405-22.686c1.492-2.348,3.023-4.808,3.313-7.575a9.047,9.047,0,0,0-17.357-4.4" transform="translate(-4564.515 -620.611)" fill="#e0e0e0"></path>
    </g>
    <g id="Group_501" data-name="Group 501" transform="translate(57.252 59.861)">
      <g id="Group_500" data-name="Group 500" transform="translate(0 0)">
        <path id="Path_152" data-name="Path 152" d="M4588.413,669.768c-.386.738-.731,1.489-1.114,2.225a13.139,13.139,0,0,1-1.336,2.09,17.6,17.6,0,0,1-1.606,2.067,2.65,2.65,0,0,1-.25.214l-.279.205a6.579,6.579,0,0,1-.7.479c-.221.139-.428.251-.622.349s-.366.195-.533.293l-.469.291-.22.136-.106.065-.025.015c-.009.009-.009-.025-.014-.036l-.021-.1c-.1-.456-.184-.892-.248-1.305-.062-.439-.116-.8-.169-1.1l-.035-.223-.016-.105c-.007-.037-.024-.094-.035-.14l-.151-.584a16.635,16.635,0,0,0-.589-2.568c-.347-.8-.719-1.583-1.109-2.364-.389-.753-.94-1.411-1.384-2.129s-1.024-1.348-1.516-2.036-.964-1.4-1.5-2.048-1.107-1.235-1.633-1.848-1.144-1.13-1.628-1.742a22.59,22.59,0,0,1-1.14-1.991,13.03,13.03,0,0,1-1.274-1.789,2.025,2.025,0,0,1-.149-.518,3.306,3.306,0,0,1-.061-.539l-.034-.534a2.771,2.771,0,0,0-.065-.521c-.112-.613-.289-1.227-.344-1.875s.029-1.3.032-1.971-.119-1.363-.065-2.058.259-1.369.359-2.068.192-1.411.347-2.114c.03-.137-.559-.305-.617-.179a14.2,14.2,0,0,0-.716,2.293,17.913,17.913,0,0,0-.311,2.363,23.663,23.663,0,0,0-.4,2.337c-.035.791.041,1.571.065,2.354a9.168,9.168,0,0,0,.124,1.2c.081.394.158.789.266,1.178a12.339,12.339,0,0,0,.7,2.357,20.967,20.967,0,0,0,1.274,2.129c.445.7.868,1.422,1.344,2.108s1.144,1.2,1.609,1.879.66,1.57,1.079,2.253.929,1.305,1.327,2,.763,1.406,1.138,2.105c.19.342.376.686.579,1.02s.392.676.588,1.014c.391.674.856,1.312,1.224,2.005a10.68,10.68,0,0,1,.474,1.076l.209.557.328.849.4.988.384,1.009c.257.677.494,1.339.728,2.1l.073-.043a1.6,1.6,0,0,0,.2-.156l.208-.174.423-.355.859-.728.892-.783c.3-.27.6-.581.907-.88.152-.151.308-.308.452-.47l.105-.117.061-.065.123-.131c.164-.174.313-.36.465-.544a10.842,10.842,0,0,0,.819-1.171,21.752,21.752,0,0,0,1.17-2.768c.388-.908.74-1.829,1.128-2.73C4588.441,669.686,4588.453,669.693,4588.413,669.768Z" transform="translate(-4566.667 -643.667)" fill="#1d1d1d"></path>
      </g>
    </g>
    <g id="Group_503" data-name="Group 503" transform="translate(73.689 61.801)">
      <g id="Group_502" data-name="Group 502">
        <path id="Path_153" data-name="Path 153" d="M4637.2,670.368a3.08,3.08,0,0,0,.14-.845,3.372,3.372,0,0,1,.164-.843c.1-.294.013-.607.151-.9s.6-.557.8-.853c.193-.277.286-.564.5-.844a4.468,4.468,0,0,0,.479-.862c.15-.31.55-.621.6-.941s.129-.639.179-.96-.076-.621-.042-.933-.094-.618-.082-.93.071-.628.066-.941-.066-.62-.092-.93-.179-.606-.216-.915.167-.652.128-.963-.363-.574-.409-.882.235-.675.182-.985a5.3,5.3,0,0,0-.269-.8c-.09-.266-.067-.56-.18-.821s-.38-.482-.507-.735-.137-.539-.271-.79-.3-.49-.415-.744a1.313,1.313,0,0,0-.616.18,2.844,2.844,0,0,0,.127.9,8.438,8.438,0,0,0,.364.836c.089.288-.019.623.045.915a3.71,3.71,0,0,1,.175.88c-.007.314.053.614.066.922s-.14.643-.131.948.061.6.046.912a7.213,7.213,0,0,1-.154.931c-.052.307.138.59.066.9s-.492.638-.572.938-.044.594-.115.892-.154.594-.206.888a4.381,4.381,0,0,0-.026.864c.009.287.131.574.155.863a6.982,6.982,0,0,1-.1.863,2.663,2.663,0,0,1-.063.86c-.117.31-.23.62-.333.928a2.173,2.173,0,0,0-.093.938c.041.335.321.694.389,1.039a3.3,3.3,0,0,1,.069,1.024C4637.205,670.4,4637.19,670.4,4637.2,670.368Z" transform="translate(-4636.734 -651.94)" fill="#1d1d1d"></path>
      </g>
    </g>
    <g id="Group_505" data-name="Group 505" transform="translate(61.972 145.454)">
      <g id="Group_504" data-name="Group 504" transform="translate(0)">
        <path id="Path_154" data-name="Path 154" d="M4618.933,1009.765l.309.437.389.524,1.032,1.355.065.085.033.043c0,.006.018.017.008.018l-.025.007-.205.055-.411.11-.828.216-.767.192-.526.118c-.747.141-1.482.363-2.23.472-.755.078-1.519.006-2.271.042-.709.013-1.415.082-2.119.077-.706-.026-1.406-.008-2.108,0-.751-.018-1.5-.157-2.242-.142-.745-.007-1.489,0-2.231-.027-.722-.037-1.448.038-2.169-.01-.36-.025-.721-.032-1.083-.037s-.723-.006-1.082-.046-.719-.077-1.077-.119-.717-.08-1.074-.13-.717-.084-1.075-.122l-.538-.057c-.179-.023-.356-.053-.535-.08-.356-.057-.715-.1-1.074-.135l-.538-.061c-.178-.028-.356-.059-.534-.093-.708-.144-1.4-.376-2.095-.551s-1.439-.177-2.134-.379c-.174-.047-.345-.1-.515-.167l-.127-.048-.064-.024c-.016-.007-.053-.02-.047-.021a.135.135,0,0,1-.021-.039c-.015-.049.043-.08.049-.08a.243.243,0,0,1-.05,0,.558.558,0,0,1-.062,0c-.011,0-.019,0-.02-.008s.037-.014.06-.017.036,0,.043-.02-.008-.005.021-.022l.223-.1.441-.215c.294-.145.587-.29.888-.42.6-.259,1.226-.462,1.828-.72s1.193-.533,1.8-.783c.119-.049.011-.335-.109-.3-.7.193-1.37.466-2.052.707s-1.328.569-2,.83c-.337.13-.683.238-1.028.344l-.452.137c-.136.042-.274.089-.407.138l-.778.3-.4.148-.214.075c-.034.007.008.011.016.017l.043.016.086.032c.233.09.506.183.786.277s.567.2.867.283l.226.073.256.087.522.185a10.455,10.455,0,0,0,1.055.341l1.076.266c.358.089.719.176,1.079.253s.719.174,1.077.267l.537.14.543.118c.723.146,1.467.2,2.194.323s1.422.449,2.158.544,1.478.164,2.218.226,1.481.159,2.226.178c.367.015.735.023,1.1.026s.736-.02,1.1-.031.734-.044,1.1-.074.73-.084,1.1-.113.733-.05,1.1-.065.732-.052,1.1-.087.729-.085,1.094-.128.726-.105,1.093-.134l1.209-.105,1.208-.159a16.824,16.824,0,0,0,2.381-.493c.206-.057.41-.12.612-.187s.4-.153.6-.232c.056-.021.085-.036.163-.063l.27-.091.521-.176c.342-.115.669-.222,1-.323l.244-.075.121-.037c.016-.008.05-.009.05-.022l-.044-.054-.347-.429-.668-.832-.55-.693q-.2-.248-.387-.5C4618.884,1009.709,4618.891,1009.705,4618.933,1009.765Z" transform="translate(-4586.789 -1008.537)" fill="#1d1d1d"></path>
      </g>
    </g>
    <g id="Group_507" data-name="Group 507" transform="translate(155.394 210.631)">
      <g id="Group_506" data-name="Group 506" transform="translate(0)">
        <path id="Path_155" data-name="Path 155" d="M5126.062,1286.444c1.565.49,3.136,1.006,4.688,1.619a26.256,26.256,0,0,1,4.538,2.257,12.4,12.4,0,0,1,3.81,3.647,8.646,8.646,0,0,1,1.113,2.511,9.353,9.353,0,0,1,.241,1.367l.032.694c0,.231-.02.46-.032.69a10.8,10.8,0,0,1-1.978,5.269,13.38,13.38,0,0,1-3.972,3.755,16.758,16.758,0,0,1-2.382,1.181,23.1,23.1,0,0,1-2.474.814c-1.665.448-3.342.742-5.021,1.042-1.574.281-3.153.543-4.732.807s-3.156.523-4.73.749-3.148.454-4.724.7l-4.729.743c-1.687.25-3.376.434-5.063.629q-1.266.144-2.53.307c-.844.1-1.687.215-2.53.349l-5.054.8-5.062.721c-.819.117-1.639.245-2.457.38l-2.459.377c-1.641.253-3.28.509-4.921.723s-3.287.409-4.928.636-3.283.465-4.932.6l-4.942.435-1.235.106-1.237.082-2.473.169-2.473.189c-.824.061-1.647.145-2.473.18l-4.95.264c-.825.036-1.65.1-2.475.132l-2.477.1c-1.65.068-3.3.141-4.954.173-1.651-.015-3.3-.091-4.951-.166l-2.473-.1c-.823-.041-1.646-.1-2.47-.134-1.647-.069-3.3-.069-4.95-.069-.206,0-.413,0-.619,0l-.619-.023-1.236-.052c-.824-.038-1.649-.085-2.471-.149-3.3-.2-6.526-.987-9.795-1.357l-1.1-.125-1.094-.161-2.188-.312-4.374-.616a35.1,35.1,0,0,1-4.177-.927,16.671,16.671,0,0,1-3.668-1.527,8.962,8.962,0,0,1-1.507-1.071,6.934,6.934,0,0,1-1.19-1.338,6.72,6.72,0,0,1-.83-1.63l-.081-.219c-.023-.074-.042-.15-.063-.225-.038-.151-.086-.3-.119-.455a8,8,0,0,1-.142-.938,8.674,8.674,0,0,1-.038-.957c.022-.32.031-.642.085-.961.032-.321.117-.634.179-.951.1-.309.169-.625.292-.924.1-.308.245-.6.375-.892.071-.147.154-.291.229-.437s.158-.29.246-.43a13.194,13.194,0,0,1,1.155-1.636,18.591,18.591,0,0,1,6.6-4.957c.5-.232.272-.8-.244-.594a18.114,18.114,0,0,0-7.66,5.634,11.812,11.812,0,0,0-1.23,2.029,9.858,9.858,0,0,0-.729,2.235c-.033.193-.083.383-.1.578l-.069.583c-.02.391-.045.78-.027,1.169a10.131,10.131,0,0,0,.332,2.3,9.729,9.729,0,0,0,.863,2.132,8.1,8.1,0,0,0,1.4,1.834,11.044,11.044,0,0,0,4.015,2.464c3.023,1.118,6.311,1.465,9.52,2.045l2.475.426,1.239.207c.413.073.831.109,1.246.165l4.989.622c1.659.242,3.324.4,4.988.594l2.5.277,1.251.13c.417.043.835.084,1.253.1l5.028.243c.838.035,1.676.087,2.516.111l2.516.049c1.678.04,3.352.1,5.027.16l5.028.027c.834,0,1.673-.012,2.51-.033s1.675-.093,2.514-.141c1.676-.1,3.351-.205,5.021-.241.417,0,.833-.018,1.25-.031l1.247-.021c.83-.008,1.66,0,2.491,0,1.661,0,3.328.032,4.993-.105,1.667-.119,3.339-.27,5.01-.424l1.253-.115,1.25-.139q1.249-.138,2.5-.262l2.5-.243c.833-.082,1.668-.156,2.5-.262l4.987-.608c.819-.107,1.642-.2,2.459-.33l2.453-.381,4.9-.794c1.625-.292,3.247-.612,4.867-.933l4.859-.97c1.62-.32,3.244-.61,4.87-.9s3.244-.6,4.864-.913c3.238-.63,6.449-1.386,9.693-1.974,1.777-.323,3.564-.639,5.384-1.038a38.326,38.326,0,0,0,5.469-1.577,22.739,22.739,0,0,0,2.675-1.228c.439-.233.864-.494,1.29-.764l.634-.435c.207-.153.407-.312.609-.469a13.826,13.826,0,0,0,3.876-4.82,10.126,10.126,0,0,0,.93-3.278,8.926,8.926,0,0,0-.319-3.452,9.577,9.577,0,0,0-1.535-3,12.676,12.676,0,0,0-2.275-2.275,21.727,21.727,0,0,0-5.311-2.937,58.677,58.677,0,0,0-5.574-1.869C5125.733,1286.357,5125.742,1286.344,5126.062,1286.444Z" transform="translate(-4985.03 -1286.375)" fill="#1d1d1d"></path>
      </g>
    </g>
    <g id="Group_508" data-name="Group 508" transform="translate(45.492 86.343)">
      <path id="Path_156" data-name="Path 156" d="M4537.8,819.429a101.918,101.918,0,0,0-28.469-62.494c2.467-1.285,5.261.932,7.079,3.038a102.065,102.065,0,0,1,24.213,57.234,3.808,3.808,0,0,1-.41,2.613c-.534.727-1.879.849-2.229.017" transform="translate(-4509.327 -756.555)" fill="#e0e0e0"></path>
    </g>
    <g id="Group_509" data-name="Group 509" transform="translate(81.094 120.749)">
      <path id="Path_157" data-name="Path 157" d="M4661.8,930.709a42.471,42.471,0,0,1,3.3-25.664,3.933,3.933,0,0,1,.985-1.45,1.432,1.432,0,0,1,1.642-.186c.862.582.446,1.911-.024,2.838a42.668,42.668,0,0,0-4.135,25.227" transform="translate(-4661.093 -903.224)" fill="#e0e0e0"></path>
    </g>
    <g id="Group_510" data-name="Group 510" transform="translate(1.978 70.225)">
      <path id="Path_158" data-name="Path 158" d="M4364.079,699.461c-1.462-4.128-4-8.07-7.828-10.19s-9.1-1.968-12.181,1.144c-3.591,3.628-3.118,9.44-3.48,14.532a36.7,36.7,0,0,1-16.756,27.979c4.276-2.788,9.709-3.077,14.8-2.636s10.158,1.523,15.248,1.142a27.378,27.378,0,0,0,23.686-19.4c.877-3.131,1.066-6.814-1.009-9.317a8.428,8.428,0,0,0-6.243-2.706,24.977,24.977,0,0,0-6.906,1.066" transform="translate(-4323.833 -687.85)" fill="#e0e0e0"></path>
    </g>
    <g id="Group_512" data-name="Group 512" transform="translate(2.153 83.442)">
      <g id="Group_511" data-name="Group 511" transform="translate(0 0)">
        <path id="Path_159" data-name="Path 159" d="M4366.772,748.481c-.1-.211.069-.492.45-.86a10.566,10.566,0,0,1,1.825-1.343,23.509,23.509,0,0,1,3.177-1.492,9.6,9.6,0,0,1,1.048-.318c.36-.078.736-.144,1.124-.2a10.518,10.518,0,0,1,2.457-.024c.207.03.428.047.65.094a5.251,5.251,0,0,1,.675.155,7.514,7.514,0,0,1,1.281.506,13.315,13.315,0,0,1,2.279,1.485c.19.141.355.316.539.481.091.083.168.181.254.273a3.031,3.031,0,0,1,.245.29,4.66,4.66,0,0,1,.429.649,3.566,3.566,0,0,1,.185.352l.152.373a8.464,8.464,0,0,1,.537,3.125,13.049,13.049,0,0,1-.583,3.275,14.361,14.361,0,0,1-.576,1.6,12.1,12.1,0,0,1-.861,1.507c-.15.24-.3.478-.441.716s-.307.46-.445.695l-.44.731-.221.366c-.077.12-.162.235-.244.353-.329.471-.65.953-.992,1.421a12.536,12.536,0,0,0-.992,1.376c-.276.428-.584.861-.9,1.311a7.8,7.8,0,0,1-.5.657c-.183.206-.375.407-.575.6-.744.766-1.569,1.441-2.375,2.131-.409.31-.874.68-1.321.971-.217.15-.449.278-.678.408l-.685.39c-.225.13-.435.255-.641.386s-.424.242-.642.381c-.443.266-.872.555-1.322.8a37.425,37.425,0,0,1-5.454,2.492l-1.383.411c-.229.063-.454.144-.685.192l-.686.154c-.456.1-.9.211-1.353.286l-1.334.19c-.219.029-.437.066-.653.087l-.643.052c-.424.03-.844.08-1.252.087l-1.205.024c-.392,0-.774-.01-1.15-.015l-.555-.009-.542-.025c-.355-.016-.7-.031-1.015-.039-.635-.022-1.259-.016-1.857-.022s-1.172-.027-1.706-.074c-.478-.041-.92-.064-1.328-.083-.807-.031-1.463-.064-1.9-.093-.231-.015-.458-.034-.692-.06s-.476-.065-.7-.1c-.449-.072-.871-.164-1.269-.253s-.768-.156-1.123-.218c-.176-.031-.345-.056-.518-.077s-.347-.028-.536-.04l-1.052-.078-.98-.051-.466-.031-.442-.009c-.289-.008-.57-.022-.854-.051-1.1-.081-1.941-.233-2.536-.309-.6-.1-.949-.214-.986-.39s.257-.392.858-.607a5.683,5.683,0,0,1,1.107-.288l.693-.119c.244-.043.5-.084.767-.109s.544-.073.852-.119c.153-.022.311-.05.472-.067l.489-.043,1.04-.081,1.109-.028a8.336,8.336,0,0,1,1.239.044c.428.045.853.1,1.266.176s.822.145,1.223.2c.2.03.4.057.592.076l.637.051,1.863.113c.414.026.881.059,1.4.115.461.051.969.078,1.538.1s1.186.025,1.864.068c.689.026,1.332.1,2.046.125l1.082.048,1.123.01c.383,0,.769-.024,1.161-.044s.794-.032,1.2-.089l1.225-.139c.1-.013.208-.022.311-.039l.311-.06.627-.121.636-.123c.106-.022.213-.039.32-.064l.317-.084,1.289-.339c.218-.055.429-.138.642-.213l.644-.23.649-.232c.217-.079.426-.18.641-.269.427-.186.861-.364,1.292-.556l1.28-.634c.436-.2.842-.462,1.266-.7.2-.119.424-.245.654-.366s.453-.263.675-.375c.448-.246.9-.452,1.314-.7s.811-.509,1.193-.8c.1-.073.207-.142.306-.22l.293-.236.588-.474.59-.475.56-.512c.2-.173.373-.339.542-.508a4.549,4.549,0,0,0,.478-.541l.9-1.212c.171-.227.324-.476.5-.71l.268-.35.266-.319a8.013,8.013,0,0,0,.5-.658l.484-.67c.333-.439.609-.913.9-1.377.147-.25.3-.489.462-.722q.216-.362.434-.709a13.385,13.385,0,0,0,.8-1.367,10.163,10.163,0,0,0,.522-1.454,14.089,14.089,0,0,0,.345-1.473,10.211,10.211,0,0,0,.143-1.435,6.6,6.6,0,0,0-.48-2.556,4.175,4.175,0,0,0-.249-.52,3.478,3.478,0,0,0-.322-.457,4.845,4.845,0,0,0-.8-.757,13.5,13.5,0,0,0-1.937-1.168c-.17-.073-.333-.158-.506-.215a4.141,4.141,0,0,0-.508-.165l-.252-.066-.253-.041c-.167-.031-.339-.047-.522-.064a8.158,8.158,0,0,0-1.042-.039,9.2,9.2,0,0,0-1,.083c-.331.044-.655.1-.969.169a8.67,8.67,0,0,0-.88.256c-.573.2-1.118.425-1.643.639-.259.109-.525.208-.764.3s-.45.178-.658.265a15.5,15.5,0,0,1-2.067.794C4367.2,748.728,4366.868,748.69,4366.772,748.481Z" transform="translate(-4331.791 -744.188)" fill="#1d1d1d"></path>
      </g>
    </g>
    <g id="Group_514" data-name="Group 514" transform="translate(15.641 87.941)">
      <g id="Group_513" data-name="Group 513" transform="translate(0 0)">
        <path id="Path_160" data-name="Path 160" d="M4407.081,763.393a7.636,7.636,0,0,0-.56.956,3.671,3.671,0,0,1-.653.883,2.62,2.62,0,0,0-.353.457,1.569,1.569,0,0,1-.394.417,1.655,1.655,0,0,1-.623.206,5.087,5.087,0,0,0-.66.143,8.671,8.671,0,0,1-1.03.4,8.124,8.124,0,0,0-1.029.341c-.353.131-.873.048-1.17.224s-.61.335-.923.493-.5.45-.8.614-.513.443-.811.611-.629.287-.924.464-.562.4-.859.577-.516.479-.811.668-.727.176-1.023.369-.439.615-.736.815-.787.123-1.087.327a7.5,7.5,0,0,0-.727.662,9.7,9.7,0,0,0-.782.6c-.226.246-.351.612-.561.87s-.5.433-.7.7-.371.569-.578.828c-.041.051.395.481.454.454a4.6,4.6,0,0,0,.848-.643c.275-.217.44-.562.7-.8s.65-.315.923-.53a4.675,4.675,0,0,1,.842-.617c.325-.157.613-.365.93-.531s.719-.2,1.035-.363.6-.366.928-.515.688-.234,1.029-.356.549-.448.9-.557.884.063,1.236-.052.635-.339.98-.474a10.05,10.05,0,0,0,1.022-.443,5.178,5.178,0,0,0,.887-.627c.28-.231.482-.558.744-.812s.6-.422.875-.671a6.287,6.287,0,0,1,.814-.756,10.205,10.205,0,0,0,1.042-.737,3,3,0,0,0,.452-.45,2.58,2.58,0,0,0,.351-.535,9.449,9.449,0,0,0,.333-1.375q.1-.325.21-.638a4.174,4.174,0,0,1,.253-.61C4407.091,763.355,4407.1,763.362,4407.081,763.393Z" transform="translate(-4389.287 -763.367)" fill="#1d1d1d"></path>
      </g>
    </g>
    <g id="Group_516" data-name="Group 516" transform="translate(1.855 69.279)">
      <g id="Group_515" data-name="Group 515" transform="translate(0 0)">
        <path id="Path_161" data-name="Path 161" d="M4358.311,684.536a2.264,2.264,0,0,0-1.743-.718,5.287,5.287,0,0,0-.53.015c-.179.028-.36.039-.541.082-.182.027-.359.085-.542.126-.175.062-.36.108-.533.183a3.127,3.127,0,0,0-1,.634c-.3.268-.59.576-.9.873s-.659.585-1.011.9a6.691,6.691,0,0,0-.971,1.064c-.521.744-.9,1.581-1.374,2.367a16.885,16.885,0,0,0-1.186,2.5c-.372.905-.982,1.739-1.264,2.663s-.578,1.839-.872,2.754c-.286.888-.4,1.823-.686,2.71s-.428,1.811-.712,2.694-.633,1.744-.928,2.62-.547,1.764-.857,2.631-.5,1.776-.835,2.633-.908,1.613-1.27,2.447-.494,1.775-.9,2.591-1.132,1.453-1.581,2.222c-.4.689-.75,1.411-1.168,2.082s-.956,1.255-1.4,1.886a21.36,21.36,0,0,1-1.336,1.914,13.838,13.838,0,0,1-1.734,1.489,9.917,9.917,0,0,1-1.876,1.249c-.129.065.093.636.242.595a8.037,8.037,0,0,0,2.384-1.2,12.271,12.271,0,0,0,1.952-1.855,23.793,23.793,0,0,0,1.907-1.938c.554-.725,1.032-1.5,1.571-2.24.555-.757,1.021-1.575,1.5-2.384s1.075-1.566,1.507-2.411.8-1.719,1.2-2.577.865-1.695,1.268-2.56.563-1.816.953-2.681,1.088-1.623,1.459-2.5.611-1.8.949-2.7.674-1.785.967-2.69.514-1.8.729-2.713.315-1.843.511-2.749.511-1.781.756-2.642l.176-.632.087-.3.1-.326a9.382,9.382,0,0,1,.486-1.26,16,16,0,0,1,1.393-2.379c.252-.346.506-.665.763-.961.132-.142.259-.288.394-.422.067-.076.127-.124.188-.185l.088-.09.1-.084a8.635,8.635,0,0,1,.9-.737,3.07,3.07,0,0,1,1.1-.491,2.32,2.32,0,0,1,2.118.487C4358.365,684.571,4358.355,684.581,4358.311,684.536Z" transform="translate(-4330.521 -683.815)" fill="#1d1d1d"></path>
      </g>
    </g>
    <g id="Group_517" data-name="Group 517" transform="translate(167.677 4.988)">
      <path id="Path_162" data-name="Path 162" d="M5054.972,465.79c-.006.013-.015.024-.021.037a13.028,13.028,0,0,1-5.479,5.2,7.345,7.345,0,0,1-2.955.672c-.105,0-.21,0-.315,0a8.2,8.2,0,0,1-5.781-2.965c-.189-.219-.367-.446-.535-.679a13.387,13.387,0,0,1-2.215-5.851c-.062-.407-.11-.817-.146-1.225-.014-.18-.028-.362-.038-.543a21.763,21.763,0,0,1,0-2.671c.03-.486.076-.973.139-1.454.152-1.163.4-2.311.641-3.458q1.041-4.866,2.119-9.725.564-2.585,1.133-5.17a14.451,14.451,0,0,0-.694-11.438q-1.626-3.9-3.253-7.792c-.058-.143-.119-.29-.18-.433l3.717-5.572a5.894,5.894,0,0,1,1.549-1.635c2.655-1.919,6.821-1.81,9.1.644,1.664,1.794,2.224,4.321,2.717,6.717a48.3,48.3,0,0,1,1.232,8.453c.119,4.454-.992,8.921-.421,13.342.439,3.4,1.852,6.6,2.49,9.974A22.429,22.429,0,0,1,5054.972,465.79Z" transform="translate(-5037.391 -409.754)"></path>
    </g>
  </g>
</svg>
