<?xml version="1.0" encoding="UTF-8"?>
<svg xmlns="http://www.w3.org/2000/svg" id="Group_422" data-name="Group 422" width="279.939" height="242.132" viewBox="0 0 279.939 242.132">
  <g id="Group_355" data-name="Group 355" transform="translate(226.221 44.909)">
    <g id="Group_354" data-name="Group 354">
      <path id="Path_63" data-name="Path 63" d="M3928.46,682.774a6.705,6.705,0,0,1,.987-2.274,7.978,7.978,0,0,1,1.617-1.742,8.293,8.293,0,0,1,2-1.166,9.29,9.29,0,0,1,2.178-.573,18.763,18.763,0,0,1,4.487-.215c1.43.152,2.8.634,4.217.864l.5.077.477.069,1.028.13c.724.087,1.51.178,2.446.305a21.119,21.119,0,0,0,2.645.2c.784,0,1.447,0,2.061-.058a3.871,3.871,0,0,0,1-.228,1.916,1.916,0,0,0,.874-.659,2.014,2.014,0,0,0,.377-1.122,2.306,2.306,0,0,0-.223-1.084,3.1,3.1,0,0,0-.864-1.075,7.167,7.167,0,0,0-.883-.594c-.16-.088-.323-.179-.537-.272a4.858,4.858,0,0,0-1.189-.339,16.833,16.833,0,0,0-1.814-.156c-1.282-.071-2.53-.138-3.762-.246l-.933-.075-.677-.046-1.04-.052c-.694-.031-1.388-.06-2.079-.124-1.381-.127-2.758-.314-4.14-.43-.691-.058-1.384-.1-2.076-.145l-1.039-.066-.151-.01-.07-.008a1.063,1.063,0,0,0-.256.013c-.107.013-.243.03-.376.037a.612.612,0,0,1,.1-.131,1.186,1.186,0,0,1,.423-.248.706.706,0,0,1,.087-.021l.035,0h.015c.006,0,0,.008.015-.009l.075-.088c.4-.47.807-.956,1.2-1.448.781-.988,1.48-1.973,2.132-2.882.327-.457.645-.9.971-1.338l.247-.329.125-.165.031-.041c0-.007.011-.014.014-.02l-.025,0-.1.008q-.4.031-.782.049a21.754,21.754,0,0,1-2.554-.039l-.3-.019-.324,0c-.219,0-.434-.006-.67.008a9.935,9.935,0,0,0-1.565.238l-.379.089a3.517,3.517,0,0,0-.388.105l-.806.267c-.135.049-.266.082-.405.143L3930,666l-.822.352-.8.419-.4.208a.714.714,0,0,0-.074.042l-.054.034-.11.068c-.294.18-.584.363-.867.558a17.571,17.571,0,0,0-3.207,2.566,18.07,18.07,0,0,0-2.309,3.355,17.674,17.674,0,0,0-1.747,3.655,16.884,16.884,0,0,0-.687,3.986c-.019.265.61.31.658.07.125-.7.278-1.392.443-2.081a15.871,15.871,0,0,1,.657-2.015c.274-.647.528-1.3.838-1.939.144-.324.318-.631.483-.946.182-.3.357-.613.566-.9a17.452,17.452,0,0,1,2.963-3.006,19.57,19.57,0,0,1,1.656-1.3c.288-.2.586-.386.888-.563l.46-.253c.071-.04.166-.085.26-.129l.278-.13c.375-.184.756-.322,1.127-.481.373-.129.744-.281,1.11-.382a14.079,14.079,0,0,1,2.149-.5,10.736,10.736,0,0,1,1.956-.111l.46.024.057,0h.042l-.014.014-.112.11-.22.216-.838.82c-.526.523-1,1.013-1.477,1.5l-.7.714-.785.78c-.8.776-1.7,1.61-2.7,2.552l1.157.158c.771.1,1.668.141,2.518.184l.638.033.6.038c.348.025.7.059,1.041.11,1.381.2,2.713.75,4.094.953s2.779.277,4.162.465l1.037.142.13.018.065.009.033,0,.011,0,.07.022.127.043c.158.056.267.1.356.141a1.186,1.186,0,0,0,.376.081l.248.017a2.659,2.659,0,0,1,.65.111c.259.083.518.281.479.445s-.332.188-.581.171-.5-.06-.65-.067-.254,0-.392.006a1.507,1.507,0,0,1-.471-.06,1.912,1.912,0,0,1-.221-.084l-.041-.02a.384.384,0,0,0-.052-.006l-.071-.006-.142-.013-.567-.05q-1.133-.1-2.268-.187a23.174,23.174,0,0,0-4.747.023,10.647,10.647,0,0,0-2.623.712c-.215.083-.425.186-.635.281s-.427.21-.631.331a12.279,12.279,0,0,0-1.186.76,9.321,9.321,0,0,0-1.078.908,8.85,8.85,0,0,0-.927,1.09,7.539,7.539,0,0,0-.72,1.272,6.523,6.523,0,0,0-.437,1.424C3928.433,682.948,3928.419,682.943,3928.46,682.774Z" transform="translate(-3918.918 -664.98)" fill="#1d1d1d"></path>
    </g>
  </g>
  <g id="Group_356" data-name="Group 356" transform="translate(96.674 54.699)">
    <path id="Path_64" data-name="Path 64" d="M3458.776,775.454a181.723,181.723,0,0,1-1.221-48.228c.491-4.526,1.139-9.216-.2-13.551s-5.4-8.162-9.709-7.392c-4.446.795-6.862,5.646-9.66,9.33a25.63,25.63,0,0,1-25.515,9.517c-9.3-2.1-17.152-10.049-19.431-19.674-6.717,1.1-10.387,9.377-9.585,16.407s4.7,13.183,7.841,19.461,5.646,13.626,3.463,20.331c-2.259,6.942-9.29,12.448-8.435,19.724.69,5.873,6.319,9.633,11.634,11.725,23.073,9.079,51.322,1.168,66.908-18.737" transform="translate(-3383.344 -705.456)" fill="#df8319"></path>
  </g>
  <g id="Group_357" data-name="Group 357" transform="translate(13.471 136.45)">
    <path id="Path_65" data-name="Path 65" d="M3143.866,1043.68c-23.446-.484-47.274-.923-69.9,5.244-10.451,2.849-20.928,7.382-27.871,15.7s-9.336,21.155-3.208,30.088c5.552,8.094,16.044,10.89,25.691,12.7,66.81,12.534,135.547,6.071,203.211-.433,7.635-.734,15.492-1.532,22.281-5.1s12.328-10.641,11.723-18.287c-.523-6.618-5.517-12.213-11.395-15.3s-12.587-4.1-19.154-5.076l-127.3-18.865" transform="translate(-3039.369 -1043.427)" fill="#e0e0e0"></path>
  </g>
  <g id="Group_358" data-name="Group 358" transform="translate(68.321 163.158)">
    <path id="Path_66" data-name="Path 66" d="M3298.362,1153.984l-20.369-.139c-3.249-.022-6.716.041-9.419,2.529a7.489,7.489,0,0,0-2.2,7.2c.737,2.371,2.8,3.261,4.612,3.878,7.065,2.4,14.291,4.826,21.538,3.914,2.153-.271,4.47-.978,5.854-3.269,2.145-3.549,1.042-8.866-.161-13.179" transform="translate(-3266.129 -1153.843)" fill="#fff"></path>
  </g>
  <g id="Group_359" data-name="Group 359" transform="translate(187.966 164.394)">
    <path id="Path_67" data-name="Path 67" d="M3763.04,1159.484a49.506,49.506,0,0,0-2.248,16.5,114.923,114.923,0,0,0,35.844-2.193,2.411,2.411,0,0,0,1.376-.641,2.23,2.23,0,0,0,.031-2.233,14.635,14.635,0,0,0-7.523-7.43,37.343,37.343,0,0,0-10.424-2.774q-8.3-1.28-16.7-1.762" transform="translate(-3760.764 -1158.953)" fill="#fff"></path>
  </g>
  <g id="Group_361" data-name="Group 361" transform="translate(247.231 18.777)">
    <g id="Group_360" data-name="Group 360">
      <path id="Path_68" data-name="Path 68" d="M4008.039,574.948a2.613,2.613,0,0,1-1.588.464.861.861,0,0,1-.455-.34,1.362,1.362,0,0,1-.221-.633.8.8,0,0,1,.26-.522l.3-.316a2.947,2.947,0,0,1,.93-.551,2.661,2.661,0,0,1,1.325-.188.646.646,0,0,1,.447.687A1.847,1.847,0,0,1,4008.039,574.948Zm9.939-14.742a.947.947,0,0,1,.571,1.135q-.107.974-2.037,2.183a45.607,45.607,0,0,0-7.115,3q-1.742,1.07-1.867,2.216a2.378,2.378,0,0,0,.336,1.429,1.393,1.393,0,0,0,1.056.812.58.58,0,0,0,.717-.588l-.087-.793a1.267,1.267,0,0,1,.171-.5.762.762,0,0,1,.136-.188,1.814,1.814,0,0,1,.162-.156c.042-.034.112-.094.208-.18s.166-.146.208-.18l7.11-3.222a5.1,5.1,0,0,0,3.215-4.2,3.334,3.334,0,0,0-.849-2.572,3.95,3.95,0,0,0-2.719-1.386,14.915,14.915,0,0,0-3.8.12,4.19,4.19,0,0,0-2.719,1.137.9.9,0,0,0-.357.613q-.04.358.56.844a4.426,4.426,0,0,0,1.3.737,13.775,13.775,0,0,1,4.5-.579A4.436,4.436,0,0,1,4017.978,560.207Z" transform="translate(-4005.775 -556.947)"></path>
    </g>
  </g>
  <g id="Group_363" data-name="Group 363" transform="translate(15.391 13.556)">
    <g id="Group_362" data-name="Group 362" transform="translate(0 0)">
      <path id="Path_69" data-name="Path 69" d="M3047.468,536.207a2.531,2.531,0,0,1,.873-.417,9.711,9.711,0,0,1,1.472-.409.262.262,0,0,1,.278.059q.333.278,1.277,5.008t1.644,10q.7,5.265.38,6.636a.8.8,0,0,1-.148.5.817.817,0,0,1-.448.3c-.2.059-.331.063-.4.012a.292.292,0,0,1-.124-.2q-.378-2.52-2.171-9.809t-2.356-9.408Q3047.044,536.79,3047.468,536.207Zm6.67,25.976a.75.75,0,0,1-.614.231,1.067,1.067,0,0,1-.614-.161.71.71,0,0,1-.277-.379q-.067-.227-.123-.517a4.238,4.238,0,0,1,.005-1.012,2.493,2.493,0,0,1,.468-1.281.57.57,0,0,1,.818-.047,1.848,1.848,0,0,1,.721,1.558A2.616,2.616,0,0,1,3054.137,562.183Z" transform="translate(-3047.308 -535.362)"></path>
    </g>
  </g>
  <g id="Group_364" data-name="Group 364" transform="translate(59.584 105.768)">
    <path id="Path_70" data-name="Path 70" d="M3250.264,916.582c31.533,13.2,61.487,29.91,90.589,47.844,5.727,3.529,11.75,7.478,14.387,13.666s-.147,15.068-6.787,16.142c-31.523-7.422-61.559-20-91.426-32.518-6.026-2.526-12.137-5.1-17.256-9.165s-9.207-9.874-9.716-16.389c-.829-10.6,9.7-20.55,20.235-19.123" transform="translate(-3230.009 -916.582)" fill="#deb572"></path>
  </g>
  <g id="Group_365" data-name="Group 365" transform="translate(106.963 101.543)">
    <path id="Path_71" data-name="Path 71" d="M3531.846,899.115c-31.533,13.2-61.487,29.911-90.589,47.844-5.727,3.529-11.75,7.478-14.387,13.666s.148,15.067,6.788,16.142c31.523-7.422,61.559-20,91.426-32.518,6.026-2.526,12.138-5.1,17.256-9.164s9.207-9.875,9.716-16.389c.829-10.6-9.7-20.549-20.235-19.123" transform="translate(-3425.884 -899.115)" fill="#deb572"></path>
  </g>
  <g id="Group_367" data-name="Group 367" transform="translate(67.918 163.359)">
    <g id="Group_366" data-name="Group 366" transform="translate(0)">
      <path id="Path_72" data-name="Path 72" d="M3298.112,1155.342c.308,1.369.669,2.734.942,4.138a17.407,17.407,0,0,1,.336,4.328c-.011.388-.057.782-.081,1.175-.015.2-.047.395-.07.592a5.858,5.858,0,0,1-.089.593,7.578,7.578,0,0,1-.779,2.305,6.264,6.264,0,0,1-.729.993,5.938,5.938,0,0,1-.918.806,8.266,8.266,0,0,1-2.1,1.018,10.3,10.3,0,0,1-4.062.516c-.675-.024-1.347-.1-2.013-.14-.667-.082-1.331-.134-1.991-.252-1.415-.219-2.744-.795-4.118-1.107s-2.742-.693-4.1-1.129c-1.317-.423-2.691-.707-4.01-1.18s-2.688-.823-4.017-1.31a6.9,6.9,0,0,1-2.924-1.749,3.614,3.614,0,0,1-.855-2.7,6.441,6.441,0,0,1,1.038-3.172,3.722,3.722,0,0,1,.556-.625c.1-.089.2-.168.314-.25l.358-.241a13.581,13.581,0,0,1,1.5-.772,16.986,16.986,0,0,1,1.625-.674,7.479,7.479,0,0,1,1.854-.4c1.31-.095,2.682.292,4.113.307,1.269.016,2.539-.058,3.8-.08s2.54.075,3.806.029,2.528-.244,3.794-.3,2.536.015,3.8-.037,2.528-.145,3.8-.178c.248-.006.253-.638.013-.662-1.392-.141-2.8-.113-4.2-.153s-2.8.114-4.2.119-2.8-.2-4.195-.2-2.8.029-4.192-.047c-1.427-.076-2.864-.092-4.288-.14a19.589,19.589,0,0,0-4.266.079,9.206,9.206,0,0,0-2.055.633,10.01,10.01,0,0,0-1.865,1.094,8.313,8.313,0,0,0-2.724,3.419,6.143,6.143,0,0,0-.468,2.2,8.045,8.045,0,0,0,.27,2.268,7.029,7.029,0,0,0,.926,2.2,5.794,5.794,0,0,0,.792.954,5.659,5.659,0,0,0,.97.74,12.16,12.16,0,0,0,2.1.948c.669.248,1.341.494,2,.765,1.327.539,2.661,1.084,4.035,1.552a38.194,38.194,0,0,0,4.162,1.155,39.341,39.341,0,0,0,4.322.617,40.656,40.656,0,0,0,4.4.348c.371,0,.742-.028,1.113-.045s.741-.056,1.112-.1c.733-.07,1.495-.153,2.287-.291a9.7,9.7,0,0,0,2.639-.811,7.814,7.814,0,0,0,2.388-1.776,8.843,8.843,0,0,0,2.114-5.217,10.93,10.93,0,0,0-.155-2.729c-.139-.877-.348-1.716-.532-2.548-.37-1.663-.864-3.268-1.3-4.865C3298.065,1155.2,3298.081,1155.2,3298.112,1155.342Z" transform="translate(-3264.463 -1154.674)" fill="#1d1d1d"></path>
    </g>
  </g>
  <g id="Group_369" data-name="Group 369" transform="translate(188.385 163.224)">
    <g id="Group_368" data-name="Group 368" transform="translate(0 0)">
      <path id="Path_73" data-name="Path 73" d="M3764.9,1154.124c1.51.156,3.023.243,4.536.356s3.018.277,4.515.513c1.583.25,3.2.323,4.76.664s3.032,1.009,4.561,1.472a38.8,38.8,0,0,1,4.248,1.4,35.262,35.262,0,0,1,3.934,1.921,20.781,20.781,0,0,1,3.414,2.917,11.821,11.821,0,0,1,2.544,3.382l.172.369c.062.121.118.244.168.369l.161.366c.021.052.041.1.059.153l.026.073.012.035,0,.01a.341.341,0,0,1-.016.358.271.271,0,0,1-.156.08l-.058.01c-.009,0-.019,0-.028,0l-.1.022-.556.118-1.116.255c-.742.181-1.492.326-2.243.458-1.507.246-3.025.4-4.535.6l-2.266.3c-.755.1-1.514.18-2.271.26s-1.516.162-2.272.263-1.517.17-2.278.222-1.526.009-2.29-.016-1.526-.082-2.287-.061-1.521.086-2.282.159-1.526.128-2.289.113a18.5,18.5,0,0,1-2.279-.249,22.643,22.643,0,0,0-2.27-.3c-.34-.024-.68-.043-1.02-.059l-.51-.021-.255-.009-.128,0h-.037c-.165.01-.356.021-.553.02-.017,0-.019,0-.018,0l0-.006,0-.014a.148.148,0,0,1,0-.031.164.164,0,0,1,.007-.029l0-.009,0-.25.029-1c.011-.333.022-.666.021-1,.011-1.33-.073-2.674.04-4.012s.409-2.654.638-3.977.473-2.646.833-3.947c.068-.254-.532-.448-.629-.205a28.457,28.457,0,0,0-1.26,4.36,37.406,37.406,0,0,0-.586,4.5c-.16,1.5-.452,2.994-.485,4.51l-.008.568c0,.094,0,.189,0,.284l0,.259c0,.3.009.593.02.887l.006.221,0,.111,0,.056a.318.318,0,0,0,.056.007l.467.045c.311.032.62.068.934.112l.243.033c.081.011.16.022.263.031l.581.056,1.163.1c.776.066,1.554.1,2.331.167s1.552.133,2.329.22,1.556.14,2.336.169,1.562.014,2.344.016c.781-.013,1.562-.025,2.344-.023s1.563,0,2.345.007,1.564,0,2.347-.018,1.559-.108,2.335-.206,1.553-.193,2.331-.24c1.555-.087,3.139.147,4.7,0s3.111-.457,4.665-.686l1.548-.232.206-.034c.092-.017.214-.043.318-.069a4.4,4.4,0,0,0,.635-.2,2.992,2.992,0,0,0,1.082-.736,2.8,2.8,0,0,0,.628-1.17,3.535,3.535,0,0,0,.068-1.366,5.943,5.943,0,0,0-.457-1.574,11.135,11.135,0,0,0-.565-1.184,12.85,12.85,0,0,0-1.474-2.133,13.235,13.235,0,0,0-1.833-1.769,23.273,23.273,0,0,0-2.052-1.437,23.676,23.676,0,0,0-4.379-2.252c-1.526-.569-3.1-.9-4.622-1.327-1.678-.463-3.364-.833-5.037-1.163a43.542,43.542,0,0,0-5.067-.7c-1.794-.137-3.591,0-5.376-.048s-3.584-.083-5.374-.19C3764.739,1154.123,3764.742,1154.108,3764.9,1154.124Z" transform="translate(-3762.493 -1154.117)" fill="#1d1d1d"></path>
    </g>
  </g>
  <g id="Group_371" data-name="Group 371" transform="translate(132.541 130.813)">
    <g id="Group_370" data-name="Group 370" transform="translate(0 0)">
      <path id="Path_74" data-name="Path 74" d="M3580.621,1064.5a5.827,5.827,0,0,0,1.589-2.532,11.816,11.816,0,0,0,.553-3.062,13.653,13.653,0,0,0-.464-3.366,15.655,15.655,0,0,0-.788-3.475,19.571,19.571,0,0,0-1.816-2.978,17.059,17.059,0,0,0-2.344-2.667,23.6,23.6,0,0,0-2.784-2.633q-1.57-1.073-3.153-2.068c-1.023-.646-2.132-1.124-3.159-1.75s-2.129-1.119-3.161-1.732-2.036-1.278-3.075-1.88-2.1-1.158-3.147-1.754-2.155-1.067-3.2-1.658-1.969-1.4-3.015-1.988-2.231-.932-3.278-1.521-1.922-1.484-2.967-2.075c-.937-.53-1.916-.982-2.868-1.477s-1.853-1.1-2.816-1.573-2-.814-2.967-1.28-1.879-1.044-2.846-1.514-1.95-.9-2.909-1.387c-.188-.1-.5.455-.329.575.967.69,2.028,1.238,3.05,1.842s2.135,1.037,3.179,1.6,1.987,1.309,3.023,1.884,2.095,1.112,3.095,1.746c1.025.65,2.086,1.24,3.122,1.872s1.991,1.4,3.028,2.03,2.1,1.211,3.132,1.852,2.019,1.346,3.033,2.014,2.152,1.118,3.152,1.8,1.811,1.654,2.81,2.335,2.069,1.252,3.076,1.92,2.011,1.344,3.036,1.984,2.052,1.206,3.066,1.787,2.068,1.076,3.034,1.7a22.8,22.8,0,0,1,2.656,2.112,11.446,11.446,0,0,1,3.866,5.437,20.988,20.988,0,0,1,.856,3.25c.06.289.092.577.16.868l.13.877c.014.29.055.592.048.886l-.021.443c-.005.074-.008.149-.016.223l-.041.216a5.994,5.994,0,0,1-1.52,3.13C3580.56,1064.589,3580.55,1064.577,3580.621,1064.5Z" transform="translate(-3531.626 -1020.123)" fill="#1d1d1d"></path>
    </g>
  </g>
  <g id="Group_373" data-name="Group 373" transform="translate(143.626 102.514)">
    <g id="Group_372" data-name="Group 372" transform="translate(0)">
      <path id="Path_75" data-name="Path 75" d="M3657.662,907.534a10.55,10.55,0,0,0-3.172-2.339l-.448-.218-.223-.11c-.076-.034-.155-.062-.232-.093l-.929-.374q-.48-.151-.958-.313a4.423,4.423,0,0,0-.485-.142l-.491-.131a22.979,22.979,0,0,0-4.3-.444,30.941,30.941,0,0,0-4.445-.2,26.016,26.016,0,0,0-4.2.841,20.558,20.558,0,0,0-2.069.641l-1.011.4c-.339.133-.665.289-1,.433a32.574,32.574,0,0,0-4.251,1.946q-1.967,1.253-3.858,2.579c-1.227.856-2.325,1.876-3.516,2.746s-2.285,1.857-3.486,2.69c-1.187.854-2.44,1.609-3.647,2.43l-1.821,1.216-.91.61-.927.583c-.623.381-1.217.808-1.829,1.207s-1.222.8-1.851,1.175a21.309,21.309,0,0,1-1.969.969c-.333.151-.667.3-1,.46s-.663.308-.984.479c-.645.339-1.251.753-1.871,1.145s-1.243.78-1.9,1.107a15.276,15.276,0,0,1-2.052.785c-.349.116-.7.231-1.041.356s-.689.246-1.022.394c-.6.263-1.186.546-1.772.833s-1.183.551-1.778.817c-.3.133-.6.259-.9.382s-.612.229-.918.344c-.613.227-1.225.456-1.822.718s-1.191.532-1.781.817l-.886.424c-.3.137-.6.26-.9.38-.609.238-1.229.447-1.85.656s-1.251.388-1.866.611q-1.839.686-3.709,1.289c-.244.078-.083.688.165.641a42.24,42.24,0,0,0,4.23-1.1c1.4-.385,2.727-1.024,4.1-1.5,1.359-.513,2.8-.808,4.154-1.354,1.363-.518,2.683-1.13,4.05-1.629.7-.26,1.382-.557,2.07-.845l1.029-.438,1.022-.454c.681-.3,1.388-.551,2.08-.833s1.387-.56,2.064-.876,1.334-.674,2-1.015l1-.514.992-.524c.663-.347,1.343-.661,2.009-1l2-1.02c.662-.345,1.28-.771,1.906-1.181.313-.207.625-.413.942-.611s.628-.4.953-.588c.647-.371,1.346-.655,2.034-.961a19.413,19.413,0,0,0,2.018-1.005c.647-.382,1.255-.824,1.875-1.251s1.232-.863,1.852-1.284c1.243-.837,2.477-1.68,3.682-2.544,1.188-.851,2.342-1.74,3.5-2.6s2.262-1.781,3.455-2.566a32.236,32.236,0,0,1,3.73-2.021,20.425,20.425,0,0,1,3.855-1.558,23.782,23.782,0,0,1,4.45-.645,36.915,36.915,0,0,1,4.41.031,16.6,16.6,0,0,1,4.553.7,10.338,10.338,0,0,1,3.914,2.443C3657.767,907.62,3657.755,907.629,3657.662,907.534Z" transform="translate(-3577.453 -903.132)" fill="#1d1d1d"></path>
    </g>
  </g>
  <g id="Group_374" data-name="Group 374" transform="translate(164.082 57.364)">
    <path id="Path_76" data-name="Path 76" d="M3663.588,716.471a212.482,212.482,0,0,0,23.661,28.277c3.264,3.271,6.869,6.55,11.234,7.325,6.343,1.125,18.992-9.274,22.1-24.542.688-3.381,16.239-.709,16.239-.709s-7.273,30.705-20.781,41.384c-4.366,3.452-9.091,6.707-14.412,7.6-7.689,1.3-15.383-2.556-21.636-7.634s-11.588-11.432-17.968-16.316" transform="translate(-3662.023 -716.471)" fill="#df8319"></path>
  </g>
  <g id="Group_375" data-name="Group 375" transform="translate(31.004 57.364)">
    <path id="Path_77" data-name="Path 77" d="M3185.084,716.471a212.407,212.407,0,0,1-23.661,28.277c-3.264,3.271-6.869,6.55-11.234,7.325-6.344,1.125-18.993-9.274-22.1-24.542-.687-3.381-16.239-.709-16.239-.709s7.273,30.705,20.78,41.384c4.366,3.452,9.091,6.707,14.412,7.6,7.69,1.3,15.384-2.556,21.635-7.634s11.589-11.432,17.968-16.316" transform="translate(-3111.854 -716.471)" fill="#df8319"></path>
  </g>
  <g id="Group_377" data-name="Group 377" transform="translate(0 51.069)">
    <g id="Group_376" data-name="Group 376" transform="translate(0 0)">
      <path id="Path_78" data-name="Path 78" d="M3016.1,704.549c-1.5-.141-3.01-.194-4.517-.253s-3.01-.15-4.511-.295c-1.589-.153-3.2-.1-4.773-.306s-3.1-.722-4.674-1c-1.472-.257-2.965-.411-4.431-.694-.733-.141-1.468-.262-2.206-.372l-2.2-.32A4.449,4.449,0,0,1,2987,700.6l-.155-.127-.119-.123a1.011,1.011,0,0,1-.11-.2.8.8,0,0,1-.05-.378c.007-.031.006-.06.013-.089a.539.539,0,0,1,.162-.289,1.356,1.356,0,0,1,.468-.325,4.39,4.39,0,0,1,1.7-.209c.347.005.745.008,1.131,0l1.163-.032c.775-.026,1.551-.054,2.324-.04,1.548.028,3.1-.1,4.645-.084s3.095.087,4.642.089,3.1-.051,4.644-.058c.774,0,1.547-.042,2.321-.082l1.16-.055a7.117,7.117,0,0,0,1.521-.194,3.979,3.979,0,0,0,.933-.359,2.834,2.834,0,0,0,.979-.876,2.7,2.7,0,0,0,.389-2.162,2.907,2.907,0,0,0-.282-.684,3.228,3.228,0,0,0-.8-.926,3.947,3.947,0,0,0-.856-.531,4.217,4.217,0,0,0-1.851-.4c-.055,0-.135,0-.168,0l-.125.009c-.086.006-.162.014-.239.023-.154.016-.3.037-.43.056l-.687.1c-.041.006-.109.014-.12.017.01.006,0,.013-.01.018a.266.266,0,0,1-.059.028.254.254,0,0,1-.147.007.193.193,0,0,1-.147-.181.238.238,0,0,1,.1-.192l.022-.015.011-.006.023-.019a.515.515,0,0,1,.088-.071.447.447,0,0,1,.17-.08c.024-.01.048,0,.065-.006l.128-.031c.092-.016.181-.035.286-.044.2-.024.44-.037.719-.047a17.108,17.108,0,0,1,1.793.06c.688.045,1.365.087,2.026.155a26.224,26.224,0,0,1,3.78.742c.6.151,1.185.3,1.756.49l.424.152.414.174a5.76,5.76,0,0,1,.756.417,7.364,7.364,0,0,1,2.275,2.574,4.739,4.739,0,0,1,.691,3.136c-.028.2.581.374.647.141a4.336,4.336,0,0,0,.1-2.071,6.809,6.809,0,0,0-.739-2.011,6.463,6.463,0,0,0-1.354-1.687,10.593,10.593,0,0,0-1.747-1.262,14.121,14.121,0,0,0-4.053-1.722c-1.466-.327-2.973-.455-4.478-.676a14.566,14.566,0,0,0-2.286-.208,4.882,4.882,0,0,0-1.091.13,3.179,3.179,0,0,0-.973.414,2.505,2.505,0,0,0-.587.584,2.467,2.467,0,0,0-.372.746,1.855,1.855,0,0,0-.056.865,1.416,1.416,0,0,0,.427.776,1.717,1.717,0,0,0,.861.421,11.214,11.214,0,0,0,2.344-.034,2.72,2.72,0,0,1,1.108.238,2.118,2.118,0,0,1,.482.29,1.275,1.275,0,0,1,.353.409.855.855,0,0,1-.084.949,1.415,1.415,0,0,1-.9.443,4.851,4.851,0,0,1-1.106.033l-1.17-.059c-1.554-.07-3.122.11-4.676.021s-3.083-.525-4.637-.614-3.115-.048-4.669-.122-3.11-.156-4.666-.2l-1.152-.02c-.384,0-.763-.008-1.193.005a6.609,6.609,0,0,0-2.918.66,4.2,4.2,0,0,0-.852.6,3.876,3.876,0,0,0-.367.379c-.057.068-.115.136-.167.211a2.876,2.876,0,0,0-.176.258,3.4,3.4,0,0,0-.516,2.276,3.322,3.322,0,0,0,.658,1.542,2.464,2.464,0,0,0,.278.318,3.155,3.155,0,0,0,.314.284c.11.085.225.176.338.247l.317.187a6.6,6.6,0,0,0,1.414.542,10.277,10.277,0,0,0,1.341.259c.216.029.45.049.647.065l.573.045c.382.03.765.057,1.148.078,1.531.086,3.066.085,4.593.257,1.675.188,3.358.374,5.043.534s3.372.258,5.06.267c1.781.008,3.552-.226,5.327-.25s3.563-.033,5.343.055C3016.258,704.548,3016.255,704.563,3016.1,704.549Z" transform="translate(-2983.677 -690.446)" fill="#1d1d1d"></path>
    </g>
  </g>
  <g id="Group_378" data-name="Group 378" transform="translate(128.698 7.353)">
    <path id="Path_79" data-name="Path 79" d="M3516.546,518.613c-.868,2.171.61,4.661,2.565,5.943s4.317,1.756,6.472,2.664,4.287,2.521,4.668,4.828c.475,2.876-1.895,5.392-2.62,8.216-1.28,4.982,2.679,9.887,2.6,15.029-.067,4.361-3.01,8.189-3.628,12.506a11.963,11.963,0,0,0,21.763,8.38c1.981-2.94,2.556-6.582,2.96-10.1.435-3.784.58-8.066-1.974-10.892-1.594-1.763-4.052-2.7-5.279-4.732-1.884-3.125-.03-7.048.466-10.663.676-4.932-1.319-9.8-3.375-14.338a41.09,41.09,0,0,0-5.923-10.168c-2.577-2.976-6.146-5.294-10.075-5.548s-8.122,1.947-9.429,5.661" transform="translate(-3515.738 -509.716)" fill="#774220"></path>
  </g>
  <g id="Group_380" data-name="Group 380" transform="translate(116.068 48.981)">
    <g id="Group_379" data-name="Group 379">
      <path id="Path_80" data-name="Path 80" d="M3486.2,684.645c-.315.325-.6.676-.889,1.023a10.363,10.363,0,0,1-.934.989,14.234,14.234,0,0,1-1.032,1.013,3.762,3.762,0,0,1-.638.363,7.308,7.308,0,0,0-.666.317,12.226,12.226,0,0,1-1.188.63c-.2.09-.408.174-.611.258s-.4.178-.6.247c-.433.169-.922.172-1.335.309-.211.058-.417.131-.63.173s-.424.086-.635.115a4.9,4.9,0,0,0-.613.106c-.206.023-.412.047-.618.051a7.387,7.387,0,0,1-1.238-.058,8.271,8.271,0,0,1-1.2-.356,10.4,10.4,0,0,1-1.177-.466,11.048,11.048,0,0,1-1.152-.571c-.365-.234-.642-.587-.982-.853s-.763-.444-1.091-.745-.521-.737-.83-1.055c-.277-.286-.582-.551-.867-.836s-.525-.62-.817-.906-.64-.525-.937-.811-.547-.615-.843-.9-.6-.56-.893-.854c-.056-.057-.293.152-.25.217a12.271,12.271,0,0,0,.858,1.061c.289.349.652.635.958.97s.536.738.84,1.074.624.654.909,1.005.615.689.93,1.027.585.725.926,1.043.711.6,1.075.89.723.6,1.115.864a13.224,13.224,0,0,0,1.273.617,9.721,9.721,0,0,0,1.264.749,7.944,7.944,0,0,0,1.459.3,7.748,7.748,0,0,0,1.516.073c.249-.027.5-.063.746-.1s.485-.127.726-.193a9.061,9.061,0,0,0,1.346-.617c.223-.1.436-.217.655-.325l.326-.164q.157-.091.311-.187a6.935,6.935,0,0,0,.593-.413c.189-.146.392-.277.588-.412a15.394,15.394,0,0,0,1.285-.918c.2-.167.4-.338.588-.519s.36-.375.527-.573a6.769,6.769,0,0,0,.462-.676c.14-.234.276-.469.433-.687.309-.438.618-.877.96-1.286C3486.229,684.607,3486.234,684.612,3486.2,684.645Z" transform="translate(-3463.525 -681.816)" fill="#1d1d1d"></path>
    </g>
  </g>
  <g id="Group_382" data-name="Group 382" transform="translate(122.591 32.697)">
    <g id="Group_381" data-name="Group 381" transform="translate(0 0)">
      <path id="Path_81" data-name="Path 81" d="M3496.776,625.442a3.021,3.021,0,0,0-.759.28,7.671,7.671,0,0,1-.8.338c-.293.1-.543.3-.848.387a9.529,9.529,0,0,1-1,.077c-.151.024-.3.059-.443.093a2.361,2.361,0,0,1-.429.069,3.352,3.352,0,0,1-.564-.015.108.108,0,0,1-.078-.057.163.163,0,0,1-.018-.049.05.05,0,0,1,0-.014l.01-.031.02-.06c.055-.158.106-.27.117-.328a1.234,1.234,0,0,1,.039-.158c.008-.023.015-.042.023-.06s.008,0,.011-.04l.007-.116c.017-.3-.053-.6-.042-.9s-.046-.6-.035-.9.053-.6.066-.9-.007-.6.006-.9-.048-.6-.034-.9.153-.593.169-.891-.1-.6-.085-.9.222-.584.247-.882c.024-.266.008-.536.015-.8s.082-.53.081-.8-.069-.544-.071-.814.067-.532.071-.8,0-.541.012-.81c0-.052-.309-.1-.327-.051a5.025,5.025,0,0,0-.187.878c-.052.294-.013.6-.038.9s-.157.583-.184.88-.035.6-.093.89-.084.606-.13.909-.166.6-.207.906-.046.612-.09.917-.117.609-.169.915.023.615-.031.92-.285.606-.334.914-.037.617-.074.926-.08.619-.1.929c-.009.153-.012.306-.005.459l.015.319.025.413c.01.135.022.271.039.4l.066.361c.045.237.089.463.122.7l.022.182a.961.961,0,0,0,.171-.045l.348-.1c.226-.062.459-.128.7-.214l.18-.065.183-.082.365-.167.323-.15a2.155,2.155,0,0,1,.218-.081c.325-.1.649-.207.962-.323a4.384,4.384,0,0,0,.886-.439c.289-.188.52-.483.8-.671a3.343,3.343,0,0,1,.851-.453C3496.8,625.43,3496.8,625.438,3496.776,625.442Z" transform="translate(-3490.493 -614.493)" fill="#1d1d1d"></path>
    </g>
  </g>
  <g id="Group_384" data-name="Group 384" transform="translate(112.302 40.445)">
    <g id="Group_383" data-name="Group 383" transform="translate(0 0)">
      <path id="Path_82" data-name="Path 82" d="M3447.963,646.537a1.965,1.965,0,0,0,.281.4,1.682,1.682,0,0,1,.256.418c.069.162.221.268.264.445a3.765,3.765,0,0,1-.041.633c.006.183.056.339.049.526a3.074,3.074,0,0,0,.037.521c.023.179-.076.422-.023.579s.1.316.148.476.172.268.224.418.166.271.221.421.076.313.134.46.137.284.191.432.179.267.233.416-.008.342.047.489.236.248.288.4-.066.357-.021.507a4.157,4.157,0,0,0,.18.384c.055.13.053.278.12.4s.2.235.27.363.077.273.137.4.146.256.2.389a.674.674,0,0,0,.323-.073,1.557,1.557,0,0,0-.052-.481c-.021-.16-.146-.292-.194-.444s0-.332-.048-.484a2.435,2.435,0,0,1-.131-.461c-.019-.166-.071-.321-.1-.485s.009-.351-.026-.514-.1-.316-.132-.48-.029-.344-.055-.514-.162-.293-.178-.466.12-.415.1-.591-.108-.322-.139-.494a3.963,3.963,0,0,0-.115-.51,2.267,2.267,0,0,0-.213-.456c-.085-.145-.22-.261-.312-.4s-.136-.308-.216-.455a2.342,2.342,0,0,1-.25-.436,5.037,5.037,0,0,0-.18-.544,1.281,1.281,0,0,0-.3-.466c-.146-.137-.386-.2-.544-.324a2.12,2.12,0,0,1-.43-.4C3447.949,646.526,3447.956,646.522,3447.963,646.537Z" transform="translate(-3447.954 -646.527)" fill="#1d1d1d"></path>
    </g>
  </g>
  <g id="Group_386" data-name="Group 386" transform="translate(111.582 52.162)">
    <g id="Group_385" data-name="Group 385" transform="translate(0 0)">
      <path id="Path_83" data-name="Path 83" d="M3444.989,703.169a1.812,1.812,0,0,0,.4-.234,2.528,2.528,0,0,1,.4-.237c.157-.066.252-.214.414-.276s.441.009.632-.038.325-.129.519-.169a2.288,2.288,0,0,0,.512-.206c.178-.082.451-.09.59-.22s.29-.248.42-.386.186-.317.308-.454.164-.328.272-.476a5.384,5.384,0,0,0,.325-.447,4.514,4.514,0,0,0,.24-.5c.078-.167.1-.357.166-.527s.25-.3.316-.472-.022-.395.032-.568.269-.31.314-.492a2.692,2.692,0,0,0,.049-.5c.01-.167.08-.325.077-.494s-.1-.344-.114-.509.029-.327,0-.492-.076-.327-.1-.489a.605.605,0,0,0-.331.006,1.827,1.827,0,0,0-.069.517c-.011.17.043.346.039.52a3.648,3.648,0,0,1-.145.5,2.072,2.072,0,0,1-.093.5c-.072.164-.11.334-.171.5s-.218.3-.286.457a3.765,3.765,0,0,1-.209.47,2.985,2.985,0,0,1-.316.42c-.109.135-.1.323-.221.452s-.4.164-.524.28-.2.257-.321.372l-.182.167c-.064.053-.126.107-.184.163a3.123,3.123,0,0,0-.292.365c-.094.123-.143.283-.23.414a3.651,3.651,0,0,1-.347.318,1.252,1.252,0,0,1-.338.32c-.159.081-.314.161-.471.236a1.33,1.33,0,0,0-.394.31c-.118.133-.164.371-.283.518a1.9,1.9,0,0,1-.407.377C3444.977,703.181,3444.974,703.174,3444.989,703.169Z" transform="translate(-3444.979 -694.965)" fill="#1d1d1d"></path>
    </g>
  </g>
  <g id="Group_388" data-name="Group 388" transform="translate(140.633 52.732)">
    <g id="Group_387" data-name="Group 387" transform="translate(0 0)">
      <path id="Path_84" data-name="Path 84" d="M3570.889,703.952a1.632,1.632,0,0,0-.41-.172,1.256,1.256,0,0,1-.392-.206c-.127-.1-.3-.1-.406-.23a2.935,2.935,0,0,1-.223-.547c-.076-.15-.176-.255-.24-.413a2.9,2.9,0,0,0-.215-.416c-.082-.136-.079-.386-.173-.492s-.187-.211-.272-.326-.227-.144-.316-.246-.219-.155-.309-.256-.149-.23-.239-.329-.194-.181-.277-.285-.226-.153-.308-.259-.069-.289-.15-.391-.266-.127-.346-.236-.007-.32-.075-.43-.167-.171-.236-.266-.1-.217-.179-.3-.225-.143-.31-.233-.114-.21-.188-.306-.173-.183-.243-.285a.785.785,0,0,0-.3.129,1.174,1.174,0,0,0,.116.4c.041.135.186.217.254.336s.051.287.126.4a1.98,1.98,0,0,1,.208.361c.05.137.13.255.19.388s.067.3.135.436.165.24.236.37.11.289.179.425.225.194.288.337.01.4.082.55a4.578,4.578,0,0,0,.278.373,2.669,2.669,0,0,0,.27.394,1.716,1.716,0,0,0,.346.3c.126.087.286.125.416.2s.233.2.358.287a2.234,2.234,0,0,1,.384.249,3.382,3.382,0,0,0,.377.37,1.042,1.042,0,0,0,.456.234,5.189,5.189,0,0,0,.588-.022,1.8,1.8,0,0,1,.529.09C3570.905,703.954,3570.9,703.961,3570.889,703.952Z" transform="translate(-3565.077 -697.324)" fill="#1d1d1d"></path>
    </g>
  </g>
  <g id="Group_390" data-name="Group 390" transform="translate(111.187 61.118)">
    <g id="Group_389" data-name="Group 389" transform="translate(0)">
      <path id="Path_85" data-name="Path 85" d="M3476.5,743.27c-.261.216-.5.455-.761.668l-.392.319-.2.16-.206.146a8.068,8.068,0,0,1-.844.551l-.439.245c-.15.075-.3.141-.457.209a11.6,11.6,0,0,1-1.963.777,6.265,6.265,0,0,1-1.04.123c-.352,0-.7.009-1.039.021a14.276,14.276,0,0,1-1.913.015c-.316-.03-.629-.046-.942-.084l-.468-.043c-.156-.017-.311-.041-.466-.061s-.329-.051-.492-.09l-.484-.132c-.322-.081-.637-.189-.96-.241s-.644-.135-.965-.2c-.319-.082-.637-.162-.953-.251-.613-.178-1.25-.283-1.855-.5-.3-.1-.611-.2-.916-.3s-.612-.2-.91-.324c-.6-.245-1.173-.54-1.759-.81s-1.179-.536-1.758-.831-1.187-.536-1.761-.849-1.085-.74-1.655-1.061-1.206-.523-1.755-.86-.986-.831-1.482-1.2c-.446-.333-.9-.65-1.3-1.014a9.871,9.871,0,0,1-1.06-1.205,7.955,7.955,0,0,1-.936-1.292,5.916,5.916,0,0,1-.485-1.5,4.763,4.763,0,0,1-.112-1.551c.009-.1-.3-.16-.326-.055a4.393,4.393,0,0,0-.021,1.86,6.145,6.145,0,0,0,.679,1.752,8.942,8.942,0,0,0,.962,1.632,16.6,16.6,0,0,0,1.345,1.36,15.06,15.06,0,0,0,1.553,1.224c.539.383,1.054.813,1.62,1.165s1.151.672,1.72,1.018,1.123.719,1.695,1.065,1.207.571,1.783.905,1.083.807,1.683,1.114,1.235.544,1.859.806,1.257.515,1.907.725c.32.107.649.185.976.271s.663.141.995.206a19.246,19.246,0,0,0,2.028.194c.339.019.676.059,1.015.074l.51.031c.17.005.34,0,.51,0,.341,0,.68-.028,1.02-.058s.678-.067,1.02-.082c.376-.014.75-.07,1.128-.106.374-.062.752-.114,1.125-.2a9.125,9.125,0,0,0,1.105-.312c.181-.065.363-.126.539-.2s.35-.16.523-.244c.091-.045.181-.089.27-.138l.258-.162c.17-.11.338-.223.5-.336l.478-.371.24-.181.233-.19.469-.373.448-.4c.308-.255.574-.557.87-.825C3476.552,743.219,3476.557,743.225,3476.5,743.27Z" transform="translate(-3443.344 -731.991)" fill="#1d1d1d"></path>
    </g>
  </g>
  <g id="Group_392" data-name="Group 392" transform="translate(41.041 93.09)">
    <g id="Group_391" data-name="Group 391">
      <path id="Path_86" data-name="Path 86" d="M3217.516,864.246q-.7.713-1.375,1.444l-1.38,1.44c-.928.95-1.874,1.883-2.865,2.767l-1.549,1.433-.777.711c-.263.232-.532.455-.8.675-.544.437-1.106.842-1.685,1.225s-1.147.776-1.721,1.171l-1.595,1.141c-.537.375-1.073.747-1.616,1.1s-1.094.7-1.636,1.06-1.095.7-1.641,1.058c-.581.381-1.2.706-1.8,1.046s-1.212.67-1.8,1.04l-.883.552-.893.534-.893.534-.9.517c-1.164.675-2.314,1.4-3.493,2.04a28.606,28.606,0,0,1-3.572,1.709,12.8,12.8,0,0,1-1.858.528c-.311.073-.624.109-.936.159-.312.028-.623.068-.933.07-.311.022-.618,0-.926-.008a8.484,8.484,0,0,1-1.8-.335l-.434-.157c-.072-.027-.145-.051-.216-.081l-.211-.1a13.075,13.075,0,0,1-3.2-2.079c-.99-.871-1.837-1.916-2.813-2.878-.486-.481-1.014-.936-1.556-1.377s-1.1-.857-1.648-1.285c-1.088-.854-2.113-1.785-3.233-2.563-1-.695-2.025-1.34-3-2.028s-1.893-1.454-2.779-2.21a20.922,20.922,0,0,1-2.524-2.416,14.838,14.838,0,0,1-1.864-2.915,10.433,10.433,0,0,1-1.019-3.25.166.166,0,1,0-.33.027l.04.487c.013.162.051.322.077.484a8.871,8.871,0,0,0,.224.958,12.118,12.118,0,0,0,.725,1.837,14.67,14.67,0,0,0,2.269,3.228,23.892,23.892,0,0,0,2.794,2.823c1.032.843,2.127,1.605,3.2,2.4,1.1.809,2.244,1.574,3.346,2.393a38.941,38.941,0,0,1,3.139,2.658c1.008.928,1.964,1.91,2.927,2.885a25.556,25.556,0,0,0,3.051,2.776,10,10,0,0,0,3.815,1.646c.34.088.685.13,1.031.194.347.039.7.089,1.048.1a8.4,8.4,0,0,0,2.112-.141,12.988,12.988,0,0,0,2.038-.584c.664-.239,1.308-.516,1.943-.8,1.277-.562,2.493-1.214,3.694-1.873.6-.32,1.178-.672,1.761-1.018s1.159-.706,1.73-1.071,1.137-.738,1.69-1.13l1.666-1.164c1.114-.77,2.243-1.516,3.342-2.309l1.62-1.223c.533-.417,1.068-.832,1.616-1.229.6-.438,1.189-.894,1.786-1.343s1.173-.925,1.758-1.391c1.159-.945,2.281-1.934,3.349-2.974.568-.545,1.091-1.129,1.622-1.7s1.035-1.171,1.573-1.739l3.174-3.48C3217.606,864.142,3217.611,864.149,3217.516,864.246Z" transform="translate(-3153.35 -864.17)" fill="#1d1d1d"></path>
    </g>
  </g>
  <g id="Group_394" data-name="Group 394" transform="translate(102.124 86.588)">
    <g id="Group_393" data-name="Group 393" transform="translate(0 0)">
      <path id="Path_87" data-name="Path 87" d="M3426.912,848.458c-.426,0-.848.047-1.271.077a8.92,8.92,0,0,1-1.271.005,13.2,13.2,0,0,1-1.343-.044,11.315,11.315,0,0,1-1.3-.444c-.4-.119-.813-.2-1.208-.343s-.789-.26-1.182-.387c-.42-.134-.808-.4-1.225-.515s-.832-.232-1.243-.359-.82-.169-1.218-.3-.809-.2-1.2-.343-.763-.323-1.139-.485-.76-.3-1.124-.486-.752-.312-1.1-.518-.613-.536-.934-.766a11.056,11.056,0,0,1-1.007-.645,8.679,8.679,0,0,1-.685-.971c-.226-.263-.461-.518-.672-.794s-.344-.6-.518-.9a8.511,8.511,0,0,1-.551-.887,6.654,6.654,0,0,1-.289-1,5.386,5.386,0,0,1-.2-1.022c-.007-.067-.323-.068-.331,0a4.147,4.147,0,0,0,.066,1.222,5.6,5.6,0,0,0,.407,1.156c.068.192.138.383.2.582a3.5,3.5,0,0,0,.24.57c.2.365.449.691.663,1.046a8.714,8.714,0,0,0,.781,1.007,10.024,10.024,0,0,0,.849.977c.322.291.676.541,1.024.8s.69.535,1.055.78.8.356,1.174.579.694.589,1.093.786.822.325,1.23.493.82.331,1.239.469a11.174,11.174,0,0,0,1.267.315c.427.086.865.105,1.295.164s.851.172,1.281.234.865.068,1.293.155c.47.092.946.176,1.425.236a7.285,7.285,0,0,0,1.441.04c.507-.04,1-.213,1.5-.29s.995-.163,1.495-.207C3426.955,848.45,3426.955,848.458,3426.912,848.458Z" transform="translate(-3405.877 -837.288)" fill="#1d1d1d"></path>
    </g>
  </g>
  <g id="Group_396" data-name="Group 396" transform="translate(142.904 95.515)">
    <g id="Group_395" data-name="Group 395" transform="translate(0)">
      <path id="Path_88" data-name="Path 88" d="M3598.263,874.206a11.49,11.49,0,0,0-1.107.382,10.244,10.244,0,0,1-1.117.359c-.4.1-.775.3-1.186.372s-.862-.009-1.283.023c-.394.031-.775.109-1.171.12s-.78.059-1.166.1c-.413.042-.854-.053-1.253.019s-.8.132-1.2.184-.762.189-1.15.242-.765.166-1.154.2-.779.04-1.165.073-.771.077-1.158.09-.771.091-1.158.089a3.528,3.528,0,0,1-.578-.071,3.534,3.534,0,0,0-.573-.089,4.245,4.245,0,0,0-.579.029,2.4,2.4,0,0,1-.581.014c-.385-.04-.738-.275-1.111-.337-.333-.068-.677-.082-1.01-.151-.167-.032-.331-.078-.494-.124a4.319,4.319,0,0,0-.49-.137c-.332-.066-.683-.083-1.016-.167s-.637-.244-.957-.363-.647-.225-.963-.362c-.061-.027-.214.249-.16.289a5.637,5.637,0,0,0,1.019.569c.087.044.177.082.268.117s.187.057.281.084c.189.05.375.109.561.165a4.353,4.353,0,0,1,.539.226,4.369,4.369,0,0,0,.549.207c.187.057.379.094.569.138s.378.095.567.145.387.1.583.145.394.074.591.116c.394.073.781.229,1.184.276s.806.065,1.21.11.809.106,1.217.133.811-.073,1.219-.046.828.208,1.242.208.82-.07,1.232-.09.825-.047,1.234-.1a10.412,10.412,0,0,0,1.193-.239c.394-.1.769-.258,1.156-.372s.788-.174,1.175-.285.76-.263,1.158-.335c.435-.084.872-.17,1.3-.275a7.1,7.1,0,0,0,1.254-.419c.425-.189.8-.494,1.215-.7a11.745,11.745,0,0,1,1.267-.565C3598.3,874.189,3598.3,874.2,3598.263,874.206Z" transform="translate(-3574.467 -874.195)" fill="#1d1d1d"></path>
    </g>
  </g>
  <g id="Group_397" data-name="Group 397" transform="translate(21.587 179.279)">
    <path id="Path_89" data-name="Path 89" d="M3073.02,1242.367c-.729,5.508,2.754,10.857,7.26,14.107s9.943,4.872,15.164,6.771q.641.233,1.279.472c7.126,2.673,13.615,6.263,20.38,9.672,3.724,1.876,5.879.831,7.535-2.849,1.859-4.132,2.861-8.577,5.965-12.051,2.369-2.651,5.445-4.8,8.156-7.085.916-.773,8.163-7.8,8.848-7.468l-43.425-21c-2.649-1.281-5.443-2.593-8.381-2.436-5.238.28-9.029,5-11.72,9.5s-5.407,9.575-10.288,11.5" transform="translate(-3072.923 -1220.49)" fill="#e0e0e0"></path>
  </g>
  <g id="Group_398" data-name="Group 398" transform="translate(69.634 198.407)">
    <path id="Path_90" data-name="Path 90" d="M3271.558,1333.825a188.968,188.968,0,0,0,23.907-21.476c2.222-2.367,4.544-5.412,3.668-8.537l-25.913-4.241" transform="translate(-3271.558 -1299.571)" fill="#e0e0e0"></path>
  </g>
  <g id="Group_400" data-name="Group 400" transform="translate(22.521 200.324)">
    <g id="Group_399" data-name="Group 399" transform="translate(0)">
      <path id="Path_91" data-name="Path 91" d="M3123.492,1331.825c-.7-.452-1.441-.827-2.179-1.207s-1.464-.78-2.165-1.232c-.741-.477-1.581-.777-2.3-1.286s-1.271-1.3-1.959-1.876c-.645-.536-1.345-.983-1.978-1.542s-1.312-1.033-1.988-1.525a25.451,25.451,0,0,0-2.084-1.718l-2.291-1.337c-.745-.429-1.574-.694-2.326-1.106s-1.578-.679-2.339-1.074-1.5-.835-2.27-1.216-1.562-.708-2.339-1.072-1.609-.605-2.389-.96-1.458-.939-2.241-1.291-1.682-.438-2.466-.786-1.43-1.011-2.217-1.356c-.7-.307-1.441-.539-2.162-.8s-1.4-.648-2.125-.893-1.514-.34-2.247-.572-1.42-.581-2.156-.808-1.479-.419-2.206-.665c-.142-.048-.376.538-.249.613a21.084,21.084,0,0,0,2.308,1.06c.772.339,1.613.514,2.4.82s1.5.8,2.275,1.129,1.578.6,2.326,1c.767.4,1.562.741,2.336,1.124s1.479.921,2.252,1.306,1.565.726,2.329,1.13,1.495.873,2.24,1.313,1.6.646,2.333,1.1,1.3,1.223,2.034,1.681,1.516.807,2.25,1.255,1.463.906,2.207,1.333,1.5.781,2.26,1.148,1.574.625,2.342.976,1.475.824,2.225,1.21a22.757,22.757,0,0,1,2.244,1.17c.776.514,1.558,1.027,2.347,1.526a17.891,17.891,0,0,0,2.461,1.3c.9.388,1.907.552,2.82.914a25.985,25.985,0,0,1,2.687,1.21C3123.572,1331.858,3123.563,1331.871,3123.492,1331.825Z" transform="translate(-3076.784 -1307.496)" fill="#1d1d1d"></path>
    </g>
  </g>
  <g id="Group_673" data-name="Group 673" transform="translate(47.942 180.835)">
    <g id="Group_399-2" data-name="Group 399" transform="translate(0)">
      <path id="Path_91-2" data-name="Path 91" d="M3123.492,1331.825c-.7-.452-1.441-.827-2.179-1.207s-1.464-.78-2.165-1.232c-.741-.477-1.581-.777-2.3-1.286s-1.271-1.3-1.959-1.876c-.645-.536-1.345-.983-1.978-1.542s-1.312-1.033-1.988-1.525a25.451,25.451,0,0,0-2.084-1.718l-2.291-1.337c-.745-.429-1.574-.694-2.326-1.106s-1.578-.679-2.339-1.074-1.5-.835-2.27-1.216-1.562-.708-2.339-1.072-1.609-.605-2.389-.96-1.458-.939-2.241-1.291-1.682-.438-2.466-.786-1.43-1.011-2.217-1.356c-.7-.307-1.441-.539-2.162-.8s-1.4-.648-2.125-.893-1.514-.34-2.247-.572-1.42-.581-2.156-.808-1.479-.419-2.206-.665c-.142-.048-.376.538-.249.613a21.084,21.084,0,0,0,2.308,1.06c.772.339,1.613.514,2.4.82s1.5.8,2.275,1.129,1.578.6,2.326,1c.767.4,1.562.741,2.336,1.124s1.479.921,2.252,1.306,1.565.726,2.329,1.13,1.495.873,2.24,1.313,1.6.646,2.333,1.1,1.3,1.223,2.034,1.681,1.516.807,2.25,1.255,1.463.906,2.207,1.333,1.5.781,2.26,1.148,1.574.625,2.342.976,1.475.824,2.225,1.21a22.757,22.757,0,0,1,2.244,1.17c.776.514,1.558,1.027,2.347,1.526a17.891,17.891,0,0,0,2.461,1.3c.9.388,1.907.552,2.82.914a25.985,25.985,0,0,1,2.687,1.21C3123.572,1331.858,3123.563,1331.871,3123.492,1331.825Z" transform="translate(-3076.784 -1307.496)" fill="#1d1d1d"></path>
    </g>
  </g>
  <g id="Group_402" data-name="Group 402" transform="translate(66.626 203.181)">
    <g id="Group_401" data-name="Group 401" transform="translate(0 0)">
      <path id="Path_92" data-name="Path 92" d="M3287.233,1319.335a10.6,10.6,0,0,0-1.291.959,10.1,10.1,0,0,1-1.314.924c-.494.287-.867.736-1.388.982a16.938,16.938,0,0,1-1.8.419c-.53.177-1,.438-1.545.593a12.478,12.478,0,0,0-1.54.595,13.131,13.131,0,0,0-1.712.547c-.483.3-.976.588-1.463.882s-.836.72-1.3,1.02-.834.721-1.288,1.032-.945.575-1.392.895-.861.684-1.3,1.011-.8.766-1.236,1.1-1.031.464-1.468.8-.7.889-1.14,1.222-1.089.388-1.529.719c-.394.3-.733.663-1.1.988s-.815.558-1.169.9-.615.807-.963,1.159-.776.605-1.127.954-.676.729-1.039,1.064c-.071.065.315.564.4.525a8.8,8.8,0,0,0,1.365-.9c.447-.308.776-.77,1.2-1.115s.966-.527,1.393-.861a12.807,12.807,0,0,1,1.3-.982c.481-.286.919-.627,1.387-.929s1.031-.479,1.5-.783.9-.653,1.374-.947.993-.526,1.486-.795.833-.736,1.335-.989,1.208-.225,1.711-.477.927-.61,1.42-.874.991-.523,1.466-.813a13.363,13.363,0,0,0,1.325-.963c.427-.339.781-.771,1.2-1.123s.91-.605,1.347-.93a10.446,10.446,0,0,1,1.312-.975c.537-.282,1.075-.568,1.6-.874a7.127,7.127,0,0,0,1.435-1.087c.452-.449.749-1.085,1.179-1.557a10.965,10.965,0,0,1,1.374-1.323C3287.271,1319.294,3287.28,1319.307,3287.233,1319.335Z" transform="translate(-3259.121 -1319.308)" fill="#1d1d1d"></path>
    </g>
  </g>
  <g id="Group_674" data-name="Group 674" transform="translate(22.562 181.15)">
    <g id="Group_401-2" data-name="Group 401" transform="translate(0 0)">
      <path id="Path_92-2" data-name="Path 92" d="M3287.233,1319.335a10.6,10.6,0,0,0-1.291.959,10.1,10.1,0,0,1-1.314.924c-.494.287-.867.736-1.388.982a16.938,16.938,0,0,1-1.8.419c-.53.177-1,.438-1.545.593a12.478,12.478,0,0,0-1.54.595,13.131,13.131,0,0,0-1.712.547c-.483.3-.976.588-1.463.882s-.836.72-1.3,1.02-.834.721-1.288,1.032-.945.575-1.392.895-.861.684-1.3,1.011-.8.766-1.236,1.1-1.031.464-1.468.8-.7.889-1.14,1.222-1.089.388-1.529.719c-.394.3-.733.663-1.1.988s-.815.558-1.169.9-.615.807-.963,1.159-.776.605-1.127.954-.676.729-1.039,1.064c-.071.065.315.564.4.525a8.8,8.8,0,0,0,1.365-.9c.447-.308.776-.77,1.2-1.115s.966-.527,1.393-.861a12.807,12.807,0,0,1,1.3-.982c.481-.286.919-.627,1.387-.929s1.031-.479,1.5-.783.9-.653,1.374-.947.993-.526,1.486-.795.833-.736,1.335-.989,1.208-.225,1.711-.477.927-.61,1.42-.874.991-.523,1.466-.813a13.363,13.363,0,0,0,1.325-.963c.427-.339.781-.771,1.2-1.123s.91-.605,1.347-.93a10.446,10.446,0,0,1,1.312-.975c.537-.282,1.075-.568,1.6-.874a7.127,7.127,0,0,0,1.435-1.087c.452-.449.749-1.085,1.179-1.557a10.965,10.965,0,0,1,1.374-1.323C3287.271,1319.294,3287.28,1319.307,3287.233,1319.335Z" transform="translate(-3259.121 -1319.308)" fill="#1d1d1d"></path>
    </g>
  </g>
  <g id="Group_404" data-name="Group 404" transform="translate(65.873 221.487)">
    <g id="Group_403" data-name="Group 403" transform="translate(0)">
      <path id="Path_93" data-name="Path 93" d="M3256.966,1407.268a1.37,1.37,0,0,0-.033-.576,1.339,1.339,0,0,1,.009-.58c.052-.21-.1-.4,0-.613s.522-.462.7-.684.221-.408.41-.619a3.1,3.1,0,0,0,.406-.617c.122-.218.509-.464.544-.672s.086-.418.128-.627-.1-.386-.077-.587-.1-.385-.094-.585.079-.406.078-.6-.058-.39-.068-.587-.161-.378-.177-.575.219-.422.2-.618-.315-.36-.333-.557.313-.433.3-.63a2.632,2.632,0,0,0-.166-.513c-.051-.172.017-.358-.057-.526s-.3-.319-.384-.487-.042-.35-.123-.518-.2-.33-.263-.5a2.162,2.162,0,0,0-.658.075,1.21,1.21,0,0,0-.057.595c-.008.2.176.371.213.563s-.13.407-.106.6a1.651,1.651,0,0,1,.048.581,6.01,6.01,0,0,0-.047.606c-.025.2-.208.424-.229.627s.01.4-.025.6a5.154,5.154,0,0,1-.213.624c-.066.207.116.387.032.6s-.514.453-.6.662-.04.4-.111.611a4.74,4.74,0,0,0-.186.619,1.756,1.756,0,0,0,.016.589c.029.193.174.373.219.565a3.476,3.476,0,0,1-.023.592c.011.2.107.381.033.585a6.43,6.43,0,0,0-.213.674.944.944,0,0,0,.053.643c.1.216.448.4.582.613a1.594,1.594,0,0,1,.28.652C3256.976,1407.287,3256.961,1407.289,3256.966,1407.268Z" transform="translate(-3256.008 -1394.984)" fill="#1d1d1d"></path>
    </g>
  </g>
  <g id="Group_405" data-name="Group 405" transform="translate(157.158 195.534)">
    <path id="Path_94" data-name="Path 94" d="M3649.238,1288.9a9.576,9.576,0,0,0-9.727.252,13.237,13.237,0,0,0-5.7,8.185,11.6,11.6,0,0,0,.479,7.627c1.587,3.412,5.216,5.487,8.894,6.286,5.361,1.164,11.681-.366,14.618-5a11.021,11.021,0,0,0-.135-11.558,12.266,12.266,0,0,0-10.334-5.455" transform="translate(-3633.397 -1287.69)" fill="#e0e0e0"></path>
  </g>
  <g id="Group_407" data-name="Group 407" transform="translate(158.908 197.515)">
    <g id="Group_406" data-name="Group 406" transform="translate(0)">
      <path id="Path_95" data-name="Path 95" d="M3640.642,1311.222c.2-.389.353-.788.562-1.141a3.008,3.008,0,0,1,.76-.9c.316-.238.495-.6.842-.761a7.719,7.719,0,0,1,1.283-.155c.36-.089.651-.255,1.029-.356a3.221,3.221,0,0,0,1.026-.511c.171-.12.4-.22.613-.34a1.444,1.444,0,0,0,.529-.459,11.409,11.409,0,0,0,.583-1.119,10.781,10.781,0,0,0,.236-1.074c.116-.33.075-.67.177-.961s.264-.54.37-.778a3.016,3.016,0,0,0,.144-.368c.048-.123.106-.244.167-.362a2.437,2.437,0,0,0,.147-.38,1.175,1.175,0,0,1,.171-.381.893.893,0,0,1,.351-.264,1.247,1.247,0,0,0,.363-.246,1.036,1.036,0,0,0,.177-.41,1.055,1.055,0,0,1,.208-.41c.219-.208.673-.155.9-.341.2-.173.365-.4.555-.6s.473-.294.671-.5.311-.542.51-.761.48-.33.7-.541.408-.459.636-.657a1.291,1.291,0,0,0-.356-.558,3.226,3.226,0,0,0-.9.439c-.293.157-.477.477-.737.676s-.638.236-.9.432a5.9,5.9,0,0,1-.783.592,2.882,2.882,0,0,0-.425.274l-.406.3a2.869,2.869,0,0,1-.468.242,2.334,2.334,0,0,0-.459.267c-.259.227-.477.492-.727.735-.132.117-.265.235-.406.351a3.746,3.746,0,0,0-.41.369c-.263.264-.272.663-.515.944a2.063,2.063,0,0,1-.508.391,1.6,1.6,0,0,0-.486.438c-.206.336-.263.7-.426,1.023s-.327.63-.455.92a6.5,6.5,0,0,0-.271.813c-.074.251-.053.521-.145.738a1.021,1.021,0,0,1-.211.285c-.1.087-.181.17-.275.267a2.076,2.076,0,0,1-.592.6c-.308.157-.634.318-.965.521a2.828,2.828,0,0,0-.881.836,7.672,7.672,0,0,0-.508,1.429c-.18.479-.323.971-.479,1.46C3640.635,1311.266,3640.621,1311.262,3640.642,1311.222Z" transform="translate(-3640.631 -1295.882)" fill="#1d1d1d"></path>
    </g>
  </g>
  <g id="Group_409" data-name="Group 409" transform="translate(167.277 202.246)">
    <g id="Group_408" data-name="Group 408" transform="translate(0 0)">
      <path id="Path_96" data-name="Path 96" d="M3675.238,1331.416a4.413,4.413,0,0,0,.377-.965,3.519,3.519,0,0,1,.441-.936c.2-.309.223-.7.488-.977a7.4,7.4,0,0,1,1.136-.65c.313-.218.532-.479.863-.676a6.867,6.867,0,0,0,.874-.637,2.454,2.454,0,0,1,.542-.285,1.315,1.315,0,0,0,.5-.3c.225-.261.45-.52.692-.765s.3-.584.521-.834.324-.573.538-.824.489-.454.7-.7.38-.531.6-.774.314-.586.536-.829.629-.319.845-.56.244-.66.471-.9.713-.217.948-.437c.214-.2.354-.468.552-.681s.469-.349.645-.586.269-.573.449-.814.444-.384.64-.607.361-.489.569-.7c.041-.042-.338-.547-.4-.53a3.351,3.351,0,0,0-.864.518c-.286.177-.428.53-.675.751s-.624.3-.866.528a5.556,5.556,0,0,1-.747.667c-.291.19-.535.432-.813.639s-.655.322-.926.543-.493.487-.764.71-.606.393-.89.612-.385.586-.685.793-.863.214-1.163.435-.479.532-.761.77l-.42.362c-.134.126-.264.255-.386.39a4.708,4.708,0,0,0-.609.875c-.174.31-.247.678-.405.994s-.406.583-.585.89a5.628,5.628,0,0,1-.51.933,9.843,9.843,0,0,0-.762.941,2.807,2.807,0,0,0-.488,1.076c-.08.417.062.91.022,1.33a4.724,4.724,0,0,1-.217,1.223C3675.234,1331.452,3675.22,1331.447,3675.238,1331.416Z" transform="translate(-3675.229 -1315.441)" fill="#1d1d1d"></path>
    </g>
  </g>
  <g id="Group_410" data-name="Group 410" transform="translate(87.372 0)">
    <path id="Path_97" data-name="Path 97" d="M3391.922,493.625c-2.923,10.928-14.95,18.562-26.083,16.553,2.61,2.874,5.255,5.8,6.948,9.294s2.332,7.7.8,11.262c-1.774,4.121-6.212,7.012-6.79,11.462-.508,3.908,2.2,7.592,2.193,11.533-.013,5.2-5.267,9.461-10.469,9.291s-9.82-4.01-11.936-8.765-2.043-10.24-.913-15.321,3.25-9.875,5.156-14.718a183.992,183.992,0,0,0,5.935-17.665c1.581-5.638,2.923-11.428,5.776-16.542s7.54-9.573,13.317-10.533,12.413,2.613,13.439,8.378" transform="translate(-3344.888 -479.319)" fill="#774220"></path>
  </g>
  <g id="Group_412" data-name="Group 412" transform="translate(256.036 208.67)">
    <g id="Group_411" data-name="Group 411">
      <path id="Path_98" data-name="Path 98" d="M4042.179,1342" transform="translate(-4042.179 -1341.999)" fill="none" stroke="#eff3fa" stroke-miterlimit="10" stroke-width="1"></path>
    </g>
  </g>
  <g id="Group_414" data-name="Group 414" transform="translate(193.391 196.102)">
    <g id="Group_413" data-name="Group 413" transform="translate(0 0)">
      <path id="Path_99" data-name="Path 99" d="M3800.151,1290.121c2.263,1.128,4.562,2.175,6.863,3.21s4.589,2.084,6.871,3.146c.6.281,1.213.551,1.825.817l1.848.763c1.23.514,2.466,1,3.672,1.545s2.38,1.128,3.551,1.737,2.362,1.169,3.579,1.708c1.148.478,2.317.923,3.485,1.373,1.178.415,2.351.852,3.52,1.286q.88.313,1.768.613c.593.2,1.184.407,1.787.573l1.807.521.907.259.915.229c.652.162,1.3.339,1.946.524.035.01.1.026.107.032l.057.022.115.046.223.084c.14.053.263.105.37.154.215.1.364.181.485.249a1.383,1.383,0,0,0,.37.134l.253.053.057.013c.021,0-.015.007-.029.011l-.055.013-.216.05c-.644.151-1.151.305-1.515.428l-.092.032-.043.018-.012,0,0,0-.054.027-.905.47c-.585.346-1.183.672-1.747,1.054-1.151.725-2.237,1.545-3.316,2.365a29.312,29.312,0,0,0-3.023,2.727l-.693.748-.345.375-.331.388-.662.774-.639.793c-.843,1.053-1.606,2.085-2.4,3.046a20.486,20.486,0,0,1-2.462,2.58l-.324.257-.161.129-.165.111-.329.226-.333.189a6.012,6.012,0,0,1-.672.321c-.113.047-.228.07-.341.109a1.769,1.769,0,0,1-.342.091l-.345.063a2.482,2.482,0,0,1-.351.025,3.36,3.36,0,0,1-.7-.01,6.493,6.493,0,0,1-1.5-.386c-.524-.194-1.072-.439-1.646-.7l-1.755-.809q-1.764-.8-3.5-1.67c-2.3-1.171-4.469-2.592-6.741-3.812s-4.664-2.231-6.906-3.515-4.288-2.89-6.488-4.234c-1.975-1.2-3.983-2.345-5.944-3.556q-.737-.456-1.464-.927l-1.446-.957-.723-.479-.194-.132a3.749,3.749,0,0,0-.323-.192c-.044-.021-.029-.021-.033-.028l0-.021a.293.293,0,0,1,0-.06.334.334,0,0,0,0-.037l0-.02.124-.151c.177-.217.365-.423.547-.636a32.966,32.966,0,0,1,2.319-2.439,47.529,47.529,0,0,1,5.318-4.167,44.845,44.845,0,0,1,5.778-3.511.331.331,0,0,0-.271-.6,39.164,39.164,0,0,0-6.656,3.69,33.635,33.635,0,0,0-3.021,2.313c-.96.83-1.889,1.693-2.809,2.565-.452.443-.922.867-1.371,1.314-.226.222-.458.438-.682.663l-.286.284-.254.249c-.172.168-.34.349-.515.529l-.263.275-.033.035c0,.01.021.018.031.028l.076.054.152.109c.408.291.837.589,1.276.879l1.56,1.007,1.618,1.031,1.615,1.032q.808.514,1.607,1.041c2.186,1.437,4.426,2.8,6.661,4.16s4.4,2.841,6.67,4.145,4.584,2.542,6.883,3.8,4.566,2.557,6.881,3.786c.578.3,1.159.6,1.753.882a17.779,17.779,0,0,0,1.851.771,8.791,8.791,0,0,0,2.006.452,8.049,8.049,0,0,0,2.081-.108,10.141,10.141,0,0,0,3.765-1.711,16.8,16.8,0,0,0,2.971-2.764c.866-1.014,1.638-2.082,2.438-3.057a26.441,26.441,0,0,1,2.555-2.762,34.819,34.819,0,0,1,2.889-2.39,37.147,37.147,0,0,1,3.127-2.048c.261-.163.532-.306.8-.455s.533-.3.809-.441l.915-.466c.138-.074.269-.129.4-.194l.422-.18.847-.36.848-.361.211-.09a1.729,1.729,0,0,1,.229-.088l.521-.166,2.083-.664.26-.083c.082-.027.2-.058.3-.086l.616-.175,1.23-.349,2.461-.7,3.687-1.046-1.075-.155-.133-.019-.192-.019-.383-.038-.767-.075-3.032-.293c-1-.1-1.98-.182-2.954-.3l-2.878-.348-1.765-.226c-.582-.08-1.185-.147-1.735-.246l-1.109-.225-.929-.195c-1.242-.241-2.465-.578-3.7-.859-.308-.073-.618-.138-.925-.215l-.92-.237-1.842-.471c-1.226-.327-2.437-.71-3.641-1.109l-1.967-.719c-.656-.242-1.315-.471-1.965-.734-1.3-.513-2.615-1.005-3.91-1.548l-1.951-.784-1.949-.8c-1.3-.512-2.6-1.053-3.911-1.554-1.379-.539-2.77-1.036-4.162-1.53s-2.782-1-4.152-1.567c-2.742-1.118-5.494-2.3-8.2-3.558C3799.91,1290.018,3799.92,1290.006,3800.151,1290.121Z" transform="translate(-3783.191 -1290.04)" fill="#1d1d1d"></path>
    </g>
  </g>
  <g id="Group_415" data-name="Group 415" transform="translate(206.966 196.94)">
    <path id="Path_100" data-name="Path 100" d="M3839.312,1301.494l15.071,37.177q14.95-5.48,29.377-12.265l-15.031-28.958c-.733-1.411-1.563-2.919-3.009-3.581-1.586-.727-3.438-.225-5.1.3q-10.743,3.415-21.137,7.824" transform="translate(-3839.312 -1293.503)" fill="#fff"></path>
  </g>
  <g id="Group_417" data-name="Group 417" transform="translate(206.679 195.198)">
    <g id="Group_416" data-name="Group 416" transform="translate(0 0)">
      <path id="Path_101" data-name="Path 101" d="M3838.282,1295.391c2.037-.788,4.049-1.63,6.076-2.44s4.073-1.56,6.146-2.233c2.194-.711,4.347-1.59,6.562-2.186q.831-.223,1.671-.391c.558-.113,1.121-.222,1.706-.307a8.65,8.65,0,0,1,3.564.084,4.129,4.129,0,0,1,1.477.762,5.293,5.293,0,0,1,1.077,1.211,16.042,16.042,0,0,1,1.387,2.885c.793,1.987,1.666,3.942,2.533,5.908.924,2.1,1.6,4.295,2.6,6.359l2.993,6.2c.97,2.007,2.109,3.94,3.094,5.939.246.5.5,1,.761,1.49l.392.739.2.369.05.092.014.024.022.036c.06.1.125.2.186.311a1.953,1.953,0,0,1-.318.151l-.042.016-.021.008-.061.026-.381.167-.764.331-1.532.651-3.064,1.3c-2.037.88-4.062,1.788-6.112,2.636s-4.055,1.811-6.12,2.626-4.225,1.376-6.3,2.156q-.4.15-.8.313l-.4.164-.1.042-.049.021c-.01,0-.006,0-.01.006l-.023.019c-.064.052-.151.122-.269.2a.479.479,0,0,1-.155-.145l-.021-.029c0-.005,0,0-.007-.014l-.021-.046-.042-.093-.164-.37c-.107-.248-.212-.5-.313-.746-.833-2.067-1.34-4.265-2.169-6.335-.744-1.854-1.571-3.673-2.347-5.507s-1.448-3.726-2.247-5.552-1.735-3.586-2.543-5.408-1.5-3.7-2.307-5.521-1.644-3.624-2.433-5.457a.334.334,0,0,0-.619.236c.7,2.08,1.568,4.121,2.368,6.173s1.776,4.027,2.617,6.064,1.491,4.147,2.32,6.185,1.7,4.06,2.461,6.12c.781,2.11,1.628,4.2,2.429,6.3.4,1.04.755,2.093,1.115,3.146s.709,2.08,1.122,3.163l.071-.024c2.154-.743,4.248-1.545,6.369-2.3s4.252-1.463,6.367-2.235,4.132-1.794,6.229-2.581,4.292-1.264,6.38-2.092q.783-.309,1.557-.644l.774-.335.426-.188.623-.283,1.254-.569.632-.286.317-.143.04-.018.021-.009c.009,0,.012-.006.005-.014l-.038-.076-.076-.152-1.222-2.467-1.472-3.139q-.715-1.521-1.445-3.035c-.965-1.989-1.988-3.957-3.012-5.915s-2.152-3.863-3.19-5.814-1.965-3.958-2.973-5.924c-.5-.982-1.026-1.955-1.54-2.933a28.709,28.709,0,0,0-1.757-3.114,6.552,6.552,0,0,0-1.685-1.687,5.622,5.622,0,0,0-2.411-.894,7.627,7.627,0,0,0-1.2-.054,10.117,10.117,0,0,0-1.115.11,17.243,17.243,0,0,0-1.99.449c-2.381.671-4.7,1.431-6.992,2.308-2.412.93-4.694,2.108-7.047,3.137s-4.713,2.085-7.09,3.089C3838.076,1295.486,3838.074,1295.471,3838.282,1295.391Z" transform="translate(-3838.127 -1286.302)" fill="#1d1d1d"></path>
    </g>
  </g>
  <g id="Group_419" data-name="Group 419" transform="translate(223.278 221.574)">
    <g id="Group_418" data-name="Group 418" transform="translate(0)">
      <path id="Path_102" data-name="Path 102" d="M3906.764,1400.863a4.745,4.745,0,0,0,.709-.6,2.618,2.618,0,0,1,.771-.512c.3-.131.506-.413.843-.482a5.066,5.066,0,0,1,1.184.21,5.834,5.834,0,0,1,.955.071,7.2,7.2,0,0,0,.914.143c.315.046.691.354.958.344a3.852,3.852,0,0,1,.4,0c.135,0,.268.006.4.017.256.011.485-.142.74-.131s.484-.112.762-.091.573.1.9.1a7.646,7.646,0,0,0,1.047-.129,2.162,2.162,0,0,0,.558-.186c.186-.084.356-.186.542-.25.355-.137.809-.081,1.128-.266a1.264,1.264,0,0,0,.372-.4,1.466,1.466,0,0,1,.327-.393c.259-.183.719-.089.955-.262a5.028,5.028,0,0,0,.521-.534,1.139,1.139,0,0,1,.279-.19,1.04,1.04,0,0,0,.255-.182c.137-.156.193-.422.329-.563a.645.645,0,0,1,.222-.132.61.61,0,0,0,.216-.1,2.351,2.351,0,0,0,.2-.152,1.5,1.5,0,0,1,.222-.11,2.1,2.1,0,0,0-.006-.662.762.762,0,0,0-.364-.071c-.122.018-.243.033-.367.055-.253.044-.427.29-.641.418s-.54.106-.767.263a4.253,4.253,0,0,1-.681.478c-.27.122-.5.3-.763.444s-.623.15-.887.275a5.123,5.123,0,0,1-.791.362,2.927,2.927,0,0,1-.865.044c-.269-.015-.508.188-.8.114s-.581-.514-.868-.608a8.071,8.071,0,0,0-.921-.122l-.5-.09c-.167-.021-.334-.037-.5-.043a3.483,3.483,0,0,0-.964.141,7.831,7.831,0,0,0-.893.4,2.214,2.214,0,0,1-.467.121,4.132,4.132,0,0,0-.472.117,5.116,5.116,0,0,1-.9.359,6.82,6.82,0,0,0-1.088.25,2.249,2.249,0,0,0-.933.568,1.94,1.94,0,0,0-.319.53,3.27,3.27,0,0,1-.272.554c-.105.163-.211.322-.325.47a2.787,2.787,0,0,1-.359.422C3906.746,1400.891,3906.736,1400.88,3906.764,1400.863Z" transform="translate(-3906.747 -1395.344)" fill="#1d1d1d"></path>
    </g>
  </g>
  <g id="Group_421" data-name="Group 421" transform="translate(221.442 215.512)">
    <g id="Group_420" data-name="Group 420">
      <path id="Path_103" data-name="Path 103" d="M3914.391,1372.214a3.131,3.131,0,0,0-.7.346,1.94,1.94,0,0,1-.733.257c-.277.037-.489.249-.785.221s-.671-.385-.96-.512a4.971,4.971,0,0,1-.777-.314,5.8,5.8,0,0,0-.722-.363,1.68,1.68,0,0,1-.369-.3.844.844,0,0,0-.344-.253,6.115,6.115,0,0,1-.636-.188c-.2-.066-.409.043-.607-.022s-.409.018-.619-.049-.411-.194-.637-.257-.469-.074-.716-.131-.526.029-.792-.014-.522-.327-.822-.349-.608.257-.913.27c-.323.017-.712-.283-1.062-.208a3.41,3.41,0,0,0-.855.394,3.871,3.871,0,0,0-.855.444,4.422,4.422,0,0,0-.567.877,4.073,4.073,0,0,0-.572.85,4.245,4.245,0,0,0-.186,1.034c-.009.068.611.19.646.147.193-.256.27-.527.441-.76.171-.216.227-.535.431-.746s.542-.211.766-.337a1.748,1.748,0,0,1,.721-.3,7.134,7.134,0,0,1,.787-.075c.267,0,.527.2.763.243a4.557,4.557,0,0,1,.712.13,4.3,4.3,0,0,1,.665.373c.216.125.479.01.7.159s.365.64.594.79a6.745,6.745,0,0,0,.744.293,4.656,4.656,0,0,0,.8.323,2.58,2.58,0,0,0,.821.065,6.683,6.683,0,0,0,.806-.2c.266-.05.546.022.817-.011a3.438,3.438,0,0,1,.807-.122,5.719,5.719,0,0,0,.954.042,1.679,1.679,0,0,0,.879-.286,1.559,1.559,0,0,0,.35-.409,2.516,2.516,0,0,1,.314-.439c.114-.12.228-.237.347-.341a1.994,1.994,0,0,1,.372-.281C3914.41,1372.193,3914.417,1372.207,3914.391,1372.214Z" transform="translate(-3899.161 -1370.286)" fill="#1d1d1d"></path>
    </g>
  </g>
</svg>
