<?xml version="1.0" encoding="utf-8"?>
<!-- Generator: Adobe Illustrator 23.0.3, SVG Export Plug-In . SVG Version: 6.00 Build 0)  -->
<svg version="1.1" id="Layer_1" xmlns="http://www.w3.org/2000/svg" xmlns:xlink="http://www.w3.org/1999/xlink" x="0px" y="0px"
	 viewBox="0 0 1300 690" style="enable-background:new 0 0 1300 690;" xml:space="preserve">
<style type="text/css">
	.st0{clip-path:url(#SVGID_2_);}
	.st1{fill:#DF8319;}
	.st2{fill:#FC5549;}
	.st3{fill:#DDDEDA;}
	.st4{fill:#161049;}
</style>
<g>
	<defs>
		<rect id="SVGID_1_" width="1300" height="690"/>
	</defs>
	<clipPath id="SVGID_2_">
		<use xlink:href="#SVGID_1_"  style="overflow:visible;"/>
	</clipPath>
	<g class="st0">
		<rect x="639" y="-9.1" class="st1" width="662" height="316.1"/>
		<rect x="-7" y="-9.1" class="st2" width="676.2" height="496.6"/>
		<path class="st3" d="M977,691H383.7c-6.7-74.3-38.2-141.5-86-193.3c-9.6-10.4-19.8-20.1-30.6-29.1V233c4.9-3.5,9.6-7.2,14.2-11.1
			c5.7-4.8,11.2-9.9,16.4-15.3c2.6-2.7,5.2-5.4,7.7-8.2L751,198l104,104c-3.2,22.2-4.9,44.9-4.9,68c0,83.2,21.7,161.3,59.6,229.1
			C928.4,632.5,951.1,663.3,977,691z"/>
		<path class="st1" d="M753.7,691H267V221.7c4.8,0,9.5,0.1,14.2,0.2c5.5,0.2,11,0.4,16.4,0.7c221.8,13.8,403.5,176,446.7,388.6
			C749.5,637.1,752.7,663.8,753.7,691z"/>
		<path class="st4" d="M383.7,691H267V468.6c10.8,9,21,18.8,30.6,29.1C345.5,549.5,376.9,616.7,383.7,691z"/>
		<path class="st3" d="M0.4,240.8L-1,241v-1.1C-0.5,240.2-0.1,240.5,0.4,240.8z"/>
		<path class="st2" d="M1301-1v600.1h-148.9L860,307l-5-5c10.1-69.4,35.3-133.9,72.3-190v0c28.4-43.2,63.8-81.3,104.6-113H1301z"/>
		<path class="st4" d="M1301-9.1v200c-48.1-21.3-91.5-50.3-129-85.2l0,0c-33.6-31.3-62.4-67.3-85.5-106.8c-1.6-2.7-3.1-5.4-4.6-8.1
			H1301z"/>
		<path class="st4" d="M1152.1,599.1H909.8c-38-67.8-59.6-145.9-59.6-229.1c0-23.1,1.7-45.8,4.9-68L1152.1,599.1z"/>
		<path class="st3" d="M267,468.6V691H-1V396.9c18.5-3.2,37.6-4.9,57-4.9C136.3,392,209.9,420.8,267,468.6z"/>
		<path class="st3" d="M1301,599.1V691H977c-26-27.7-48.6-58.5-67.3-91.9H1301z"/>
		<path class="st2" d="M977,691H698c0-25.4,10.3-48.4,26.9-65c5.7-5.7,12.2-10.7,19.3-14.8c13.4-7.7,29-12.1,45.6-12.1h119.8
			C928.4,632.5,951.1,663.3,977,691z"/>
		<path class="st4" d="M361.5-1H267H-1v240.9c0.5,0.3,0.9,0.6,1.4,0.9C37.2,264.3,81,278,128,278c51.9,0,99.9-16.7,139-45
			c14-10.1,26.8-21.8,38.3-34.6c37.3-41.9,59.9-97.1,59.9-157.6C365.2,26.5,364,12.6,361.5-1z"/>
	</g>
</g>
</svg>
