<?xml version="1.0" encoding="UTF-8"?>
<svg xmlns="http://www.w3.org/2000/svg" width="330.338" height="247.406" viewBox="0 0 330.338 247.406">
  <g id="Group_672" data-name="Group 672" transform="translate(-313.738 -473.844)">
    <path id="Path_299" data-name="Path 299" d="M498.692,923.091c-.126-22.315-5.136-44.519-14.129-62.618-1.532-3.084-3.292-6.178-5.731-7.565s-5.705-.394-6.813,3.051c-1.059,3.29.182,7.109,1.475,10.217,6.474,15.566,15.246,30.667,15.582,48.843a72.013,72.013,0,0,0,.317,9.3c.457,3.039,1.744,6.06,3.783,7.014,1.956.915,4.3-.5,5.23-3.162s.336-6.242-1.326-8" transform="translate(-115.56 -282.16)" fill="#e0e0e0"></path>
    <path id="Path_300" data-name="Path 300" d="M638.724,774.614c-4.289-12.937-8.624-26.135-8.736-39.765-.106-12.9,3.577-25.483,5.844-38.183,2.881-16.143,3.647-33.168,11.521-47.552,3.265,1.458,3.571,5.919,3.211,9.476-1.667,16.456-6.878,32.316-10.413,48.474s-5.349,33.289-.286,49.035c1.074,3.34,2.456,6.618,2.9,10.1s-.22,7.318-2.711,9.789l-2.756-2.751" transform="translate(-233.629 -130.673)" fill="#e0e0e0"></path>
    <path id="Path_301" data-name="Path 301" d="M534.141,850.132c6.679-14.3,10.826-30.026,10.009-45.784s-6.92-31.533-18.356-42.405c-1.142-1.086-2.645-2.2-4.151-1.733a3.249,3.249,0,0,0-1.874,3.646,10.289,10.289,0,0,0,1.94,3.985c15.81,23.661,17.362,56.107,3.883,81.169-1.256,2.335-2.614,5.292-1.058,7.439,1.376,1.9,4.4,1.831,6.327.487s3.007-3.56,4.012-5.679" transform="translate(-151.425 -213.419)" fill="#e0e0e0"></path>
    <path id="Path_302" data-name="Path 302" d="M850.515,576.574A39.884,39.884,0,0,0,862.536,602.9c2.449,2.36,5.382,4.709,5.917,8.067.178,1.119.067,2.275.306,3.383a2.918,2.918,0,0,0,2.093,2.418c1.272.207,2.366-.848,3.222-1.811l22.278-25.073c3.987-4.487,8.1-9.2,9.63-15.009,2.359-8.952-1.911-18.173-6.065-26.446-3.313-6.6-6.749-13.36-12.236-18.3s-13.57-7.72-20.417-4.957c-5,2.017-8.526,6.582-11.059,11.341A52.806,52.806,0,0,0,851.3,572.3" transform="translate(-397.736 -37.452)" fill="#a37a52"></path>
    <path id="Path_303" data-name="Path 303" d="M923.952,686.015l-13.676,11.109a15.168,15.168,0,0,1-5.678,3.367c-3.832.94-7.828-1.281-10.391-4.281s-4.095-6.721-6.1-10.118" transform="translate(-426.069 -158.184)" fill="none" stroke="#000" stroke-miterlimit="10" stroke-width="2"></path>
    <path id="Path_304" data-name="Path 304" d="M834.637,487.932a27.37,27.37,0,0,1-15.8,16.724,7.23,7.23,0,0,0-2.822,1.555c-1.723,1.87-.68,4.83.211,7.211,1.109,2.962,1.836,6.27.811,9.262-1.062,3.1-3.5,4.778-.956,12.412.287.861-5.642,4.059-6.107,4.835-3.255,5.433-4.27,5.19-2.009,11.122l-22.1,5.052a16.767,16.767,0,0,0,3.451-12.4c-.375-2.923-1.528-5.751-1.471-8.7.1-5.078,3.737-9.383,7.651-12.62,2.05-1.7,4.322-3.347,5.363-5.795,1.294-3.043.371-6.517-.434-9.725-1.024-4.084-1.812-8.485-.336-12.428,1.373-3.667,4.5-6.375,7.728-8.6s6.707-4.164,9.37-7.034c1.76-1.9,3.345-4.3,5.872-4.854,2.3-.5,4.611.742,6.485,2.167a16.106,16.106,0,0,1,4.646,5.128,8.573,8.573,0,0,1,.722,6.74" transform="translate(-349.84)"></path>
    <path id="Path_305" data-name="Path 305" d="M968.9,509.982a13.413,13.413,0,0,0,7.061,12.758c1.356.7,2.832,1.154,4.14,1.936a5.2,5.2,0,0,1,2.694,3.505c.518,3.714-4.7,6.073-4.847,9.82-.144,3.645,4.508,5.922,4.876,9.551.23,2.266-1.28,4.29-2.054,6.432-1.287,3.563-.521,7.5.259,11.209.346,1.643.782,3.434,2.131,4.435,1.721,1.277,4.253.761,6.1,1.852,1.369.81,2.107,2.35,3.205,3.5s3.1,1.849,4.2.7c-3.612-4.647-4.031-11.062-3.126-16.877s2.744-11.445,3.779-17.239a60.107,60.107,0,0,0-7.738-41.318,7.778,7.778,0,0,0-3.484-3.189,11.876,11.876,0,0,0-16.81,7.526" transform="translate(-486.273 -16.373)"></path>
    <path id="Path_306" data-name="Path 306" d="M1011.838,750.193a266.857,266.857,0,0,1,83.335,46.607,45.641,45.641,0,0,1-20.095,4.924c-23.44.25-43.557-17.213-66.737-20.7" transform="translate(-515.711 -206.032)" fill="#fc5549"></path>
    <path id="Path_307" data-name="Path 307" d="M1127.077,718.36a84.754,84.754,0,0,0-6.644,35.281c.091,3.258.305,6.774-1.486,9.5-1.238,1.881-3.309,3.146-4.332,5.152a7.913,7.913,0,0,0,0,6.429c2.228,5.606,8.671,8.628,14.7,8.575s11.744-2.577,17.143-5.267c3.606-1.8,7.253-3.758,9.883-6.809,3.872-4.492,5-10.68,5.686-16.571.887-7.61,1.273-15.425-.649-22.841s-6.448-14.458-13.3-17.89-16.1-2.425-21.031,3.439" transform="translate(-594.432 -177.519)" fill="#fff"></path>
    <path id="Path_308" data-name="Path 308" d="M363.1,1105.226a18.4,18.4,0,0,1-15.53,8.792l9.335-8.013-40.288,1.726c3.923-3.311,9.174-4.546,14.267-5.195s21.707-.973,26.287-4.535" transform="translate(0 -465.339)" fill="#a37a52"></path>
    <path id="Path_309" data-name="Path 309" d="M363.1,1103.409a18.4,18.4,0,0,1-15.53,8.792l9.335-8.013-40.288,1.726c3.923-3.311,9.174-4.546,14.267-5.195s20.593-2.356,26.445-5.155" transform="translate(0 -463.523)" fill="none" stroke="#000" stroke-miterlimit="10" stroke-width="2"></path>
    <path id="Path_310" data-name="Path 310" d="M639.456,759.794c-1.618,15.263-5.24,92.207-7.965,92.037-11.576-.726-69.008-5.511-69.008-5.511s5.318-26.572,2.773-52.271c-28.244,18.32-29.821,13.212-52.821,37.756-2.674,2.854-5.363,5.935-9.007,7.351s-8.573.446-10.145-3.136c-1.649-3.757,1.047-7.893,3.592-11.113,12.8-16.2,25.5-32.566,40.408-46.913,9.069-8.727,12.935-13.783,24.157-19.821,3.314-1.783,7.592-5.969,11.2-6.87a75.306,75.306,0,0,1,15.521-2.544h0c3.92,8.413,11.61,22.771,16.285,30.789,7.735-4.31,15.757-19.67,21.119-26.717,1.177-1.548,2.309-3.14,3.488-4.688C635.145,749.433,640.275,752.073,639.456,759.794Z" transform="translate(-131.334 -204.5)" fill="#fc5549"></path>
    <path id="Path_311" data-name="Path 311" d="M869.479,937.462a958.314,958.314,0,0,0-79.333,62.421c-2.094,1.834-4.292,3.86-4.912,6.574s1.265,6.131,4.042,5.943l82.156-44.885" transform="translate(-349.286 -345.65)" fill="#e0e0e0"></path>
    <path id="Path_312" data-name="Path 312" d="M879.313,1125.912a10.946,10.946,0,0,0-13.591-8.732c.637.127.569,1.181,0,1.5a2.633,2.633,0,0,1-1.9-.007,22.319,22.319,0,0,0-9.837-.148c-2.083.44-4.349,1.418-5.04,3.432-.763,2.224.855,4.662,2.914,5.8s4.475,1.367,6.759,1.925a23.464,23.464,0,0,1,8.17,3.778,9.694,9.694,0,0,0,3.926,2.158,5.446,5.446,0,0,0,5.068-2.6,16.02,16.02,0,0,0,2.02-5.622" transform="translate(-396.733 -479.374)" fill="none" stroke="#000" stroke-miterlimit="10" stroke-width="2"></path>
    <path id="Path_313" data-name="Path 313" d="M879.313,1125.912a10.946,10.946,0,0,0-13.591-8.732c.637.127.569,1.181,0,1.5a2.633,2.633,0,0,1-1.9-.007,22.319,22.319,0,0,0-9.837-.148c-2.083.44-4.349,1.418-5.04,3.432-.763,2.224.855,4.662,2.914,5.8s4.475,1.367,6.759,1.925a23.464,23.464,0,0,1,8.17,3.778,9.694,9.694,0,0,0,3.926,2.158,5.446,5.446,0,0,0,5.068-2.6,16.02,16.02,0,0,0,2.02-5.622" transform="translate(-396.733 -479.374)" fill="#fff"></path>
    <path id="Path_314" data-name="Path 314" d="M879.313,1125.912a10.946,10.946,0,0,0-13.591-8.732c.637.127.569,1.181,0,1.5a2.633,2.633,0,0,1-1.9-.007,22.319,22.319,0,0,0-9.837-.148c-2.083.44-4.349,1.418-5.04,3.432-.763,2.224.855,4.662,2.914,5.8s4.475,1.367,6.759,1.925a23.464,23.464,0,0,1,8.17,3.778,9.694,9.694,0,0,0,3.926,2.158,5.446,5.446,0,0,0,5.068-2.6,16.02,16.02,0,0,0,2.02-5.622" transform="translate(-396.733 -479.374)" fill="none" stroke="#000" stroke-miterlimit="10" stroke-width="2"></path>
    <path id="Path_315" data-name="Path 315" d="M1029.791,1005.9a116.057,116.057,0,0,1,17.793-59.265l16.591-17.333c2.565-.78,5.42.379,7.295,2.3a17.917,17.917,0,0,1,3.792,7.013c4.427,13.2,4.243,27.535,2.309,41.322-1.7,12.137-5.019,24.652-13.368,33.623a37.086,37.086,0,0,1-26,11.666c-9.081.2-17.86-2.952-26.394-6.063-9.746-3.553-46.191-20.508-46.191-20.508l4.071-11.2s38-1.214,61.384,7.373" transform="translate(-483.861 -339.385)" fill="#e0e0e0"></path>
    <path id="Path_316" data-name="Path 316" d="M1088.041,934.649a118.38,118.38,0,0,0-.949,64.447,86.994,86.994,0,0,0,36.467,4.591c6.648-.589,13.71-2.211,18.188-7.16,3.729-4.121,5.021-9.831,6.178-15.267l9.741-45.769c.42-1.972.761-4.275-.568-5.791a5.634,5.634,0,0,0-3.8-1.533c-6.389-.61-12.658,2.023-18.153,5.34s-10.559,7.378-16.364,10.118-12.713,4.042-18.62,1.533-9.983-9.76-7.4-15.636l-4.5,4.39" transform="translate(-571.435 -338.655)" fill="#e0e0e0"></path>
    <path id="Path_317" data-name="Path 317" d="M1272.931,1036.444a339.741,339.741,0,0,0-11.988,45.361" transform="translate(-704.038 -419.446)" fill="none" stroke="#000" stroke-miterlimit="10" stroke-width="2"></path>
    <path id="Path_318" data-name="Path 318" d="M1097.941,1165.734c-17.354-5.773-38.071-5.957-56.32-7.17" transform="translate(-540.523 -510.492)" fill="none" stroke="#000" stroke-miterlimit="10" stroke-width="2"></path>
    <path id="Path_319" data-name="Path 319" d="M1273.268,885.252a6.4,6.4,0,0,0,2.642,12.315" transform="translate(-710.273 -306.725)" fill="none" stroke="#000" stroke-miterlimit="10" stroke-width="1"></path>
    <path id="Path_320" data-name="Path 320" d="M1211.536,682.9a9.236,9.236,0,0,0,5.3,9.355c2.633,1.155,6.059,1.231,7.619,3.646,1.668,2.583.015,5.914-.451,8.953-.6,3.936.911,7.84,1.986,11.673a109.181,109.181,0,0,1,2.726,14.924,24.213,24.213,0,0,1,.149,8.393c-.77,3.516-3.115,6.821-2.565,10.378.532,3.436,3.933,6.02,7.408,6.131a10.634,10.634,0,0,0,8.774-4.8,17.122,17.122,0,0,0,2.677-9.912c-.043-3.96-1.029-7.973-.15-11.835.866-3.808,3.491-7.735,1.843-11.275-.723-1.552-2.161-2.657-3.019-4.139-1.861-3.217-.6-7.259.63-10.764s2.343-7.64.27-10.725c-1.253-1.864-3.49-2.984-4.438-5.02a14.532,14.532,0,0,1-.786-4.3,13.931,13.931,0,0,0-27.729,1.268" transform="translate(-667.154 -147.356)" fill="#e0e0e0"></path>
    <path id="Path_321" data-name="Path 321" d="M1117.474,686.27a6.54,6.54,0,0,1-4.908,4.73c-2.4.5-5.38-.234-6.981,1.626a5.992,5.992,0,0,0-1.075,3.314q-1.43,12.49-2.047,25.055c-.16,3.255,2.565,8.188,3.328,10.732,1.519,5.063-12.148,6.471-16.792,8.995a3.908,3.908,0,0,1-2.376.686,3.208,3.208,0,0,1-2.186-2.107c-1.1-2.551-.866-5.475-.281-8.19a65.635,65.635,0,0,0,1.741-8.136,68.964,68.964,0,0,0-.292-8.142c-.09-2.717.209-5.576,1.722-7.833,1.221-1.822,3.135-3.1,4.314-4.952,1.893-2.97,1.559-6.8.967-10.273s-1.36-7.126-.158-10.437c1.58-4.352,6.11-6.862,10.48-8.391,2.971-1.04,6.28-1.8,9.22-.674a10.023,10.023,0,0,1,5.376,5.616,22.527,22.527,0,0,1,1.439,7.817" transform="translate(-571.869 -147.522)" fill="#e0e0e0"></path>
    <path id="Path_322" data-name="Path 322" d="M1158.41,882.811c1.192,3.751,4.017,6.722,6.754,9.55,1.459,1.508,3.154,3.122,5.253,3.147a8.037,8.037,0,0,0,4.007-1.463l13.624-7.99" transform="translate(-627.595 -304.905)" fill="none" stroke="#000" stroke-miterlimit="10" stroke-width="1"></path>
    <path id="Path_323" data-name="Path 323" d="M1193.256,811.9a74.862,74.862,0,0,0-.565,15.15l5.968-.563" transform="translate(-653.038 -252.034)" fill="none" stroke="#000" stroke-miterlimit="10" stroke-width="1"></path>
    <path id="Path_324" data-name="Path 324" d="M1115.432,909.323a19.973,19.973,0,0,0,13.3-11.369" transform="translate(-595.553 -316.195)" fill="none" stroke="#000" stroke-miterlimit="10" stroke-width="2"></path>
    <path id="Path_325" data-name="Path 325" d="M1076.747,1043.617a7.8,7.8,0,0,0,.2,7.325,12.859,12.859,0,0,0,5.529,5.108,38.334,38.334,0,0,0,7.174,2.593" transform="translate(-566.098 -424.794)" fill="none" stroke="#000" stroke-miterlimit="10" stroke-width="2"></path>
    <path id="Path_326" data-name="Path 326" d="M1121.037,1334.214a57.017,57.017,0,0,0-4.246,19.117c-.1,2.181.05,4.655,1.7,6.09,1.25,1.091,3.032,1.271,4.689,1.343a70.884,70.884,0,0,0,8.185-.119,6.111,6.111,0,0,0,6.719-5.633,70.152,70.152,0,0,0,2.452-17.385,6.319,6.319,0,0,0-.949-4.127c-1.081-1.34-2.989-1.613-4.709-1.708a55.567,55.567,0,0,0-12.99.817c-1.586.289-3.292.728-4.28,2-.943,1.215-.99,2.877-1,4.415q-.043,9.795-.085,19.589" transform="translate(-596.365 -639.581)" fill="#e0e0e0"></path>
    <path id="Path_327" data-name="Path 327" d="M1122.626,1335.821a24.943,24.943,0,0,0,16.292,1.587,12.67,12.67,0,0,0,4.388-1.85c.4-.286.81-.813.522-1.211a.987.987,0,0,0-.565-.308,29.86,29.86,0,0,0-10.865-.95" transform="translate(-600.916 -640.505)" fill="none" stroke="#000" stroke-miterlimit="10" stroke-width="2"></path>
    <path id="Path_328" data-name="Path 328" d="M1192.184,1370.255a4.559,4.559,0,0,1,2.04-1.643,4.451,4.451,0,0,1,5,1.668,6.063,6.063,0,0,1,.639,5.422,9.672,9.672,0,0,1-3.4,4.437,24.693,24.693,0,0,1-4.948,2.747" transform="translate(-652.279 -666.914)" fill="none" stroke="#000" stroke-miterlimit="10" stroke-width="2"></path>
    <path id="Path_329" data-name="Path 329" d="M1356.005,923.133a46.774,46.774,0,0,0-.214,12.135,12.055,12.055,0,0,0,4.445-4.855,93.576,93.576,0,0,0,2.516,14.461,7.564,7.564,0,0,0,1.15,2.793,2.424,2.424,0,0,0,4.49-.867,8.051,8.051,0,0,0,.091-2.843l-.876-10.064a24.693,24.693,0,0,0-1.217-6.712,8.327,8.327,0,0,0-4.456-4.933" transform="translate(-774.532 -334.307)" fill="#a37a52"></path>
    <path id="Path_330" data-name="Path 330" d="M1356.005,923.133a46.774,46.774,0,0,0-.214,12.135,12.055,12.055,0,0,0,4.445-4.855,93.576,93.576,0,0,0,2.516,14.461,7.564,7.564,0,0,0,1.15,2.793,2.424,2.424,0,0,0,4.49-.867,8.051,8.051,0,0,0,.091-2.843l-.876-10.064a24.693,24.693,0,0,0-1.217-6.712,8.327,8.327,0,0,0-4.456-4.933" transform="translate(-774.532 -334.307)" fill="none" stroke="#000" stroke-miterlimit="10" stroke-width="2"></path>
    <path id="Path_331" data-name="Path 331" d="M1029.462,742.291l-1.133,1.488" transform="translate(-530.613 -200.141)" fill="none" stroke="#fff" stroke-miterlimit="10" stroke-width="1"></path>
    <path id="Path_332" data-name="Path 332" d="M1384.453,1209.784a321.057,321.057,0,0,0,55.706,7.078" transform="translate(-796.121 -548.679)" fill="none" stroke="#000" stroke-miterlimit="10" stroke-width="2"></path>
    <path id="Path_333" data-name="Path 333" d="M860.636,716.615A39.215,39.215,0,0,0,872.6,702.952" transform="translate(-405.59 -170.811)" fill="none" stroke="#000" stroke-miterlimit="10" stroke-width="2"></path>
    <path id="Path_334" data-name="Path 334" d="M942.982,620.853a113.143,113.143,0,0,0-.575,17.659,10.263,10.263,0,0,1,6.038-2.5" transform="translate(-466.467 -109.602)" fill="none" stroke="#000" stroke-miterlimit="10" stroke-width="2"></path>
    <path id="Path_335" data-name="Path 335" d="M861.3,753.368a55.147,55.147,0,0,0,15.36,26.094l-9.341,10.492a13.824,13.824,0,0,0-.52-8.7,83.817,83.817,0,0,0-3.749-8.038,54.1,54.1,0,0,1-5.214-24.405" transform="translate(-403.489 -204.999)" fill="none" stroke="#000" stroke-miterlimit="10" stroke-width="2"></path>
    <path id="Path_336" data-name="Path 336" d="M938.359,781.844a47.517,47.517,0,0,0,7.928,17.8,274.866,274.866,0,0,0,14.686-48.4l-22.955,29.979" transform="translate(-463.281 -206.815)" fill="none" stroke="#000" stroke-miterlimit="10" stroke-width="2"></path>
    <path id="Path_337" data-name="Path 337" d="M931.632,864.514c-4.319,12.219,1.324,26.063-2.051,38.576" transform="translate(-456.992 -291.264)" fill="none" stroke="#000" stroke-miterlimit="10" stroke-width="2"></path>
    <path id="Path_338" data-name="Path 338" d="M675,921.194a347.3,347.3,0,0,0,37.5-25" transform="translate(-267.188 -314.886)" fill="none" stroke="#000" stroke-miterlimit="10" stroke-width="2"></path>
    <path id="Path_339" data-name="Path 339" d="M1055.379,901.14a82.805,82.805,0,0,0,.1,19.9" transform="translate(-550.369 -318.57)" fill="none" stroke="#000" stroke-miterlimit="10" stroke-width="2"></path>
    <path id="Path_340" data-name="Path 340" d="M1037.27,1098.758l-1.119,10.8" transform="translate(-536.445 -465.904)" fill="none" stroke="#000" stroke-miterlimit="10" stroke-width="2"></path>
    <path id="Path_341" data-name="Path 341" d="M1116.591,952c-.638,4.337,2.184,8.7,6.076,10.724s8.59,1.987,12.821.843,8.1-3.312,11.926-5.458" transform="translate(-596.35 -356.49)" fill="none" stroke="#000" stroke-miterlimit="10" stroke-width="1"></path>
    <g id="Group_671" data-name="Group 671" transform="translate(358.978 609.904)">
      <path id="Path_342" data-name="Path 342" d="M484.354,1011.716l1.69,66.676c.05,1.98.16,4.107,1.631,5.688a12.152,12.152,0,0,0,4.88,2.621,721.014,721.014,0,0,0,90.543,25.623,171.593,171.593,0,0,1,7.38-71.256c1.389-4.312,2.7-9.508-1.1-12.728-2.164-1.834-5.421-2.446-8.482-2.972l-97.808-16.8" transform="translate(-483.086 -1008.564)" fill="#e0e0e0"></path>
      <path id="Path_343" data-name="Path 343" d="M854.732,1304.8l57.829-29.13-64.784-8.978" transform="translate(-754.982 -1201.012)" fill="#e0e0e0"></path>
      <path id="Path_344" data-name="Path 344" d="M677.123,1041.6l50.591,9.791a8.43,8.43,0,0,1,4.007,1.525c2.428,2.087,1.732,5.935.923,9.033a151.989,151.989,0,0,0-3.066,61.887" transform="translate(-627.75 -1033.196)" fill="none" stroke="#000" stroke-miterlimit="10" stroke-width="2"></path>
      <path id="Path_345" data-name="Path 345" d="M494.6,1307.42l85.77,26.924" transform="translate(-491.667 -1231.376)" fill="none" stroke="#000" stroke-miterlimit="10" stroke-width="2"></path>
    </g>
    <path id="Path_346" data-name="Path 346" d="M454.783,873.893a.993.993,0,0,0-.2-1.178,2.776,2.776,0,0,0-1.123-.61,40.593,40.593,0,0,0-7.683-1.876" transform="translate(-96.289 -295.525)" fill="none" stroke="#000" stroke-miterlimit="10" stroke-width="2"></path>
    <path id="Path_347" data-name="Path 347" d="M468.552,910.661l-8.523,1.051" transform="translate(-106.918 -325.669)" fill="none" stroke="#000" stroke-miterlimit="10" stroke-width="2"></path>
    <path id="Path_348" data-name="Path 348" d="M482.2,938.2a64.565,64.565,0,0,1-12.141-.255" transform="translate(-114.398 -346.009)" fill="none" stroke="#000" stroke-miterlimit="10" stroke-width="2"></path>
    <path id="Path_349" data-name="Path 349" d="M495.3,966.862l-8.577,3.484" transform="translate(-126.819 -367.569)" fill="none" stroke="#000" stroke-miterlimit="10" stroke-width="2"></path>
    <path id="Path_350" data-name="Path 350" d="M672.3,655.471l-5.249-4.086" transform="translate(-261.261 -132.366)" fill="none" stroke="#000" stroke-miterlimit="10" stroke-width="2"></path>
    <path id="Path_351" data-name="Path 351" d="M639.341,708.983l-9.371.134" transform="translate(-233.617 -175.308)" fill="none" stroke="#000" stroke-miterlimit="10" stroke-width="2"></path>
    <path id="Path_352" data-name="Path 352" d="M623.067,774.636l-13.2.239" transform="translate(-218.627 -224.255)" fill="none" stroke="#000" stroke-miterlimit="10" stroke-width="2"></path>
    <path id="Path_353" data-name="Path 353" d="M632.276,839.921a12.377,12.377,0,0,0-7.239,1.048" transform="translate(-229.939 -272.815)" fill="none" stroke="#000" stroke-miterlimit="10" stroke-width="2"></path>
  </g>
</svg>
